<svg fill="currentColor" viewbox="0 0 16 16" width="16" height="16"><path d="M9.50613 3.06445C9.19441 2.79168 9.16282 2.31786 9.43558 2.00613C9.70834 1.69441 10.1822 1.66282 10.4939 1.93558L14.4939 5.43553C14.5264 5.46399 14.5561 5.49497 14.5829 5.52806C14.6874 5.65694 14.75 5.82114 14.75 5.99997C14.75 5.99995 14.75 5.99998 14.75 5.99997C14.75 6.22769 14.6485 6.43174 14.4883 6.56929L10.4939 10.0644C10.1822 10.3372 9.70834 10.3056 9.43558 9.99389C9.16282 9.68217 9.1944 9.20835 9.50613 8.93558L12.0039 6.75H5C4.86193 6.75 4.75 6.86193 4.75 7V13C4.75 13.4142 4.41421 13.75 4 13.75C3.58579 13.75 3.25 13.4142 3.25 13V7C3.25 6.0335 4.0335 5.25 5 5.25H12.0039L9.50613 3.06445Z"></path></svg>