<svg fill="currentColor" viewbox="0 0 24 24" width="24" height="24"><path d="M10 2.5C10.5523 2.5 11 2.05228 11 1.5C11 0.947715 10.5523 0.5 10 0.5C9.44772 0.5 9 0.947715 9 1.5C9 2.05228 9.44772 2.5 10 2.5ZM12 4.8C12.5523 4.8 13 4.35228 13 3.8C13 3.24772 12.5523 2.8 12 2.8C11.4477 2.8 11 3.24772 11 3.8C11 4.35228 11.4477 4.8 12 4.8ZM15 1.5C15 2.05228 14.5523 2.5 14 2.5C13.4477 2.5 13 2.05228 13 1.5C13 0.947715 13.4477 0.5 14 0.5C14.5523 0.5 15 0.947715 15 1.5ZM16 4.8C16.5523 4.8 17 4.35228 17 3.8C17 3.24772 16.5523 2.8 16 2.8C15.4477 2.8 15 3.24772 15 3.8C15 4.35228 15.4477 4.8 16 4.8ZM9 3.8C9 4.35228 8.55228 4.8 8 4.8C7.44772 4.8 7 4.35228 7 3.8C7 3.24772 7.44772 2.8 8 2.8C8.55228 2.8 9 3.24772 9 3.8ZM5.88623 12.5502C4.48963 12.5502 3.28329 13.6297 3.28329 15.0502C3.28329 16.4707 4.48963 17.5502 5.88623 17.5502C7.28283 17.5502 8.48917 16.4707 8.48917 15.0502C8.48917 13.6297 7.28283 12.5502 5.88623 12.5502ZM4.78329 15.0502C4.78329 14.5377 5.23613 14.0502 5.88623 14.0502C6.53633 14.0502 6.98917 14.5377 6.98917 15.0502C6.98917 15.5627 6.53633 16.0502 5.88623 16.0502C5.23613 16.0502 4.78329 15.5627 4.78329 15.0502ZM17.864 12.5502C16.4674 12.5502 15.2611 13.6297 15.2611 15.0502C15.2611 16.4707 16.4674 17.5502 17.864 17.5502C19.2606 17.5502 20.467 16.4707 20.467 15.0502C20.467 13.6297 19.2606 12.5502 17.864 12.5502ZM16.7611 15.0502C16.7611 14.5377 17.2139 14.0502 17.864 14.0502C18.5141 14.0502 18.967 14.5377 18.967 15.0502C18.967 15.5627 18.5141 16.0502 17.864 16.0502C17.2139 16.0502 16.7611 15.5627 16.7611 15.0502ZM1.82357 11.2891H1.63773C1.08544 11.2891 0.637726 10.8413 0.637726 10.2891C0.637726 9.73678 1.08544 9.28906 1.63773 9.28906H2.91037C3.0216 9.28906 3.12859 9.30722 3.22854 9.34074L4.2787 6.67525C4.61751 5.81529 5.44778 5.25001 6.37208 5.25001L17.1458 5.25C18.0701 5.25 18.9004 5.81528 19.2392 6.67525L20.3057 9.38206C20.4338 9.32238 20.5767 9.28906 20.7274 9.28906H22C22.5523 9.28906 23 9.73678 23 10.2891C23 10.8413 22.5523 11.2891 22 11.2891H21.7671C22.3848 12.0086 22.75 13.0592 22.75 14.4956V20.2C22.75 20.9157 22.6325 21.6863 22.1352 22.2763C21.6146 22.894 20.8227 23.15 19.8524 23.15C18.8075 23.15 17.9788 22.7705 17.4485 22.0106C17.0836 21.4876 16.9017 20.8418 16.8315 20.15H6.80437C6.73119 20.8405 6.54418 21.4829 6.18288 22.0036C5.66044 22.7566 4.84784 23.15 3.82508 23.15C2.87159 23.15 2.08903 22.8742 1.56064 22.2749C1.04813 21.6935 0.887726 20.9332 0.887726 20.2V14.4956C0.887726 13.0402 1.23544 11.9974 1.82357 11.2891ZM17.1458 6.75L6.37208 6.75001C6.06398 6.75001 5.78723 6.93844 5.67429 7.22509L4.53599 10.1143H18.9819L17.8436 7.22508C17.7307 6.93843 17.4539 6.75 17.1458 6.75ZM3.18966 12.035C3.57807 11.7127 4.08252 11.6171 4.5548 11.6143H4.5971L4.62275 11.6146C5.19485 11.6217 8.79617 11.6217 12.2435 11.62C13.9696 11.6191 15.6603 11.6177 16.9194 11.6166L19.0063 11.6147L19.014 11.6146C19.5254 11.6088 20.0654 11.738 20.4716 12.1047C20.8626 12.4576 21.25 13.1396 21.25 14.4956V20.2C21.25 20.7989 21.141 21.1283 20.9882 21.3096C20.8587 21.4633 20.5768 21.65 19.8524 21.65C19.2027 21.65 18.8781 21.438 18.6787 21.1522C18.4433 20.815 18.2957 20.249 18.2957 19.4V18.65H14.0233V14.9965C14.0233 14.5823 13.6875 14.2465 13.2733 14.2465C12.8591 14.2465 12.5233 14.5823 12.5233 14.9965V18.65H11.1144V14.9965C11.1144 14.5823 10.7786 14.2465 10.3644 14.2465C9.9502 14.2465 9.61441 14.5823 9.61441 14.9965V18.65H5.34197V19.4C5.34197 20.2337 5.18897 20.8048 4.95047 21.1486C4.7449 21.4448 4.42405 21.65 3.82508 21.65C3.15684 21.65 2.84572 21.4643 2.68586 21.2829C2.51013 21.0836 2.38773 20.7432 2.38773 20.1994V14.4956C2.38773 13.0162 2.8074 12.3522 3.18966 12.035Z"></path></svg>