<svg fill="currentColor" viewbox="0 0 24 24" width="24" height="24"><path d="M1.25 12C1.25 6.06294 6.06294 1.25 12 1.25C17.9371 1.25 22.75 6.06294 22.75 12C22.75 17.9371 17.9371 22.75 12 22.75C6.06294 22.75 1.25 17.9371 1.25 12ZM17.7057 8.66852C17.9645 8.34507 17.9121 7.8731 17.5886 7.61434C17.2652 7.35559 16.7932 7.40803 16.5344 7.73147L10.4606 15.3238L7.10689 12.2496C6.80155 11.9697 6.32712 11.9904 6.04723 12.2957C5.76733 12.601 5.78796 13.0755 6.0933 13.3554L10.0383 16.9716C10.1914 17.1119 10.3958 17.1825 10.6028 17.1665C10.8099 17.1505 11.001 17.0494 11.1307 16.8873L17.7057 8.66852Z"></path></svg>