<svg fill="currentColor" viewbox="0 0 24 24" width="24" height="24"><path d="M20.7071 19.2928C21.0976 19.6833 21.0976 20.3165 20.7071 20.707C20.3166 21.0975 19.6834 21.0975 19.2929 20.707L12 13.4141L4.70711 20.7071C4.31658 21.0976 3.68342 21.0976 3.29289 20.7071C2.90237 20.3166 2.90237 19.6834 3.29289 19.2929L10.5858 11.9999L3.29301 4.70711C2.90248 4.31658 2.90248 3.68342 3.29301 3.29289C3.68353 2.90237 4.3167 2.90237 4.70722 3.29289L12 10.5857L19.2928 3.29299C19.6833 2.90246 20.3165 2.90246 20.707 3.29299C21.0975 3.68351 21.0975 4.31668 20.707 4.7072L13.4143 11.9999L20.7071 19.2928Z"></path></svg>