<svg fill="currentColor" viewbox="0 0 24 24" width="24" height="24"><path d="M16.4983 6.93944C16.1887 6.66425 15.7146 6.69214 15.4394 7.00173L7.43944 16.0017C7.16425 16.3113 7.19214 16.7854 7.50173 17.0606C7.81131 17.3357 8.28537 17.3079 8.56056 16.9983L16.5606 7.99827C16.8357 7.68869 16.8079 7.21463 16.4983 6.93944ZM9 10.5C8.17157 10.5 7.5 9.82843 7.5 9C7.5 8.17157 8.17157 7.5 9 7.5C9.82843 7.5 10.5 8.17157 10.5 9C10.5 9.82843 9.82843 10.5 9 10.5ZM15 16.5C14.1716 16.5 13.5 15.8284 13.5 15C13.5 14.1716 14.1716 13.5 15 13.5C15.8284 13.5 16.5 14.1716 16.5 15C16.5 15.8284 15.8284 16.5 15 16.5ZM12 2.75C6.89137 2.75 2.75 6.89137 2.75 12C2.75 17.1086 6.89137 21.25 12 21.25C17.1086 21.25 21.25 17.1086 21.25 12C21.25 6.89137 17.1086 2.75 12 2.75ZM1.25 12C1.25 6.06294 6.06294 1.25 12 1.25C17.9371 1.25 22.75 6.06294 22.75 12C22.75 17.9371 17.9371 22.75 12 22.75C6.06294 22.75 1.25 17.9371 1.25 12Z"></path></svg>