<svg fill="currentColor" viewbox="0 0 16 16" width="16" height="16"><path d="M3.75 8C3.75 7.44772 4.19772 7 4.75 7H11.25C11.8023 7 12.25 7.44772 12.25 8C12.25 8.55229 11.8023 9 11.25 9H4.75C4.19772 9 3.75 8.55229 3.75 8ZM8 1.75C4.54822 1.75 1.75 4.54822 1.75 8C1.75 11.4518 4.54822 14.25 8 14.25C11.4518 14.25 14.25 11.4518 14.25 8C14.25 4.54822 11.4518 1.75 8 1.75ZM0.25 8C0.25 3.71979 3.71979 0.25 8 0.25C12.2802 0.25 15.75 3.71979 15.75 8C15.75 12.2802 12.2802 15.75 8 15.75C3.71979 15.75 0.25 12.2802 0.25 8Z"></path></svg>