<svg fill="currentColor" viewbox="0 0 24 24" width="24" height="24"><path d="M8.5 3.75C10.0368 3.75 11.3245 4.81665 11.663 6.25L22 6.25C22.4142 6.25 22.75 6.58579 22.75 7C22.75 7.41421 22.4142 7.75 22 7.75L11.663 7.75C11.3245 9.18335 10.0368 10.25 8.5 10.25C6.96321 10.25 5.67555 9.18335 5.33697 7.75L2 7.75C1.58579 7.75 1.25 7.41421 1.25 7C1.25 6.58579 1.58579 6.25 2 6.25L5.33697 6.25C5.67555 4.81665 6.96321 3.75 8.5 3.75ZM8.5 5.25C7.5335 5.25 6.75 6.0335 6.75 7C6.75 7.9665 7.5335 8.75 8.5 8.75C9.4665 8.75 10.25 7.9665 10.25 7C10.25 6.0335 9.4665 5.25 8.5 5.25ZM12.337 17.25L2 17.25C1.58579 17.25 1.25 16.9142 1.25 16.5C1.25 16.0858 1.58579 15.75 2 15.75L12.337 15.75C12.6755 14.3166 13.9632 13.25 15.5 13.25C17.0368 13.25 18.3245 14.3167 18.663 15.75L22 15.75C22.4142 15.75 22.75 16.0858 22.75 16.5C22.75 16.9142 22.4142 17.25 22 17.25L18.663 17.25C18.3245 18.6834 17.0368 19.75 15.5 19.75C13.9632 19.75 12.6755 18.6833 12.337 17.25ZM13.75 16.5C13.75 15.5335 14.5335 14.75 15.5 14.75C16.4665 14.75 17.25 15.5335 17.25 16.5C17.25 17.4665 16.4665 18.25 15.5 18.25C14.5335 18.25 13.75 17.4665 13.75 16.5Z"></path></svg>