<svg fill="currentColor" viewbox="0 0 24 24" width="24" height="24"><path d="M12.4065 0.276117C12.7335 0.364621 12.9605 0.66132 12.9605 1.00007V8.25007H18.5156C19.5306 8.25007 20.1642 9.34969 19.6553 10.2279L12.2922 22.9317C12.1221 23.2252 11.7762 23.368 11.4486 23.2799C11.121 23.1918 10.8933 22.8948 10.8933 22.5556V14.9501H5.4883C4.47131 14.9501 3.83793 13.8466 4.35089 12.9684L11.5629 0.621779C11.7338 0.329277 12.0795 0.187614 12.4065 0.276117ZM5.8067 13.4501H11.6433C12.0575 13.4501 12.3933 13.7859 12.3933 14.2001V19.766L18.1985 9.75007H12.2105C11.7963 9.75007 11.4605 9.41428 11.4605 9.00007V3.77099L5.8067 13.4501Z"></path></svg>