<svg fill="currentColor" viewbox="0 0 24 24" width="24" height="24"><path d="M4.5 4.85C4.5 4.10442 5.10441 3.5 5.85 3.5H11.65C12.3956 3.5 13 4.10442 13 4.85V9.27279C13 10.0184 12.3956 10.6228 11.65 10.6228H5.85C5.10442 10.6228 4.5 10.0184 4.5 9.27279V4.85ZM6 5V9.12279H11.5V5H6ZM1.75 3.5C1.75 1.98122 2.98122 0.75 4.5 0.75H12.9951C14.5139 0.75 15.7451 1.98122 15.7451 3.5V14.5443L15.7523 14.5443H16.377C16.8603 14.5443 17.4962 14.6625 18.0214 15.1132C18.5691 15.5832 18.8764 16.3109 18.8764 17.2812V19.764C18.8764 20.315 19.0269 20.6805 19.2189 20.8974C19.4011 21.1032 19.685 21.25 20.1256 21.25C20.561 21.25 20.7992 21.1081 20.9471 20.9243C21.1153 20.7154 21.25 20.3466 21.25 19.7647V12.3699C20.7085 12.2738 20.2011 12.0698 19.7813 11.7514C19.1551 11.2766 18.75 10.5621 18.75 9.68555V4.90193L17.5532 3.48371C17.2861 3.16715 17.3261 2.69397 17.6427 2.42683C17.9593 2.1597 18.4324 2.19976 18.6996 2.51632L21.9287 6.34287C22.4966 6.92119 22.6723 7.58577 22.7264 8.20564C22.7419 8.33409 22.7497 8.4639 22.7497 8.59443V8.77983C22.7502 8.85558 22.7501 8.92984 22.7501 9.00232L22.75 19.7647C22.75 20.5488 22.5722 21.2977 22.1156 21.8649C21.6387 22.4573 20.9397 22.75 20.1256 22.75C19.3167 22.75 18.6009 22.4622 18.0959 21.8918C17.6007 21.3326 17.3764 20.5797 17.3764 19.7647V17.2812C17.3764 16.637 17.1839 16.3712 17.0444 16.2514C16.8823 16.1123 16.6435 16.0443 16.377 16.0443H15.7523L15.7451 16.0442V21.75H15.75C16.1642 21.75 16.5 22.0858 16.5 22.5C16.5 22.9142 16.1642 23.25 15.75 23.25H1.75C1.33579 23.25 1 22.9142 1 22.5C1 22.0858 1.33579 21.75 1.75 21.75V3.5ZM3.25 21.75H14.2451V3.5C14.2451 2.80964 13.6855 2.25 12.9951 2.25H4.5C3.80964 2.25 3.25 2.80964 3.25 3.5V21.75ZM21.2285 8.32274C21.2438 8.50104 21.2486 8.70693 21.2497 8.95046V10.8312C21.0267 10.7647 20.837 10.6695 20.6876 10.5562C20.4075 10.3438 20.25 10.0588 20.25 9.68555V6.76471L20.8419 7.47181C21.0466 7.71643 21.1795 8.01095 21.2285 8.32274Z"></path></svg>