<svg fill="currentColor" viewbox="0 0 24 24" width="24" height="24"><path d="M2.99387 6.72731C2.48043 8.15655 2.70479 10.1101 4.38736 12.0016C5.98428 13.7968 9.68653 17.7574 11.5544 19.7494C11.8537 20.0685 12.3567 20.0633 12.6496 19.7375C14.4692 17.7134 18.0678 13.7036 19.5485 12.0069C19.5562 11.9981 19.5641 11.9895 19.5722 11.9811C23.1244 8.27533 20.3611 4.30273 17.6156 4.30273C16.2241 4.30273 15.5089 4.55524 14.9157 4.95969C14.5981 5.17624 14.2933 5.45189 13.9256 5.81263C13.8122 5.92392 13.6908 6.04531 13.5617 6.1745C13.2872 6.44905 12.9775 6.75885 12.6336 7.08184C12.345 7.35298 11.8953 7.35297 11.6067 7.08184C11.3057 6.79916 11.0449 6.5449 10.8092 6.3152C10.2085 5.72968 9.7715 5.30367 9.25126 4.97299C8.59889 4.55832 7.80516 4.30273 6.34484 4.30273C4.79772 4.30273 3.51334 5.28126 2.99387 6.72731ZM1.5822 6.22018C2.29798 4.22766 4.11412 2.80273 6.34484 2.80273C8.00577 2.80273 9.10053 3.0998 10.0559 3.70708C10.7176 4.12764 11.3122 4.70778 11.9599 5.33972C12.0125 5.391 12.0654 5.44262 12.1187 5.49453C12.2427 5.37218 12.3611 5.25368 12.4771 5.13758C12.6113 5.00323 12.7424 4.87209 12.8751 4.74188C13.2568 4.36743 13.6389 4.01479 14.0707 3.72037C14.9763 3.10288 16.0097 2.80273 17.6156 2.80273C21.794 2.80273 25.0346 8.43337 20.6673 13.0062C19.1707 14.7205 15.5768 18.725 13.7652 20.7403C12.8852 21.7192 11.3611 21.7361 10.4602 20.7754C8.59789 18.7894 4.87971 14.812 3.26661 12.9986C1.26602 10.7496 0.860375 8.2295 1.5822 6.22018Z"></path></svg>