<svg fill="currentColor" viewbox="0 0 16 16" width="16" height="16"><path d="M5.93938 3.23122C5.36046 3.72039 4.925 4.49931 4.925 5.6899C4.925 6.53804 4.80234 7.27782 4.46598 8.00204C4.15539 8.67077 3.67627 9.29661 3 9.9702V10.4994L13 10.5V9.98861C12.3222 9.38665 11.843 8.7784 11.5327 8.09866C11.1959 7.36104 11.075 6.5766 11.075 5.6899C11.075 4.53969 10.6592 3.75654 10.0968 3.256C9.52336 2.74569 8.76398 2.5 8.04585 2.5C7.31685 2.5 6.53252 2.73004 5.93938 3.23122ZM5.29397 2.46739C6.09875 1.78738 7.12484 1.5 8.04585 1.5C8.97771 1.5 9.9829 1.81599 10.7616 2.50899C11.5512 3.21175 12.075 4.27356 12.075 5.6899C12.075 6.48472 12.1833 7.11592 12.4423 7.68333C12.7014 8.25076 13.1284 8.79176 13.8227 9.37825C13.9351 9.47326 14 9.61299 14 9.7602V10.6669C14 11.1275 13.6265 11.5 13.1667 11.5H2.83333C2.37351 11.5 2 11.1275 2 10.6669V9.7602C2 9.62455 2.05512 9.49472 2.15271 9.4005C2.86192 8.71577 3.29666 8.1457 3.55902 7.58081C3.81849 7.02215 3.925 6.43479 3.925 5.6899C3.925 4.22543 4.47497 3.15941 5.29397 2.46739ZM6 13.25C6 12.9739 6.22386 12.75 6.5 12.75H9.5C9.77614 12.75 10 12.9739 10 13.25C10 13.5261 9.77614 13.75 9.5 13.75H6.5C6.22386 13.75 6 13.5261 6 13.25Z"></path></svg>