<svg fill="currentColor" viewbox="0 0 24 24" width="24" height="24"><path d="M19.3497 14.6366C19.889 14.8329 20.9896 14.5169 21.4874 13.149C21.9853 11.7811 21.3454 10.8316 20.8061 10.6354C20.2668 10.4391 19.1662 10.7551 18.6684 12.123C18.1705 13.4909 18.8105 14.4404 19.3497 14.6366ZM18.8367 16.0462C20.3936 16.6129 22.2115 15.5455 22.897 13.6621C23.5825 11.7787 22.876 9.79251 21.3191 9.22583C19.7622 8.65915 17.9443 9.72655 17.2588 11.6099C16.5733 13.4933 17.2798 15.4795 18.8367 16.0462ZM14.8983 7.65251C15.45 7.81069 16.5258 7.41869 16.9271 6.01941C17.3283 4.62012 16.6237 3.71758 16.072 3.55939C15.5204 3.40121 14.4445 3.79321 14.0433 5.19249C13.642 6.59177 14.3467 7.49432 14.8983 7.65251ZM14.4849 9.0944C16.0776 9.55109 17.8165 8.35948 18.369 6.43286C18.9214 4.50624 18.0781 2.57419 16.4855 2.1175C14.8928 1.66081 13.1538 2.85242 12.6014 4.77904C12.0489 6.70566 12.8922 8.63771 14.4849 9.0944ZM8.76444 7.70767C9.31609 7.54948 10.0207 6.64693 9.61949 5.24765C9.21825 3.84837 8.14241 3.45637 7.59076 3.61455C7.0391 3.77274 6.33447 4.67528 6.7357 6.07457C7.13694 7.47385 8.21278 7.86585 8.76444 7.70767ZM9.17789 9.14956C10.7706 8.69287 11.6138 6.76082 11.0614 4.8342C10.5089 2.90758 8.76997 1.71597 7.1773 2.17266C5.58463 2.62935 4.74136 4.5614 5.29381 6.48802C5.84626 8.41464 7.58522 9.60625 9.17789 9.14956ZM4.78848 14.5845C5.32776 14.3882 5.96772 13.4387 5.46985 12.0709C4.97198 10.703 3.87141 10.387 3.33214 10.5832C2.79286 10.7795 2.1529 11.729 2.65077 13.0969C3.14864 14.4648 4.2492 14.7808 4.78848 14.5845ZM5.30151 15.9941C6.85844 15.4274 7.56488 13.4412 6.87939 11.5578C6.19389 9.67443 4.37604 8.60703 2.81911 9.17371C1.26217 9.74038 0.555733 11.7266 1.24123 13.6099C1.92673 15.4933 3.74458 16.5607 5.30151 15.9941ZM9.90295 14.8941C9.78902 15.327 9.66461 15.7999 9.50792 16.2476C9.27206 16.9215 8.8768 17.4962 8.48253 17.9871C8.28447 18.2337 8.07852 18.4688 7.88686 18.6867C7.8752 18.6999 7.86361 18.7131 7.85209 18.7262C7.6702 18.9329 7.5036 19.1223 7.3516 19.3088C7.01958 19.7161 6.82861 20.0273 6.75874 20.2975C6.7019 20.5175 6.71168 20.7569 6.92886 21.0911C7.17542 21.4704 7.40364 21.6113 7.60612 21.673C7.83535 21.7428 8.13178 21.7419 8.56416 21.6622C8.84251 21.611 9.11087 21.5425 9.416 21.4646C9.61349 21.4142 9.82638 21.3599 10.0674 21.3037C10.6405 21.1702 11.2919 21.0498 12 21.0498C12.5803 21.0498 13.1764 21.1338 13.7254 21.2238C13.8781 21.2488 14.0259 21.274 14.1697 21.2985C14.5633 21.3657 14.927 21.4278 15.2805 21.4669C16.2903 21.5785 16.7396 21.4383 16.976 21.0838C17.2722 20.6395 17.295 20.3281 17.24 20.0724C17.1749 19.77 16.9778 19.4374 16.6329 19.0062C16.4877 18.8249 16.3308 18.643 16.1601 18.4451C16.1319 18.4124 16.1033 18.3793 16.0744 18.3457C15.8747 18.1138 15.6609 17.8626 15.458 17.5965C15.0533 17.0655 14.6611 16.4364 14.4724 15.6817C14.4051 15.4123 14.3471 15.1674 14.2929 14.9386C14.216 14.6139 14.1467 14.3214 14.0691 14.0365C13.9407 13.565 13.8152 13.22 13.6622 12.9618C13.5187 12.7196 13.3551 12.5607 13.135 12.4515C12.9022 12.336 12.5526 12.2498 12 12.2498C11.5078 12.2498 11.201 12.3699 10.9871 12.5267C10.7633 12.6906 10.5757 12.9429 10.4071 13.3116C10.2362 13.6856 10.106 14.1303 9.96845 14.6462C9.94691 14.727 9.92513 14.8098 9.90295 14.8941ZM10.1005 11.3167C10.6115 10.9422 11.2423 10.7498 12 10.7498C12.6974 10.7498 13.2962 10.8569 13.8019 11.1079C14.3203 11.3652 14.6854 11.7461 14.9527 12.1971C15.2104 12.6321 15.3779 13.1337 15.5164 13.6424C15.5981 13.9426 15.6792 14.2839 15.7625 14.6347C15.8164 14.8614 15.8711 15.092 15.9276 15.3179C16.0457 15.7903 16.303 16.2306 16.651 16.6871C16.8245 16.9147 17.0128 17.1366 17.211 17.3669C17.2382 17.3984 17.2656 17.4301 17.2932 17.4621C17.4628 17.6587 17.6401 17.8642 17.8041 18.0691C18.1785 18.537 18.5645 19.0971 18.7064 19.7568C18.8584 20.4633 18.7123 21.1835 18.2241 21.9158C17.4604 23.0613 16.1405 23.0711 15.1157 22.9578C14.7144 22.9134 14.2864 22.8403 13.8796 22.7709C13.7444 22.7478 13.6116 22.7251 13.4828 22.704C12.9448 22.6158 12.4505 22.5498 12 22.5498C11.4582 22.5498 10.9345 22.6419 10.4077 22.7646C10.2368 22.8044 10.0527 22.8511 9.86443 22.8988C9.51666 22.987 9.15479 23.0787 8.8359 23.1374C8.31828 23.2328 7.73971 23.2818 7.16894 23.1079C6.57142 22.9258 6.07464 22.5292 5.6712 21.9086C5.23838 21.2427 5.13823 20.573 5.30648 19.9222C5.46171 19.3216 5.83084 18.8004 6.1889 18.3611C6.35958 18.1516 6.54412 17.9419 6.72118 17.7408C6.73436 17.7258 6.7475 17.7108 6.76059 17.696C6.95332 17.4769 7.13861 17.2649 7.31303 17.0478C7.6637 16.6111 7.93829 16.1916 8.09214 15.7521C8.22732 15.3658 8.33394 14.9612 8.44798 14.5285C8.47128 14.4401 8.49488 14.3505 8.5191 14.2597C8.65652 13.7444 8.81387 13.1891 9.04292 12.688C9.27434 12.1818 9.59925 11.684 10.1005 11.3167Z"></path></svg>