<svg fill="currentColor" viewbox="0 0 24 24" width="24" height="24"><path d="M14.95 4.6C14.95 2.74985 16.4498 1.25 18.3 1.25C20.1502 1.25 21.65 2.74985 21.65 4.6C21.65 6.45015 20.1502 7.95 18.3 7.95C17.1174 7.95 16.0779 7.33722 15.4818 6.41187L7.63973 10.3329C7.83885 10.7614 7.95 11.2392 7.95 11.7428C7.95 12.2415 7.84102 12.7148 7.64559 13.1401L15.5009 17.5587C16.1 16.6498 17.13 16.05 18.3 16.05C20.1502 16.05 21.65 17.5498 21.65 19.4C21.65 21.2501 20.1502 22.75 18.3 22.75C16.4498 22.75 14.95 21.2501 14.95 19.4C14.95 19.2592 14.9587 19.1204 14.9755 18.9842L6.71735 14.339C6.14027 14.8102 5.40314 15.0928 4.6 15.0928C2.74985 15.0928 1.25 13.593 1.25 11.7428C1.25 9.89267 2.74985 8.39282 4.6 8.39282C5.39267 8.39282 6.12105 8.66813 6.69472 9.12835L14.9724 4.9895C14.9576 4.86172 14.95 4.73175 14.95 4.6ZM18.3 2.75C17.2783 2.75 16.45 3.57827 16.45 4.6C16.45 5.62173 17.2783 6.45 18.3 6.45C19.3217 6.45 20.15 5.62173 20.15 4.6C20.15 3.57827 19.3217 2.75 18.3 2.75ZM4.6 9.89282C3.57827 9.89282 2.75 10.7211 2.75 11.7428C2.75 12.7645 3.57827 13.5928 4.6 13.5928C5.62173 13.5928 6.45 12.7645 6.45 11.7428C6.45 10.7211 5.62173 9.89282 4.6 9.89282ZM16.45 19.4C16.45 18.3783 17.2783 17.55 18.3 17.55C19.3217 17.55 20.15 18.3783 20.15 19.4C20.15 20.4217 19.3217 21.25 18.3 21.25C17.2783 21.25 16.45 20.4217 16.45 19.4Z"></path></svg>