<svg fill="currentColor" viewbox="0 0 16 16" width="16" height="16"><path d="M9.5 4C9.5 2.61929 10.6193 1.5 12 1.5C13.3807 1.5 14.5 2.61929 14.5 4C14.5 5.38071 13.3807 6.5 12 6.5C11.0374 6.5 10.2019 5.95595 9.78409 5.15857L5.39181 7.27022C5.46216 7.50109 5.5 7.74612 5.5 8C5.5 8.29724 5.44812 8.58237 5.35293 8.84682L9.77907 10.8511C10.1951 10.0484 11.0335 9.5 12 9.5C13.3807 9.5 14.5 10.6193 14.5 12C14.5 13.3807 13.3807 14.5 12 14.5C10.6193 14.5 9.5 13.3807 9.5 12C9.5 11.9412 9.50203 11.8829 9.50602 11.8252L4.82705 9.70644C4.37078 10.1948 3.72104 10.5 3 10.5C1.61929 10.5 0.5 9.38071 0.5 8C0.5 6.61929 1.61929 5.5 3 5.5C3.76774 5.5 4.45466 5.84607 4.91325 6.39073L9.50655 4.18243C9.50221 4.12219 9.5 4.06135 9.5 4ZM12 2.5C11.1716 2.5 10.5 3.17157 10.5 4C10.5 4.82843 11.1716 5.5 12 5.5C12.8284 5.5 13.5 4.82843 13.5 4C13.5 3.17157 12.8284 2.5 12 2.5ZM3 6.5C2.17157 6.5 1.5 7.17157 1.5 8C1.5 8.82843 2.17157 9.5 3 9.5C3.82843 9.5 4.5 8.82843 4.5 8C4.5 7.17157 3.82843 6.5 3 6.5ZM10.5 12C10.5 11.1716 11.1716 10.5 12 10.5C12.8284 10.5 13.5 11.1716 13.5 12C13.5 12.8284 12.8284 13.5 12 13.5C11.1716 13.5 10.5 12.8284 10.5 12Z"></path></svg>