<svg fill="currentColor" viewbox="0 0 24 24" width="24" height="24"><path d="M11.7856 6.25C6.44269 6.25 3.34448 9.39129 2.10617 11.1344C2.1014 11.1411 2.09653 11.1477 2.09154 11.1543C1.84703 11.4755 1.75 11.7835 1.75 12.0619C1.75 12.3393 1.84631 12.646 2.08883 12.966C3.47028 14.7324 6.57378 17.75 11.7856 17.75C17.1738 17.75 20.7879 14.6855 21.9928 12.9895C22.3328 12.5109 22.3357 11.7541 22.0016 11.2707C20.6165 9.50504 17.1214 6.25 11.7856 6.25ZM0.890214 10.256C2.29514 8.28287 5.792 4.75 11.7856 4.75C17.7812 4.75 21.6697 8.40995 23.1952 10.362C23.2022 10.371 23.209 10.3802 23.2156 10.3895C23.9281 11.3924 23.9281 12.8552 23.2156 13.8582C21.7818 15.8764 17.7437 19.25 11.7856 19.25C5.9189 19.25 2.42644 15.8341 0.903793 13.8856L0.897916 13.8781C0.482761 13.3327 0.25 12.7121 0.25 12.0619C0.25 11.4158 0.479913 10.7989 0.890214 10.256ZM12 9.5C10.6193 9.5 9.5 10.6193 9.5 12C9.5 13.3807 10.6193 14.5 12 14.5C13.3807 14.5 14.5 13.3807 14.5 12C14.5 10.6193 13.3807 9.5 12 9.5ZM8 12C8 9.79086 9.79086 8 12 8C14.2091 8 16 9.79086 16 12C16 14.2091 14.2091 16 12 16C9.79086 16 8 14.2091 8 12Z"></path></svg>