<svg fill="currentColor" viewbox="0 0 16 16" width="16" height="16"><path d="M7.04894 1.3089C7.34829 0.387596 8.6517 0.387588 8.95106 1.3089L10.2518 5.31222L14.4612 5.31222C15.4299 5.31222 15.8327 6.55184 15.0489 7.12124L11.6435 9.59543L12.9443 13.5988C13.2436 14.5201 12.1891 15.2862 11.4054 14.7168L8 12.2426L4.59457 14.7168C3.81086 15.2862 2.75638 14.5201 3.05573 13.5988L4.35649 9.59543L0.951058 7.12124C0.167347 6.55184 0.570114 5.31222 1.53884 5.31222L5.74819 5.31222L7.04894 1.3089ZM9.41301 5.96673L8 1.61792L6.58698 5.96673C6.52005 6.17274 6.32807 6.31222 6.11146 6.31222L1.53884 6.31223L5.23816 8.99994C5.41341 9.12726 5.48674 9.35294 5.4198 9.55896L4.00678 13.9078L7.70611 11.2201C7.88135 11.0927 8.11865 11.0927 8.29389 11.2201L11.9932 13.9078L10.5802 9.55896C10.5133 9.35294 10.5866 9.12726 10.7618 8.99994L14.4612 6.31222L9.88854 6.31222C9.67193 6.31222 9.47995 6.17274 9.41301 5.96673Z"></path></svg>