<svg fill="currentColor" viewbox="0 0 24 24" width="24" height="24"><path d="M11.559 22.75C12.044 22.75 12.4761 22.4171 12.5826 21.9271C12.7242 21.2751 13.1559 19.3588 13.6977 17.6133C13.97 16.7357 14.2605 15.9335 14.5441 15.3624C14.6875 15.0735 14.8112 14.881 14.9061 14.7718C14.9132 14.7636 14.9197 14.7564 14.9257 14.75H15.928V14.7466C15.9517 14.7488 15.9757 14.75 16 14.75H18.5C19.7426 14.75 20.75 13.7426 20.75 12.5V5.5C20.75 4.25736 19.7426 3.25 18.5 3.25H16C15.5858 3.25 15.25 3.58579 15.25 4V4.3943C15.2435 4.38986 15.2371 4.38541 15.2306 4.38097C14.4479 3.84556 13.2965 3.25 12 3.25H5.83948C4.98718 3.25 4.2625 3.86339 4.11698 4.70015L2.66852 13.0288C2.376 14.7107 3.67067 16.25 5.37785 16.25H8.69009L8.44848 19.391C8.3091 21.2029 9.74174 22.75 11.559 22.75ZM16.75 6.00078L16.75 13.25H18.5C18.9142 13.25 19.25 12.9142 19.25 12.5V5.5C19.25 5.08579 18.9142 4.75 18.5 4.75L16.75 4.75V5.99934C16.75 5.99982 16.75 6.0003 16.75 6.00078ZM14.9734 14.7056C14.9734 14.7059 14.9707 14.7081 14.9654 14.7114C14.9707 14.707 14.9734 14.7054 14.9734 14.7056ZM14.8 13.25H15.1719L15.2466 6.30999C15.2241 6.28899 15.1999 6.26667 15.174 6.24318C14.9862 6.07299 14.7149 5.84556 14.3837 5.61903C13.7045 5.15444 12.8559 4.75 12 4.75L5.83948 4.75C5.71942 4.75 5.61588 4.83595 5.5948 4.95716L4.14633 13.2858C4.01337 14.0503 4.60186 14.75 5.37785 14.75H9.5C9.70891 14.75 9.90835 14.8371 10.0503 14.9904C10.1922 15.1437 10.2638 15.3492 10.2478 15.5575L9.94406 19.5061C9.88105 20.3253 10.437 21.0402 11.2047 21.2112C11.401 20.339 11.7906 18.6974 12.2651 17.1686C12.5444 16.2685 12.8629 15.3753 13.2006 14.6953C13.3677 14.3587 13.5577 14.0367 13.7739 13.7879C13.9677 13.5648 14.3128 13.25 14.8 13.25Z"></path></svg>