<svg fill="currentColor" viewbox="0 0 24 24" width="24" height="24"><path d="M12.441 2.25C11.956 2.25 11.5239 2.58288 11.4174 3.07288C11.2758 3.72493 10.8441 5.64115 10.3023 7.38675C10.03 8.26429 9.73952 9.06648 9.45595 9.63759C9.31248 9.92653 9.1888 10.119 9.09387 10.2282C9.0868 10.2364 9.08029 10.2436 9.07434 10.25H8.07202V10.2534C8.04832 10.2512 8.02429 10.25 8 10.25H5.5C4.25736 10.25 3.25 11.2574 3.25 12.5V19.5C3.25 20.7426 4.25736 21.75 5.5 21.75H8C8.41421 21.75 8.75 21.4142 8.75 21V20.6057C8.75646 20.6101 8.76294 20.6146 8.76943 20.619C9.55215 21.1544 10.7035 21.75 12 21.75H18.1605C19.0128 21.75 19.7375 21.1366 19.883 20.2998L21.3315 11.9712C21.624 10.2893 20.3293 8.75 18.6222 8.75H15.3099L15.5515 5.60899C15.6909 3.79708 14.2583 2.25 12.441 2.25ZM7.25 11.75H5.5C5.08579 11.75 4.75 12.0858 4.75 12.5V19.5C4.75 19.9142 5.08579 20.25 5.5 20.25H7.25V11.75ZM9.02664 10.2944C9.02664 10.2944 9.02931 10.2919 9.03461 10.2886C9.02929 10.293 9.02664 10.2944 9.02664 10.2944ZM9.19999 11.75H8.82807L8.75338 18.69C8.77588 18.711 8.80012 18.7333 8.82603 18.7568C9.01379 18.927 9.28515 19.1544 9.61631 19.381C10.2955 19.8456 11.1441 20.25 12 20.25H18.1605C18.2806 20.25 18.3841 20.1641 18.4052 20.0428L19.8537 11.7142C19.9866 10.9497 19.3981 10.25 18.6222 10.25H14.5C14.2911 10.25 14.0917 10.1629 13.9497 10.0096C13.8078 9.85631 13.7362 9.65077 13.7522 9.44248L14.0559 5.49395C14.119 4.67474 13.563 3.9598 12.7953 3.78877C12.599 4.66103 12.2094 6.30259 11.7349 7.83136C11.4556 8.73146 11.1371 9.62474 10.7994 10.3047C10.6323 10.6413 10.4423 10.9633 10.2261 11.2121C10.0323 11.4352 9.6872 11.75 9.19999 11.75Z"></path></svg>