<svg fill="currentColor" viewbox="0 0 24 24" width="24" height="24"><path d="M3.5 12.5C3.5 11.6716 4.17157 11 5 11H6.7V21H5C4.17157 21 3.5 20.3284 3.5 19.5V12.5ZM11.9518 3.25496C11.9807 3.10478 12.1111 3 12.2641 3Lnan nanL12.2641 3C13.7399 3 14.9034 4.2564 14.7902 5.72788L14.5 9.5H18.6222C19.8637 9.5 20.8053 10.6195 20.5926 11.8427L19.1441 20.1713C19.0608 20.6503 18.6467 21 18.1605 21C16.6767 21 13.5967 21 12 21C9.84767 21 7.99999 19.5 7.99999 19.5V11C7.99999 11 7.86226 11 9.2 11C10.3947 11 11.6886 4.61974 11.9518 3.25496Z"></path></svg>