<svg fill="currentColor" viewbox="0 0 16 16" width="16" height="16"><path d="M1.81632 10.8346C3.34382 9.78413 5.06913 9 8 9C11.0022 9 12.6735 9.78374 14.1866 10.8344C14.7111 11.1985 15 11.7977 15 12.4158V13.3973C15 14.2825 14.2825 15 13.3973 15H2.60268C1.71762 15 1 14.2827 1 13.3974V12.4158C1 11.798 1.28867 11.1975 1.81632 10.8346ZM8 10C5.29654 10 3.76567 10.7077 2.38296 11.6586C2.14494 11.8222 2 12.1043 2 12.4158V13.3974C2 13.7302 2.26976 14 2.60268 14H13.3973C13.7302 14 14 13.7302 14 13.3973V12.4158C14 12.1047 13.8551 11.8216 13.6163 11.6558C12.2492 10.7066 10.7737 10 8 10ZM8.0001 2C6.91897 2 6.1001 2.78076 6.1001 3.9V5.1C6.1001 6.21924 6.91897 7 8.0001 7C9.08123 7 9.9001 6.21924 9.9001 5.1V3.9C9.9001 2.78076 9.08123 2 8.0001 2ZM5.1001 3.9C5.1001 2.21405 6.38123 1 8.0001 1C9.61897 1 10.9001 2.21405 10.9001 3.9V5.1C10.9001 6.78595 9.61897 8 8.0001 8C6.38123 8 5.1001 6.78595 5.1001 5.1V3.9Z"></path></svg>