<svg fill="currentColor" viewbox="0 0 24 24" width="24" height="24"><path d="M3.01614 16.7563C5.23509 15.2032 7.75507 14.05 12 14.05C16.3476 14.05 18.7915 15.2024 20.9886 16.7558C21.8056 17.3335 22.25 18.2743 22.25 19.2404V20.5187C22.25 21.9167 21.1167 23.05 19.7188 23.05H4.28125C2.8834 23.05 1.75 21.9171 1.75 20.519V19.2404C1.75 18.2748 2.19403 17.3318 3.01614 16.7563ZM12 15.55C8.10012 15.55 5.87551 16.5859 3.87629 17.9852C3.48572 18.2586 3.25 18.7258 3.25 19.2404V20.519C3.25 21.0884 3.71158 21.55 4.28125 21.55H19.7188C20.2883 21.55 20.75 21.0883 20.75 20.5187V19.2404C20.75 18.7263 20.5143 18.2575 20.1226 17.9806C18.1476 16.5842 16.0013 15.55 12 15.55ZM12 4C10.2646 4 9 5.19946 9 6.85V8.65C9 10.3005 10.2646 11.5 12 11.5C13.7354 11.5 15 10.3005 15 8.65V6.85C15 5.19946 13.7354 4 12 4ZM7.5 6.85C7.5 4.29275 9.51667 2.5 12 2.5C14.4833 2.5 16.5 4.29275 16.5 6.85V8.65C16.5 11.2073 14.4833 13 12 13C9.51667 13 7.5 11.2073 7.5 8.65V6.85Z"></path></svg>