<svg fill="currentColor" viewbox="0 0 24 24" width="24" height="24"><path d="M9.18545 2.875C10.4364 0.708333 13.5637 0.708334 14.8146 2.875L23.0419 17.125C24.2928 19.2917 22.7291 22 20.2273 22H3.77279C1.27094 22 -0.292715 19.2917 0.95821 17.125L9.18545 2.875ZM11.25 17.2C11.25 17.6142 11.5858 17.95 12 17.95C12.4143 17.95 12.75 17.6142 12.75 17.2V16.4C12.75 15.9858 12.4143 15.65 12 15.65C11.5858 15.65 11.25 15.9858 11.25 16.4V17.2ZM11.25 13.5C11.25 13.9142 11.5858 14.25 12 14.25C12.4143 14.25 12.75 13.9142 12.75 13.5V7.50005C12.75 7.08583 12.4143 6.75005 12 6.75005C11.5858 6.75005 11.25 7.08583 11.25 7.50005V13.5Z"></path></svg>