<svg height="16" width="16" viewBox="0 0 16 16"><path d="M0.25 8C0.25 3.71979 3.71979 0.25 8 0.25C12.2802 0.25 15.75 3.71979 15.75 8C15.75 12.2802 12.2802 15.75 8 15.75C3.71979 15.75 0.25 12.2802 0.25 8ZM11.9439 5.89104C12.1784 5.598 12.1309 5.17041 11.8378 4.93598C11.5448 4.70155 11.1172 4.74906 10.8828 5.0421L6.95343 9.95376L4.85916 8.03401C4.58253 7.78044 4.15271 7.79912 3.89913 8.07576C3.64555 8.35239 3.66424 8.78221 3.94087 9.03579L6.57087 11.4466C6.70956 11.5738 6.89474 11.6377 7.08232 11.6232C7.2699 11.6087 7.44308 11.5171 7.56061 11.3702L11.9439 5.89104Z"/></svg>