<svg height="24" width="24" viewBox="0 0 24 24"><path d="M12 2.75C6.89137 2.75 2.75 6.89137 2.75 12C2.75 17.1086 6.89137 21.25 12 21.25C17.1086 21.25 21.25 17.1086 21.25 12C21.25 6.89137 17.1086 2.75 12 2.75ZM1.25 12C1.25 6.06294 6.06294 1.25 12 1.25C17.9371 1.25 22.75 6.06294 22.75 12C22.75 17.9371 17.9371 22.75 12 22.75C6.06294 22.75 1.25 17.9371 1.25 12ZM17.5886 7.61435C17.9121 7.87311 17.9645 8.34507 17.7057 8.66852L11.1307 16.8873C11.001 17.0494 10.8099 17.1505 10.6028 17.1665C10.3958 17.1825 10.1914 17.1119 10.0383 16.9716L6.0933 13.3554C5.78796 13.0755 5.76734 12.601 6.04723 12.2957C6.32713 11.9904 6.80155 11.9697 7.10689 12.2496L10.4606 15.3238L16.5344 7.73148C16.7932 7.40803 17.2652 7.35559 17.5886 7.61435Z"/></svg>