<svg width="16" height="16" xmlns="http://www.w3.org/2000/svg">
<path d="M15 8C15 11.866 11.866 15 8 15C4.13401 15 1 11.866 1 8C1 4.13401 4.13401 1 8 1C11.866 1 15 4.13401 15 8ZM7.25 11.4001C7.25 11.8143 7.58579 12.1501 8 12.1501C8.41421 12.1501 8.75 11.8143 8.75 11.4001V10.8668C8.75 10.4525 8.41421 10.1168 8 10.1168C7.58579 10.1168 7.25 10.4525 7.25 10.8668V11.4001ZM7.25 8.56659C7.25 8.9808 7.58579 9.31659 8 9.31659C8.41421 9.31659 8.75 8.9808 8.75 8.56659V4.60009C8.75 4.18587 8.41421 3.85009 8 3.85009C7.58579 3.85009 7.25 4.18587 7.25 4.60009V8.56659Z"/>
</svg>