<svg height="16" width="16" viewBox="0 0 16 16"><path d="M0.25 8C0.25 3.71979 3.71979 0.25 8 0.25C12.2802 0.25 15.75 3.71979 15.75 8C15.75 12.2802 12.2802 15.75 8 15.75C3.71979 15.75 0.25 12.2802 0.25 8ZM7.25 11.4001C7.25 11.8143 7.58579 12.1501 8 12.1501C8.41421 12.1501 8.75 11.8143 8.75 11.4001V10.8668C8.75 10.4525 8.41421 10.1168 8 10.1168C7.58579 10.1168 7.25 10.4525 7.25 10.8668V11.4001ZM7.25 8.56659C7.25 8.9808 7.58579 9.31659 8 9.31659C8.41421 9.31659 8.75 8.9808 8.75 8.56659V4.60009C8.75 4.18587 8.41421 3.85009 8 3.85009C7.58579 3.85009 7.25 4.18587 7.25 4.60009V8.56659Z"/></svg>