<svg width="16" height="16" viewBox="0 0 16 16" fill="none" xmlns="http://www.w3.org/2000/svg">
<g clip-path="url(#clip0_152_25)">
<path fill-rule="evenodd" clip-rule="evenodd" d="M1.75 8C1.75 4.54822 4.54822 1.75 8 1.75C11.4518 1.75 14.25 4.54822 14.25 8C14.25 11.4518 11.4518 14.25 8 14.25C4.54822 14.25 1.75 11.4518 1.75 8ZM8 0.25C3.71979 0.25 0.25 3.71979 0.25 8C0.25 12.2802 3.71979 15.75 8 15.75C12.2802 15.75 15.75 12.2802 15.75 8C15.75 3.71979 12.2802 0.25 8 0.25ZM7.25 11.4001C7.25 11.8143 7.58579 12.1501 8 12.1501C8.41421 12.1501 8.75 11.8143 8.75 11.4001V10.8668C8.75 10.4525 8.41421 10.1168 8 10.1168C7.58579 10.1168 7.25 10.4525 7.25 10.8668V11.4001ZM7.25 8.56659C7.25 8.9808 7.58579 9.31659 8 9.31659C8.41421 9.31659 8.75 8.9808 8.75 8.56659V4.60009C8.75 4.18587 8.41421 3.85009 8 3.85009C7.58579 3.85009 7.25 4.18587 7.25 4.60009V8.56659Z" fill="#1F1E1E"/>
</g>
<defs>
<clipPath id="clip0_152_25">
<rect width="16" height="16" fill="white"/>
</clipPath>
</defs>
</svg>
