<svg width="24" height="24" xmlns="http://www.w3.org/2000/svg">
<path d="M22 12C22 17.5228 17.5228 22 12 22C6.47715 22 2 17.5228 2 12C2 6.47715 6.47715 2 12 2C17.5228 2 22 6.47715 22 12ZM11.25 17.2C11.25 17.6142 11.5858 17.95 12 17.95C12.4142 17.95 12.75 17.6142 12.75 17.2V16.4C12.75 15.9858 12.4142 15.65 12 15.65C11.5858 15.65 11.25 15.9858 11.25 16.4V17.2ZM11.25 13.5C11.25 13.9142 11.5858 14.25 12 14.25C12.4142 14.25 12.75 13.9142 12.75 13.5V7.00001C12.75 6.5858 12.4142 6.25001 12 6.25001C11.5858 6.25001 11.25 6.5858 11.25 7.00001V13.5Z"/>
</svg>