<svg height="24" width="24" viewBox="0 0 24 24"><path d="M12 2.75C6.89137 2.75 2.75 6.89137 2.75 12C2.75 17.1086 6.89137 21.25 12 21.25C17.1086 21.25 21.25 17.1086 21.25 12C21.25 6.89137 17.1086 2.75 12 2.75ZM1.25 12C1.25 6.06294 6.06294 1.25 12 1.25C17.9371 1.25 22.75 6.06294 22.75 12C22.75 17.9371 17.9371 22.75 12 22.75C6.06294 22.75 1.25 17.9371 1.25 12ZM12 6.25C12.4142 6.25 12.75 6.58579 12.75 7V7.8C12.75 8.21421 12.4142 8.55 12 8.55C11.5858 8.55 11.25 8.21421 11.25 7.8V7C11.25 6.58579 11.5858 6.25 12 6.25ZM12 9.95C12.4142 9.95 12.75 10.2858 12.75 10.7V17.2C12.75 17.6142 12.4142 17.95 12 17.95C11.5858 17.95 11.25 17.6142 11.25 17.2V10.7C11.25 10.2858 11.5858 9.95 12 9.95Z"/></svg>