<svg height="24" width="24" viewBox="0 0 24 24"><path d="M9.18539 2.875C10.4363 0.708333 13.5636 0.708334 14.8146 2.875L23.0418 17.125C24.2927 19.2917 22.7291 22 20.2272 22H3.77273C1.27088 22 -0.292776 19.2917 0.958149 17.125L9.18539 2.875ZM11.25 17.2C11.25 17.6142 11.5858 17.95 12 17.95C12.4142 17.95 12.75 17.6142 12.75 17.2V16.4C12.75 15.9858 12.4142 15.65 12 15.65C11.5858 15.65 11.25 15.9858 11.25 16.4V17.2ZM11.25 13.5C11.25 13.9142 11.5858 14.25 12 14.25C12.4142 14.25 12.75 13.9142 12.75 13.5V7.50005C12.75 7.08583 12.4142 6.75005 12 6.75005C11.5858 6.75005 11.25 7.08583 11.25 7.50005V13.5Z"/></svg>