<svg height="24" width="24" viewBox="0 0 24 24"><path d="M9.18539 2.875C10.4363 0.708333 13.5636 0.708334 14.8146 2.875L23.0418 17.125C24.2927 19.2917 22.7291 22 20.2272 22H3.77273C1.27088 22 -0.292776 19.2917 0.958149 17.125L9.18539 2.875ZM13.5155 3.625C12.8419 2.45833 11.158 2.45833 10.4844 3.625L2.25719 17.875C1.58361 19.0417 2.42558 20.5 3.77273 20.5H20.2272C21.5744 20.5 22.4163 19.0417 21.7428 17.875L13.5155 3.625ZM12 6.75005C12.4142 6.75005 12.75 7.08584 12.75 7.50005V13.5C12.75 13.9142 12.4142 14.25 12 14.25C11.5858 14.25 11.25 13.9142 11.25 13.5V7.50005C11.25 7.08584 11.5858 6.75005 12 6.75005ZM12 15.65C12.4142 15.65 12.75 15.9858 12.75 16.4V17.2C12.75 17.6142 12.4142 17.95 12 17.95C11.5858 17.95 11.25 17.6142 11.25 17.2V16.4C11.25 15.9858 11.5858 15.65 12 15.65Z"/></svg>