<svg width="24" height="24" viewBox="0 0 24 24" fill="none" xmlns="http://www.w3.org/2000/svg">
<path fill-rule="evenodd" clip-rule="evenodd" d="M9.14218 2.85001C10.4123 0.650012 13.5878 0.650013 14.8579 2.85001L23.0852 17.1C24.3554 19.3 22.7676 22.05 20.2273 22.05H3.77282C1.23248 22.05 -0.355235 19.3 0.914935 17.1L9.14218 2.85001ZM11.2 17.2C11.2 17.6418 11.5582 18 12 18C12.4419 18 12.8 17.6418 12.8 17.2V16.4C12.8 15.9582 12.4419 15.6 12 15.6C11.5582 15.6 11.2 15.9582 11.2 16.4V17.2ZM11.2 13.5C11.2 13.9418 11.5582 14.3 12 14.3C12.4419 14.3 12.8 13.9418 12.8 13.5V7.50005C12.8 7.05822 12.4419 6.70005 12 6.70005C11.5582 6.70005 11.2 7.05822 11.2 7.50005V13.5Z" fill="#1F1E1E"/>
</svg>
