<svg width="24" height="24" viewBox="0 0 24 24" fill="none" xmlns="http://www.w3.org/2000/svg">
<path fill-rule="evenodd" clip-rule="evenodd" d="M9.14218 2.85C10.4123 0.649997 13.5878 0.649997 14.8579 2.85L23.0852 17.1C24.3554 19.3 22.7676 22.05 20.2273 22.05H3.77282C1.23248 22.05 -0.355235 19.3 0.914935 17.1L9.14218 2.85ZM13.4723 3.65C12.818 2.51666 11.1821 2.51666 10.5278 3.65L2.30058 17.9C1.64625 19.0333 2.46416 20.45 3.77282 20.45H20.2273C21.536 20.45 22.3539 19.0333 21.6995 17.9L13.4723 3.65Z" fill="#C63939"/>
<path fill-rule="evenodd" clip-rule="evenodd" d="M12.0001 18C11.5582 18 11.2001 17.6418 11.2001 17.2V16.4C11.2001 15.9582 11.5582 15.6 12.0001 15.6C12.4419 15.6 12.8001 15.9582 12.8001 16.4V17.2C12.8001 17.6418 12.4419 18 12.0001 18ZM12.0001 14.3C11.5582 14.3 11.2001 13.9418 11.2001 13.5V7.50005C11.2001 7.05822 11.5582 6.70005 12.0001 6.70005C12.4419 6.70005 12.8001 7.05822 12.8001 7.50005V13.5C12.8001 13.9418 12.4419 14.3 12.0001 14.3Z" fill="#C63939"/>
</svg>
