<svg width="16" height="16" viewBox="0 0 16 16" fill="none" xmlns="http://www.w3.org/2000/svg">
<path fill-rule="evenodd" clip-rule="evenodd" d="M3.5 3C3.5 1.89543 4.39543 1 5.5 1H11.5C12.6046 1 13.5 1.89543 13.5 3V14.5097C13.5 15.1308 12.7672 15.4614 12.3015 15.0505L8.5 11.6962L4.69849 15.0505C4.23276 15.4614 3.5 15.1308 3.5 14.5097V3ZM5.5 2C4.94772 2 4.5 2.44772 4.5 3V13.892L8.02279 10.7837C8.29545 10.5431 8.70455 10.5431 8.97721 10.7837L12.5 13.892V3C12.5 2.44772 12.0523 2 11.5 2H5.5Z" fill="#1F1E1E"/>
</svg>
