<svg width="24" height="24" viewBox="0 0 24 24" fill="none" xmlns="http://www.w3.org/2000/svg">
<path d="M11.3125 10.9062C11.3125 10.354 10.8648 9.90625 10.3125 9.90625C9.76022 9.90625 9.3125 10.354 9.3125 10.9062V11.4688C9.3125 12.021 9.76022 12.4688 10.3125 12.4688C10.8648 12.4688 11.3125 12.021 11.3125 11.4688V10.9062Z" fill="#1F1E1E"/>
<path d="M7.9375 14.2812C7.9375 13.729 7.48978 13.2812 6.9375 13.2812C6.38522 13.2812 5.9375 13.729 5.9375 14.2812V14.8438C5.9375 15.396 6.38522 15.8438 6.9375 15.8438C7.48978 15.8438 7.9375 15.396 7.9375 14.8438V14.2812Z" fill="#1F1E1E"/>
<path d="M11.3125 14.2812C11.3125 13.729 10.8648 13.2812 10.3125 13.2812C9.76022 13.2812 9.3125 13.729 9.3125 14.2812V14.8438C9.3125 15.396 9.76022 15.8438 10.3125 15.8438C10.8648 15.8438 11.3125 15.396 11.3125 14.8438V14.2812Z" fill="#1F1E1E"/>
<path d="M14.6875 14.2812C14.6875 13.729 14.2398 13.2812 13.6875 13.2812C13.1352 13.2812 12.6875 13.729 12.6875 14.2812V14.8438C12.6875 15.396 13.1352 15.8438 13.6875 15.8438C14.2398 15.8438 14.6875 15.396 14.6875 14.8438V14.2812Z" fill="#1F1E1E"/>
<path d="M18.0625 14.2812C18.0625 13.729 17.6148 13.2812 17.0625 13.2812C16.5102 13.2812 16.0625 13.729 16.0625 14.2812V14.8438C16.0625 15.396 16.5102 15.8438 17.0625 15.8438C17.6148 15.8438 18.0625 15.396 18.0625 14.8438V14.2812Z" fill="#1F1E1E"/>
<path d="M14.6875 17.6562C14.6875 17.104 14.2398 16.6562 13.6875 16.6562C13.1352 16.6562 12.6875 17.104 12.6875 17.6562V18.2188C12.6875 18.771 13.1352 19.2188 13.6875 19.2188C14.2398 19.2188 14.6875 18.771 14.6875 18.2188V17.6562Z" fill="#1F1E1E"/>
<path d="M11.3125 17.6562C11.3125 17.104 10.8648 16.6562 10.3125 16.6562C9.76022 16.6562 9.3125 17.104 9.3125 17.6562V18.2188C9.3125 18.771 9.76022 19.2188 10.3125 19.2188C10.8648 19.2188 11.3125 18.771 11.3125 18.2188V17.6562Z" fill="#1F1E1E"/>
<path d="M7.9375 17.6562C7.9375 17.104 7.48978 16.6562 6.9375 16.6562C6.38522 16.6562 5.9375 17.104 5.9375 17.6562V18.2188C5.9375 18.771 6.38522 19.2188 6.9375 19.2188C7.48978 19.2188 7.9375 18.771 7.9375 18.2188V17.6562Z" fill="#1F1E1E"/>
<path d="M14.6875 10.9062C14.6875 10.354 14.2398 9.90625 13.6875 9.90625C13.1352 9.90625 12.6875 10.354 12.6875 10.9062V11.4688C12.6875 12.021 13.1352 12.4688 13.6875 12.4688C14.2398 12.4688 14.6875 12.021 14.6875 11.4688V10.9062Z" fill="#1F1E1E"/>
<path d="M18.0625 10.9062C18.0625 10.354 17.6148 9.90625 17.0625 9.90625C16.5102 9.90625 16.0625 10.354 16.0625 10.9062V11.4688C16.0625 12.021 16.5102 12.4688 17.0625 12.4688C17.6148 12.4688 18.0625 12.021 18.0625 11.4688V10.9062Z" fill="#1F1E1E"/>
<path fill-rule="evenodd" clip-rule="evenodd" d="M7.5 1.71875C7.91421 1.71875 8.25 2.05454 8.25 2.46875V3.25H15.75V2.46875C15.75 2.05454 16.0858 1.71875 16.5 1.71875C16.9142 1.71875 17.25 2.05454 17.25 2.46875V3.25H19.3125C20.6587 3.25 21.75 4.34131 21.75 5.6875V19.1125C21.75 20.4587 20.6587 21.55 19.3125 21.55H4.6875C3.34131 21.55 2.25 20.4587 2.25 19.1125V5.6875C2.25 4.34131 3.34131 3.25 4.6875 3.25H6.75V2.46875C6.75 2.05454 7.08579 1.71875 7.5 1.71875ZM6.75 4.75H4.6875C4.16973 4.75 3.75 5.16973 3.75 5.6875V7.25H20.25V5.6875C20.25 5.16973 19.8303 4.75 19.3125 4.75H17.25V5.84375C17.25 6.25796 16.9142 6.59375 16.5 6.59375C16.0858 6.59375 15.75 6.25796 15.75 5.84375V4.75H8.25V5.84375C8.25 6.25796 7.91421 6.59375 7.5 6.59375C7.08579 6.59375 6.75 6.25796 6.75 5.84375V4.75ZM20.25 8.75H3.75V19.1125C3.75 19.6303 4.16973 20.05 4.6875 20.05H19.3125C19.8303 20.05 20.25 19.6303 20.25 19.1125V8.75Z" fill="#1F1E1E"/>
</svg>
