<svg width="16" height="16" viewBox="0 0 16 16" fill="none" xmlns="http://www.w3.org/2000/svg">
<path d="M6.90908 7.65C7.32329 7.65 7.65908 7.98579 7.65908 8.4V8.76364C7.65908 9.17785 7.32329 9.51364 6.90908 9.51364C6.49487 9.51364 6.15908 9.17785 6.15908 8.76364V8.4C6.15908 7.98579 6.49487 7.65 6.90908 7.65Z" fill="#1F1E1E"/>
<path d="M9.8409 8.4C9.8409 7.98579 9.50512 7.65 9.0909 7.65C8.67669 7.65 8.3409 7.98579 8.3409 8.4V8.76364C8.3409 9.17785 8.67669 9.51364 9.0909 9.51364C9.50512 9.51364 9.8409 9.17785 9.8409 8.76364V8.4Z" fill="#1F1E1E"/>
<path d="M11.2727 7.65C11.6869 7.65 12.0227 7.98579 12.0227 8.4V8.76364C12.0227 9.17785 11.6869 9.51364 11.2727 9.51364C10.8585 9.51364 10.5227 9.17785 10.5227 8.76364V8.4C10.5227 7.98579 10.8585 7.65 11.2727 7.65Z" fill="#1F1E1E"/>
<path d="M9.8409 10.8C9.8409 10.3858 9.50512 10.05 9.0909 10.05C8.67669 10.05 8.3409 10.3858 8.3409 10.8V11.1636C8.3409 11.5779 8.67669 11.9136 9.0909 11.9136C9.50512 11.9136 9.8409 11.5779 9.8409 11.1636V10.8Z" fill="#1F1E1E"/>
<path d="M6.90908 10.05C7.32329 10.05 7.65908 10.3858 7.65908 10.8V11.1636C7.65908 11.5779 7.32329 11.9136 6.90908 11.9136C6.49487 11.9136 6.15908 11.5779 6.15908 11.1636V10.8C6.15908 10.3858 6.49487 10.05 6.90908 10.05Z" fill="#1F1E1E"/>
<path d="M5.47727 10.8C5.47727 10.3858 5.14149 10.05 4.72727 10.05C4.31306 10.05 3.97727 10.3858 3.97727 10.8V11.1636C3.97727 11.5779 4.31306 11.9136 4.72727 11.9136C5.14149 11.9136 5.47727 11.5779 5.47727 11.1636V10.8Z" fill="#1F1E1E"/>
<path fill-rule="evenodd" clip-rule="evenodd" d="M10.8 1.5C11.0761 1.5 11.3 1.72386 11.3 2V2.5H12.9091C13.7877 2.5 14.5 3.21227 14.5 4.09091V12.9091C14.5 13.7877 13.7877 14.5 12.9091 14.5H3.09091C2.21227 14.5 1.5 13.7877 1.5 12.9091V4.09091C1.5 3.21227 2.21227 2.5 3.09091 2.5H4.69999V2C4.69999 1.72386 4.92385 1.5 5.19999 1.5C5.47613 1.5 5.69999 1.72386 5.69999 2V2.5H10.3V2C10.3 1.72386 10.5239 1.5 10.8 1.5ZM10.3 3.5H5.69999V3.75C5.69999 4.02614 5.47613 4.25 5.19999 4.25C4.92385 4.25 4.69999 4.02614 4.69999 3.75V3.5H3.09091C2.76456 3.5 2.5 3.76456 2.5 4.09091V5.3H13.5V4.09091C13.5 3.76456 13.2354 3.5 12.9091 3.5H11.3V3.75C11.3 4.02614 11.0761 4.25 10.8 4.25C10.5239 4.25 10.3 4.02614 10.3 3.75V3.5ZM13.5 6.3H2.5V12.9091C2.5 13.2354 2.76456 13.5 3.09091 13.5H12.9091C13.2354 13.5 13.5 13.2354 13.5 12.9091V6.3Z" fill="#1F1E1E"/>
</svg>
