<svg width="24" height="24" viewBox="0 0 24 24" fill="none" xmlns="http://www.w3.org/2000/svg">
<path fill-rule="evenodd" clip-rule="evenodd" d="M3.81762 6.71907C3.81762 6.30485 4.1534 5.96907 4.56762 5.96907H13.3057C13.7199 5.96907 14.0557 6.30485 14.0557 6.71907C14.0557 7.13328 13.7199 7.46907 13.3057 7.46907H4.56762C4.1534 7.46907 3.81762 7.13328 3.81762 6.71907Z" fill="black"/>
<path fill-rule="evenodd" clip-rule="evenodd" d="M3.81762 9.34053C3.81762 8.92632 4.1534 8.59053 4.56762 8.59053H8.06284C8.47705 8.59053 8.81284 8.92632 8.81284 9.34053C8.81284 9.75475 8.47705 10.0905 8.06284 10.0905H4.56762C4.1534 10.0905 3.81762 9.75475 3.81762 9.34053Z" fill="black"/>
<path fill-rule="evenodd" clip-rule="evenodd" d="M0.75 4.76049C0.75 3.37398 1.87399 2.25 3.26049 2.25H15.2395C16.626 2.25 17.75 3.37398 17.75 4.76049V11.5677C17.75 12.9542 16.626 14.0782 15.2395 14.0782H8.88105L6.17741 17.1205C5.57588 17.7974 4.4566 17.372 4.4566 16.4664V14.0782H3.26049C1.87399 14.0782 0.75 12.9542 0.75 11.5677V4.76049ZM3.26049 3.75C2.70241 3.75 2.25 4.20241 2.25 4.76049V11.5677C2.25 12.1258 2.70241 12.5782 3.26049 12.5782H4.61977C5.35808 12.5782 5.9566 13.1767 5.9566 13.915V15.1109L7.80849 13.027C8.06218 12.7415 8.42585 12.5782 8.80776 12.5782H15.2395C15.7976 12.5782 16.25 12.1258 16.25 11.5677V4.76049C16.25 4.20241 15.7976 3.75 15.2395 3.75H3.26049Z" fill="black"/>
<path fill-rule="evenodd" clip-rule="evenodd" d="M20.466 8.7501C21.0243 8.7501 21.477 9.20275 21.477 9.76059V15.7443C21.477 16.3024 21.0245 16.7548 20.4665 16.7548H19.7555C19.0172 16.7548 18.4186 17.3533 18.4186 18.0916V19.0039L16.8501 17.2113C16.5962 16.9212 16.2295 16.7548 15.844 16.7548H12.0171C11.4622 16.7548 11.0124 16.305 11.0124 15.7501H9.51242C9.51242 17.1334 10.6338 18.2548 12.0171 18.2548H15.77L18.1928 21.0237C18.7916 21.708 19.9186 21.2845 19.9186 20.3753V18.2548H20.4665C21.853 18.2548 22.977 17.1308 22.977 15.7443V9.76059C22.977 8.37385 21.8523 7.2501 20.466 7.2501H19.25V8.7501H20.466Z" fill="black"/>
</svg>
