<svg width="16" height="16" viewBox="0 0 16 16" fill="none" xmlns="http://www.w3.org/2000/svg">
<path fill-rule="evenodd" clip-rule="evenodd" d="M2.5 4.00004C2.5 3.7239 2.72386 3.50004 3 3.50004H9C9.27614 3.50004 9.5 3.7239 9.5 4.00004C9.5 4.27618 9.27614 4.50004 9 4.50004H3C2.72386 4.50004 2.5 4.27618 2.5 4.00004Z" fill="#1F1E1E"/>
<path fill-rule="evenodd" clip-rule="evenodd" d="M2.5 6.00004C2.5 5.7239 2.72386 5.50004 3 5.50004H5.5C5.77614 5.50004 6 5.7239 6 6.00004C6 6.27618 5.77614 6.50004 5.5 6.50004H3C2.72386 6.50004 2.5 6.27618 2.5 6.00004Z" fill="#1F1E1E"/>
<path fill-rule="evenodd" clip-rule="evenodd" d="M0.5 2.61727C0.5 1.66893 1.26879 0.900146 2.21713 0.900146H10.3313C11.2797 0.900146 12.0484 1.66893 12.0484 2.61727V7.47014C12.0484 8.41848 11.2797 9.18726 10.3313 9.18726H5.83952L3.96481 11.2968C3.56025 11.7521 2.80747 11.4659 2.80747 10.8569V9.18726H2.21713C1.26878 9.18726 0.5 8.41848 0.5 7.47014V2.61727ZM2.21713 1.90015C1.82107 1.90015 1.5 2.22122 1.5 2.61727V7.47014C1.5 7.86619 1.82107 8.18726 2.21713 8.18726H2.90176C3.40197 8.18726 3.80747 8.59276 3.80747 9.09297V9.96846L5.12016 8.49133C5.29203 8.29793 5.53842 8.18726 5.79717 8.18726H10.3313C10.7274 8.18726 11.0484 7.8662 11.0484 7.47014V2.61727C11.0484 2.22122 10.7274 1.90015 10.3313 1.90015H2.21713Z" fill="#1F1E1E"/>
<path fill-rule="evenodd" clip-rule="evenodd" d="M13.7828 5.5C14.1789 5.5 14.5 5.82113 14.5 6.21713V10.5324C14.5 10.9285 14.1789 11.2495 13.7829 11.2495H13.3316C12.8314 11.2495 12.4259 11.655 12.4259 12.1553V12.8573L11.3576 11.5754C11.1855 11.3689 10.9306 11.2495 10.6618 11.2495H7.92083C7.52477 11.2495 7.2037 10.9285 7.2037 10.5324V10H6.2037V10.5324C6.2037 11.4808 6.97249 12.2495 7.92083 12.2495H10.6177L12.2549 14.214C12.6514 14.6898 13.4259 14.4094 13.4259 13.79V12.2495H13.7829C14.7312 12.2495 15.5 11.4808 15.5 10.5324V6.21713C15.5 5.26873 14.7311 4.5 13.7828 4.5H12.9V5.5H13.7828Z" fill="#1F1E1E"/>
</svg>
