<svg width="24" height="24" viewBox="0 0 24 24" fill="none" xmlns="http://www.w3.org/2000/svg">
<path fill-rule="evenodd" clip-rule="evenodd" d="M12 1.20001C6.03528 1.20001 1.19995 6.03534 1.19995 12C1.19995 17.9647 6.03528 22.8 12 22.8C17.9646 22.8 22.7999 17.9647 22.7999 12C22.7999 6.03534 17.9646 1.20001 12 1.20001ZM17.7447 8.69975C18.0208 8.35474 17.9648 7.85131 17.6198 7.5753C17.2748 7.29929 16.7714 7.35523 16.4954 7.70024L10.4549 15.2508L7.14063 12.2128C6.81494 11.9142 6.30888 11.9362 6.01033 12.2619C5.71178 12.5876 5.73378 13.0937 6.05947 13.3922L10.0045 17.0085C10.1678 17.1581 10.3858 17.2334 10.6066 17.2164C10.8275 17.1993 11.0314 17.0915 11.1697 16.9185L17.7447 8.69975Z" fill="#91520C"/>
</svg>
