<svg width="24" height="24" viewBox="0 0 24 24" fill="none" xmlns="http://www.w3.org/2000/svg">
<path fill-rule="evenodd" clip-rule="evenodd" d="M1 12C1 5.92487 5.92487 1 12 1C18.0751 1 23 5.92487 23 12C23 18.0751 18.0751 23 12 23C5.92487 23 1 18.0751 1 12ZM7.21967 16.7803C7.51256 17.0732 7.98744 17.0732 8.28033 16.7803L12 13.0607L15.7197 16.7803C16.0126 17.0732 16.4874 17.0732 16.7803 16.7803C17.0732 16.4874 17.0732 16.0126 16.7803 15.7197L13.0607 12L16.7803 8.28039C17.0732 7.9875 17.0732 7.51262 16.7803 7.21973C16.4874 6.92684 16.0125 6.92684 15.7196 7.21973L12 10.9393L8.28039 7.21973C7.9875 6.92684 7.51262 6.92684 7.21973 7.21973C6.92684 7.51262 6.92684 7.9875 7.21973 8.28039L10.9393 12L7.21967 15.7197C6.92678 16.0126 6.92678 16.4874 7.21967 16.7803Z" fill="#1F1E1E"/>
</svg>
