<svg width="16" height="16" viewBox="0 0 16 16" fill="none" xmlns="http://www.w3.org/2000/svg">
<path fill-rule="evenodd" clip-rule="evenodd" d="M1.5 3.5C1.5 1.84315 2.84313 0.5 4.49998 0.5C6.15683 0.5 7.49997 1.84315 7.49997 3.5C7.49997 4.14799 7.29452 4.748 6.94522 5.23845L8.90188 7.19512L13.9869 2.11007C14.1822 1.91481 14.4987 1.91481 14.694 2.11007C14.8893 2.30533 14.8893 2.62192 14.694 2.81718L6.88686 10.6244C6.87839 10.6328 6.8697 10.6409 6.8608 10.6487C7.26119 11.1586 7.49997 11.8014 7.49997 12.5C7.49997 14.1568 6.15683 15.5 4.49999 15.5C2.84314 15.5 1.5 14.1568 1.5 12.5C1.5 10.8431 2.84314 9.49997 4.49999 9.49997C5.09974 9.49997 5.65839 9.67597 6.12711 9.97914C6.14271 9.95747 6.16026 9.93676 6.17975 9.91727L8.19478 7.90223L6.23806 5.9455C5.74769 6.29466 5.14782 6.5 4.49998 6.5C2.84313 6.5 1.5 5.15685 1.5 3.5ZM4.49998 1.5C3.39543 1.5 2.5 2.39543 2.5 3.5C2.5 4.60457 3.39543 5.5 4.49998 5.5C5.60454 5.5 6.49997 4.60457 6.49997 3.5C6.49997 2.39543 5.60454 1.5 4.49998 1.5ZM4.49999 10.5C3.39543 10.5 2.5 11.3954 2.5 12.5C2.5 13.6045 3.39543 14.5 4.49999 14.5C5.60454 14.5 6.49997 13.6045 6.49997 12.5C6.49997 11.3954 5.60454 10.5 4.49999 10.5Z" fill="#1F1E1E"/>
<path d="M14.6868 12.98L11 9.29298L10.2929 10.0001L13.9797 13.687C14.175 13.8823 14.4915 13.8823 14.6868 13.6871C14.8821 13.4918 14.8821 13.1752 14.6868 12.98Z" fill="#1F1E1E"/>
</svg>
