<svg width="16" height="16" viewBox="0 0 16 16" fill="none" xmlns="http://www.w3.org/2000/svg">
<path d="M3.03033 14.0302C2.73744 14.3231 2.26256 14.3231 1.96967 14.0302C1.67678 13.7373 1.67678 13.2624 1.96967 12.9695L6.9393 7.99988L1.96975 3.03032C1.67685 2.73743 1.67685 2.26255 1.96975 1.96966C2.26264 1.67677 2.73751 1.67677 3.03041 1.96966L7.99996 6.93922L12.9696 1.96955C13.2625 1.67665 13.7374 1.67665 14.0303 1.96955C14.3232 2.26244 14.3232 2.73731 14.0303 3.03021L9.06062 7.99988L14.0304 12.9696C14.3233 13.2625 14.3233 13.7374 14.0304 14.0303C13.7375 14.3232 13.2626 14.3232 12.9697 14.0303L7.99996 9.06054L3.03033 14.0302Z" fill="black"/>
</svg>
