<svg width="24" height="24" viewBox="0 0 24 24" fill="none" xmlns="http://www.w3.org/2000/svg">
<path fill-rule="evenodd" clip-rule="evenodd" d="M5.0125 8.20417C5.0125 7.78995 5.34829 7.45417 5.7625 7.45417H18.3042C18.7184 7.45417 19.0542 7.78995 19.0542 8.20417C19.0542 8.61838 18.7184 8.95417 18.3042 8.95417H5.7625C5.34829 8.95417 5.0125 8.61838 5.0125 8.20417Z" fill="#1F1E1E"/>
<path fill-rule="evenodd" clip-rule="evenodd" d="M5.0125 11.9667C5.0125 11.5525 5.34829 11.2167 5.7625 11.2167H10.7792C11.1934 11.2167 11.5292 11.5525 11.5292 11.9667C11.5292 12.3809 11.1934 12.7167 10.7792 12.7167H5.7625C5.34829 12.7167 5.0125 12.3809 5.0125 11.9667Z" fill="#1F1E1E"/>
<path fill-rule="evenodd" clip-rule="evenodd" d="M1.25 5C1.25 3.48122 2.48122 2.25 4 2.25H20C21.5188 2.25 22.75 3.48122 22.75 5V15C22.75 16.5188 21.5188 17.75 20 17.75H11.139L7.40217 21.9965C6.79259 22.6892 5.65 22.258 5.65 21.3353V17.75H4C2.48122 17.75 1.25 16.5188 1.25 15V5ZM4 3.75C3.30964 3.75 2.75 4.30964 2.75 5V15C2.75 15.6904 3.30964 16.25 4 16.25H5.77292C6.53346 16.25 7.15 16.8665 7.15 17.6271V20.0124L10.0497 16.7173C10.3111 16.4203 10.6877 16.25 11.0835 16.25H20C20.6904 16.25 21.25 15.6904 21.25 15V5C21.25 4.30964 20.6904 3.75 20 3.75H4Z" fill="#1F1E1E"/>
</svg>
