<svg width="16" height="16" viewBox="0 0 16 16" fill="none" xmlns="http://www.w3.org/2000/svg">
<g clip-path="url(#clip0_509_176)">
<path fill-rule="evenodd" clip-rule="evenodd" d="M10.9988 4.6263C10.7925 4.44284 10.4764 4.46143 10.293 4.66782L4.95963 10.6678C4.77617 10.8742 4.79476 11.1902 5.00115 11.3737C5.20754 11.5572 5.52358 11.5386 5.70704 11.3322L11.0404 5.33218C11.2238 5.12579 11.2052 4.80975 10.9988 4.6263Z" fill="black"/>
<path d="M6 6.5C5.44772 6.5 5 6.05228 5 5.5C5 4.94772 5.44772 4.5 6 4.5C6.55229 4.5 7 4.94772 7 5.5C7 6.05228 6.55229 6.5 6 6.5Z" fill="black"/>
<path d="M10 11.5C9.44771 11.5 9 11.0523 9 10.5C9 9.94772 9.44771 9.5 10 9.5C10.5523 9.5 11 9.94772 11 10.5C11 11.0523 10.5523 11.5 10 11.5Z" fill="black"/>
<path fill-rule="evenodd" clip-rule="evenodd" d="M8 1.5C4.41015 1.5 1.5 4.41015 1.5 8C1.5 11.5899 4.41015 14.5 8 14.5C11.5898 14.5 14.5 11.5899 14.5 8C14.5 4.41015 11.5898 1.5 8 1.5ZM0.5 8C0.5 3.85786 3.85786 0.5 8 0.5C12.1421 0.5 15.5 3.85786 15.5 8C15.5 12.1421 12.1421 15.5 8 15.5C3.85786 15.5 0.5 12.1421 0.5 8Z" fill="black"/>
</g>
<defs>
<clipPath id="clip0_509_176">
<rect width="16" height="16" fill="white"/>
</clipPath>
</defs>
</svg>
