<svg width="24" height="24" viewBox="0 0 24 24" fill="none" xmlns="http://www.w3.org/2000/svg">
<path fill-rule="evenodd" clip-rule="evenodd" d="M2.75 12C2.75 6.89137 6.89137 2.75 12 2.75C17.1086 2.75 21.25 6.89137 21.25 12C21.25 17.1086 17.1086 21.25 12 21.25C6.89137 21.25 2.75 17.1086 2.75 12ZM12 1.25C6.06294 1.25 1.25 6.06294 1.25 12C1.25 17.9371 6.06294 22.75 12 22.75C17.9371 22.75 22.75 17.9371 22.75 12C22.75 6.06294 17.9371 1.25 12 1.25ZM11.25 17.2C11.25 17.6142 11.5858 17.95 12 17.95C12.4142 17.95 12.75 17.6142 12.75 17.2V16.4C12.75 15.9858 12.4142 15.65 12 15.65C11.5858 15.65 11.25 15.9858 11.25 16.4V17.2ZM11.25 13.5C11.25 13.9142 11.5858 14.25 12 14.25C12.4142 14.25 12.75 13.9142 12.75 13.5V7.00001C12.75 6.5858 12.4142 6.25001 12 6.25001C11.5858 6.25001 11.25 6.5858 11.25 7.00001V13.5Z" fill="black"/>
</svg>
