<svg width="16" height="16" viewBox="0 0 16 16" fill="none" xmlns="http://www.w3.org/2000/svg">
<path fill-rule="evenodd" clip-rule="evenodd" d="M2.15034 4.60834C1.82396 5.56708 1.98062 6.87565 3.07057 8.13769C4.01468 9.23087 6.0541 11.5525 7.30661 12.9763C7.66489 13.3836 8.29638 13.3829 8.65342 12.9751C9.9172 11.5315 11.9753 9.1752 12.8514 8.14127C12.8564 8.13535 12.8616 8.12954 12.8668 8.12386C15.1983 5.61873 13.3985 3 11.68 3C10.7836 3 10.2834 3.16748 9.86222 3.44318C9.51692 3.66919 9.22057 3.96455 8.81223 4.37154C8.6677 4.51559 8.50914 4.67362 8.32941 4.84751C8.13557 5.03505 7.82791 5.03505 7.63407 4.8475C7.45004 4.66945 7.2654 4.48265 7.09991 4.31522C6.98607 4.20004 6.88128 4.09403 6.79199 4.00634C6.54946 3.76816 6.34343 3.58478 6.12757 3.44072C5.72075 3.16921 5.224 3 4.28345 3C3.29958 3 2.4798 3.64054 2.15034 4.60834ZM1.20369 4.28607C1.65455 2.96165 2.82229 2 4.28345 2C5.36298 2 6.06871 2.1992 6.68268 2.60894C6.97722 2.8055 7.23616 3.04095 7.49268 3.29287C7.61342 3.41144 7.72315 3.52276 7.83586 3.6371C7.88381 3.68574 7.9323 3.73494 7.98241 3.78547C8.00371 3.76422 8.02492 3.74305 8.04603 3.72197C8.47944 3.28936 8.87595 2.89357 9.31456 2.60648C9.93415 2.20093 10.6365 2 11.68 2C14.4425 2 16.4011 5.78275 13.6069 8.79645C12.7203 9.84243 10.6639 12.1968 9.40582 13.6338C8.65074 14.4962 7.31263 14.4972 6.55578 13.6368C5.30437 12.2143 3.26151 9.88872 2.31374 8.79131C1.01994 7.29323 0.749739 5.61955 1.20369 4.28607Z" fill="black"/>
</svg>
