<svg width="16" height="16" viewBox="0 0 16 16" fill="none" xmlns="http://www.w3.org/2000/svg">
<path d="M4.28345 2C2.82229 2 1.65455 2.96165 1.20369 4.28607C0.749739 5.61955 1.01994 7.29323 2.31374 8.79131C3.26151 9.88872 5.30437 12.2143 6.55578 13.6368C7.31263 14.4972 8.65074 14.4962 9.40582 13.6338C10.6639 12.1968 12.7203 9.84243 13.6069 8.79645C16.4011 5.78275 14.4425 2 11.68 2C10.6365 2 9.93415 2.20093 9.31456 2.60648C8.87595 2.89356 8.47944 3.28935 8.04604 3.72197L7.98241 3.78547C7.93237 3.73501 7.88394 3.68588 7.83606 3.6373C7.72335 3.52296 7.61342 3.41144 7.49268 3.29287C7.23616 3.04095 6.97722 2.8055 6.68268 2.60894C6.06871 2.1992 5.36298 2 4.28345 2Z" fill="black"/>
</svg>
