<svg width="16" height="16" viewBox="0 0 16 16" fill="none" xmlns="http://www.w3.org/2000/svg">
<path fill-rule="evenodd" clip-rule="evenodd" d="M4.0293 5.24916C4.01961 5.24972 4.00984 5.25 4 5.25L1.5 5.25C1.22386 5.25 1 5.02614 1 4.75C1 4.47386 1.22386 4.25 1.5 4.25L4 4.25C4.02769 4.25 4.05485 4.25225 4.08132 4.25658C4.35345 3.24477 5.27725 2.5 6.375 2.5C7.47037 2.5 8.39255 3.24154 8.66691 4.25L14.5 4.25C14.7761 4.25 15 4.47386 15 4.75C15 5.02614 14.7761 5.25 14.5 5.25L8.72056 5.25C8.54077 6.3835 7.55907 7.25 6.375 7.25C5.19063 7.25 4.20874 6.38306 4.0293 5.24916ZM5 4.875C5 4.11561 5.61561 3.5 6.375 3.5C7.13439 3.5 7.75 4.11561 7.75 4.875C7.75 5.63439 7.13439 6.25 6.375 6.25C5.61561 6.25 5 5.63439 5 4.875Z" fill="black"/>
<path fill-rule="evenodd" clip-rule="evenodd" d="M7.52929 11.7491C7.5196 11.7497 7.50983 11.7499 7.5 11.7499H1.5C1.22386 11.7499 1 11.5261 1 11.2499C1 10.9738 1.22386 10.7499 1.5 10.7499H7.5C7.52769 10.7499 7.55486 10.7522 7.58133 10.7565C7.85348 9.74474 8.77727 9 9.875 9C10.9764 9 11.9027 9.74971 12.1714 10.7666C12.2124 10.7557 12.2555 10.7499 12.3 10.7499L14.5 10.7499C14.7762 10.7499 15 10.9738 15 11.2499C15 11.5261 14.7762 11.7499 14.5 11.7499L12.3 11.7499C12.2733 11.7499 12.2471 11.7478 12.2215 11.7438C12.0443 12.8803 11.0612 13.75 9.875 13.75C8.69061 13.75 7.70871 12.883 7.52929 11.7491ZM8.5 11.375C8.5 10.6156 9.11561 10 9.875 10C10.6344 10 11.25 10.6156 11.25 11.375C11.25 12.1344 10.6344 12.75 9.875 12.75C9.11561 12.75 8.5 12.1344 8.5 11.375Z" fill="black"/>
</svg>
