<svg width="24" height="24" viewBox="0 0 24 24" fill="none" xmlns="http://www.w3.org/2000/svg">
<path fill-rule="evenodd" clip-rule="evenodd" d="M6.7526 12.1213L6.75679 12.1232L6.767 12.1278L6.80288 12.1435C6.83352 12.1568 6.87742 12.1755 6.93336 12.1985C7.04519 12.2445 7.20551 12.3078 7.40451 12.3793C7.80151 12.522 8.3576 12.6993 8.99323 12.8365C10.2334 13.1043 11.9115 13.2501 13.2792 12.5311C15.0336 11.6087 16.6028 11.7894 17.7496 12.2011C18.3273 12.4086 18.7962 12.6749 19.1197 12.889C19.281 12.9957 19.4046 13.0885 19.486 13.1528C19.5266 13.1849 19.5566 13.2099 19.5753 13.2258L19.5948 13.2426L19.5973 13.2448L19.5981 13.2455C19.7739 13.4041 20.0265 13.4445 20.2431 13.3485C20.4601 13.2524 20.6 13.0373 20.6 12.8V3.40018C20.6 3.19278 20.4929 3.00009 20.3167 2.8906L20.3152 2.88962L20.3134 2.88851L20.3091 2.88592L20.298 2.87929C20.2894 2.87423 20.2785 2.86795 20.2653 2.86058C20.2389 2.84583 20.2031 2.82673 20.158 2.80446C20.0678 2.7599 19.9402 2.70265 19.775 2.64205C19.4444 2.52076 18.9647 2.3866 18.3346 2.31372C17.0711 2.16759 15.2251 2.27034 12.7884 3.18852C11.6289 3.62547 10.277 3.47051 9.15629 3.16625C8.60534 3.01668 8.13179 2.83694 7.79648 2.69469C7.62924 2.62374 7.49747 2.56257 7.40888 2.51986C7.36461 2.49852 7.33121 2.48183 7.30963 2.47088L7.28629 2.45891L7.28094 2.45611C7.09507 2.35762 6.87118 2.36364 6.69087 2.47203C6.51039 2.58052 6.39999 2.77569 6.39999 2.98627V11.5747C6.39999 11.8101 6.53832 12.024 6.7526 12.1213ZM20.0004 3.39953L20.3167 2.8906C20.3167 2.8906 20.3135 2.89584 20.0004 3.39953ZM6.99999 11.5747L6.7526 12.1213C6.7526 12.1213 6.75187 12.121 6.99999 11.5747ZM7.00006 2.98615C7.28148 2.4564 7.28094 2.45611 7.28094 2.45611L7.00006 2.98615Z" fill="#1F1E1E"/>
<path fill-rule="evenodd" clip-rule="evenodd" d="M4.5 1.25C4.91421 1.25 5.25 1.58579 5.25 2V23.0021C5.25 23.4163 4.91421 23.7521 4.5 23.7521C4.08579 23.7521 3.75 23.4163 3.75 23.0021V2C3.75 1.58579 4.08579 1.25 4.5 1.25Z" fill="#1F1E1E"/>
</svg>
