<svg width="16" height="16" viewBox="0 0 16 16" fill="none" xmlns="http://www.w3.org/2000/svg">
<path fill-rule="evenodd" clip-rule="evenodd" d="M3.5 1C3.5 0.723858 3.27614 0.5 3 0.5C2.72386 0.5 2.5 0.723858 2.5 1V15.0014C2.5 15.2775 2.72386 15.5014 3 15.5014C3.27614 15.5014 3.5 15.2775 3.5 15.0014V8.76168C3.75448 8.85098 4.06678 8.94164 4.42433 9.00845C5.42701 9.1958 6.79724 9.19676 8.23253 8.44275C9.38722 7.83615 10.6164 7.93572 11.5973 8.21418C12.0843 8.35245 12.4967 8.53137 12.7869 8.67571C12.9315 8.74766 13.0446 8.81044 13.1201 8.8543C13.1579 8.87622 13.1861 8.89336 13.2042 8.9045L13.2234 8.91654L13.2266 8.91862C13.3802 9.01856 13.5769 9.02691 13.738 8.93966C13.8994 8.85228 14 8.68349 14 8.49996V2.19988C14 2.00038 13.8814 1.81998 13.6983 1.74087L13.5 2.19988C13.6983 1.74087 13.6985 1.74097 13.6983 1.74087L13.6973 1.74046L13.6961 1.73996L13.6932 1.7387L13.6847 1.73513L13.6575 1.72415C13.635 1.71521 13.6035 1.70316 13.5636 1.68881C13.4837 1.66011 13.3697 1.62214 13.2243 1.58133C12.9336 1.49974 12.5168 1.40654 11.9967 1.3536C10.9829 1.25042 9.57804 1.30057 7.95688 1.88592L3.5 1.63348V1ZM3.5 1.74705V1.63536L7.9544 1.88682C7.91102 1.90249 7.86749 1.91855 7.82381 1.935C6.33522 2.4955 5.19689 2.39374 4.44523 2.17227C4.06579 2.06048 3.77847 1.91617 3.58975 1.80307C3.55677 1.7833 3.52684 1.76451 3.5 1.74705ZM3.5 2.8839V7.68823C3.53111 7.70184 3.56491 7.71617 3.60127 7.73101C3.84016 7.82852 4.18642 7.94669 4.608 8.02546C5.44943 8.18268 6.57919 8.18172 7.76747 7.55748C9.23635 6.78582 10.7572 6.93617 11.8704 7.2522C12.3101 7.37702 12.6947 7.52988 13 7.66954V2.55726L12.954 2.54411C12.7118 2.47612 12.3517 2.3949 11.8955 2.34847C10.9843 2.25574 9.68842 2.30145 8.17619 2.87085C6.47521 3.51133 5.11354 3.41169 4.1626 3.1315C3.91086 3.05733 3.68964 2.97105 3.5 2.8839ZM7.9544 1.88682L13.5 2.19988L7.95688 1.88592C7.95605 1.88622 7.95522 1.88652 7.9544 1.88682Z" fill="black"/>
</svg>
