<svg width="24" height="24" viewBox="0 0 24 24" fill="none" xmlns="http://www.w3.org/2000/svg">
<path fill-rule="evenodd" clip-rule="evenodd" d="M12.4065 0.275995C12.7335 0.364499 12.9605 0.661198 12.9605 0.999945V8.24994H18.5156C19.5306 8.24994 20.1642 9.34957 19.6552 10.2277L12.2922 22.9316C12.1221 23.2251 11.7761 23.3679 11.4486 23.2798C11.121 23.1917 10.8933 22.8947 10.8933 22.5555V14.9499H5.48829C4.4713 14.9499 3.83791 13.8464 4.35087 12.9683L11.5629 0.621657C11.7338 0.329155 12.0795 0.187492 12.4065 0.275995ZM5.80668 13.4499H11.6433C12.0575 13.4499 12.3933 13.7857 12.3933 14.1999V19.7658L18.1984 9.74994H12.2105C11.7963 9.74994 11.4605 9.41416 11.4605 8.99994V3.77086L5.80668 13.4499Z" fill="#1F1E1E"/>
</svg>
