<svg width="24" height="24" viewBox="0 0 24 24" fill="none" xmlns="http://www.w3.org/2000/svg">
<path fill-rule="evenodd" clip-rule="evenodd" d="M12.9605 0.999945C12.9605 0.661198 12.7335 0.364499 12.4065 0.275995C12.0795 0.187492 11.7338 0.329155 11.5629 0.621657L8.04093 6.65112L4.93349 3.47546C4.64379 3.1794 4.16895 3.17425 3.87289 3.46394C3.57683 3.75364 3.57168 4.22848 3.86137 4.52454L7.25643 7.99413L4.35087 12.9683C3.83792 13.8464 4.4713 14.9499 5.48829 14.9499H10.8933V22.5555C10.8933 22.8947 11.121 23.1917 11.4486 23.2798C11.7761 23.3679 12.1221 23.2251 12.2922 22.9316L15.8561 16.7826L18.5391 19.5245C18.8288 19.8206 19.3037 19.8258 19.5997 19.5361C19.8958 19.2464 19.9009 18.7715 19.6112 18.4755L16.6368 15.4357L19.6552 10.2277C20.1642 9.34957 19.5306 8.24994 18.5156 8.24994H12.9605V0.999945ZM15.5479 14.323L18.1984 9.74994H12.2105C11.7963 9.74994 11.4605 9.41416 11.4605 8.99994V3.77086L9.12872 7.7628L15.5479 14.323ZM8.34422 9.10581L5.80668 13.4499H11.6433C12.0575 13.4499 12.3933 13.7857 12.3933 14.1999V19.7658L14.7673 15.6699L8.34422 9.10581Z" fill="#1F1E1E"/>
</svg>
