<svg width="24" height="24" viewBox="0 0 24 24" fill="none" xmlns="http://www.w3.org/2000/svg">
<path d="M23.3 5.00001C23.3 4.0059 22.4942 3.20001 21.5 3.20001H19C18.5582 3.20001 18.2 3.55818 18.2 4.00001C18.2 4.44184 18.5582 4.80001 19 4.80001H21.5C21.6105 4.80001 21.7 4.88956 21.7 5.00001V7.50001C21.7 7.94184 22.0582 8.30001 22.5 8.30001C22.9419 8.30001 23.3 7.94184 23.3 7.50001V5.00001Z" fill="#6E6E6D"/>
<path d="M2.49995 20.8C1.50584 20.8 0.699951 19.9941 0.699951 19V16.5C0.699951 16.0582 1.05812 15.7 1.49995 15.7C1.94178 15.7 2.29995 16.0582 2.29995 16.5V19C2.29995 19.1104 2.38949 19.2 2.49995 19.2H4.99995C5.44178 19.2 5.79995 19.5582 5.79995 20C5.79995 20.4418 5.44178 20.8 4.99995 20.8H2.49995Z" fill="#6E6E6D"/>
<path d="M21.5 20.8C22.4942 20.8 23.3 19.9941 23.3 19V16.5982C23.3 16.1564 22.9419 15.7982 22.5 15.7982C22.0582 15.7982 21.7 16.1564 21.7 16.5982V19C21.7 19.1104 21.6105 19.2 21.5 19.2H19.0983C18.6564 19.2 18.2983 19.5582 18.2983 20C18.2983 20.4418 18.6564 20.8 19.0983 20.8H21.5Z" fill="#6E6E6D"/>
<path d="M0.699951 5.00001C0.699951 4.0059 1.50584 3.20001 2.49995 3.20001H4.99995C5.44178 3.20001 5.79995 3.55818 5.79995 4.00001C5.79995 4.44184 5.44178 4.80001 4.99995 4.80001H2.49995C2.38949 4.80001 2.29995 4.88956 2.29995 5.00001V7.50001C2.29995 7.94184 1.94178 8.30001 1.49995 8.30001C1.05812 8.30001 0.699951 7.94184 0.699951 7.50001V5.00001Z" fill="#6E6E6D"/>
<path d="M5.63636 8C5.28491 8 5 8.29848 5 8.66667V15.3333C5 15.7015 5.28491 16 5.63636 16H6.27273C6.62418 16 6.90909 15.7015 6.90909 15.3333V8.66667C6.90909 8.29848 6.62418 8 6.27273 8H5.63636Z" fill="#6E6E6D"/>
<path d="M8.43638 8.46667C8.43638 8.20893 8.63582 8 8.88183 8H9.26365C9.50967 8 9.70911 8.20893 9.70911 8.46667V15.5333C9.70911 15.7911 9.50967 16 9.26365 16H8.88183C8.63582 16 8.43638 15.7911 8.43638 15.5333V8.46667Z" fill="#6E6E6D"/>
<path d="M11.4273 8C11.1813 8 10.9818 8.20893 10.9818 8.46667V15.5333C10.9818 15.7911 11.1813 16 11.4273 16H11.8091C12.0551 16 12.2546 15.7911 12.2546 15.5333V8.46667C12.2546 8.20893 12.0551 8 11.8091 8H11.4273Z" fill="#6E6E6D"/>
<path d="M18.1727 8C17.9267 8 17.7273 8.20893 17.7273 8.46667V15.5333C17.7273 15.7911 17.9267 16 18.1727 16H18.5545C18.8006 16 19 15.7911 19 15.5333V8.46667C19 8.20893 18.8006 8 18.5545 8H18.1727Z" fill="#6E6E6D"/>
<path d="M14.5455 8C14.194 8 13.9091 8.29848 13.9091 8.66667V15.3333C13.9091 15.7015 14.194 16 14.5455 16H15.8182C16.1696 16 16.4545 15.7015 16.4545 15.3333V8.66667C16.4545 8.29848 16.1696 8 15.8182 8H14.5455Z" fill="#6E6E6D"/>
</svg>
