<svg width="16" height="16" viewBox="0 0 16 16" fill="none" xmlns="http://www.w3.org/2000/svg">
<g clip-path="url(#clip0_526_390)">
<path fill-rule="evenodd" clip-rule="evenodd" d="M2.75 3.75C2.75 3.19772 3.19772 2.75 3.75 2.75H7C7.55228 2.75 8 3.19772 8 3.75V6.75C8 7.30228 7.55228 7.75 7 7.75H3.75C3.19772 7.75 2.75 7.30228 2.75 6.75V3.75ZM7 3.75H3.75V6.75H7V3.75Z" fill="black"/>
<path fill-rule="evenodd" clip-rule="evenodd" d="M0.5 2.5C0.5 1.39543 1.39543 0.5 2.5 0.5H8.25C9.35457 0.5 10.25 1.39543 10.25 2.5V9.87908H10.4545C10.7963 9.87908 11.2445 9.95991 11.6153 10.2684C12.0037 10.5915 12.2273 11.0972 12.2273 11.7805V12.9479C12.2273 13.6698 12.7639 14.2 13.3636 14.2C13.9633 14.2 14.5 13.6701 14.5 12.9483V8.51889C14.0217 8.38107 13.5955 8.06439 13.2786 7.71833C12.8546 7.25518 12.5167 6.62054 12.5167 6.01344L12.5166 3.52526L11.3694 2.34913C11.1766 2.15145 11.1805 1.83489 11.3782 1.64207C11.5759 1.44926 11.8924 1.4532 12.0852 1.65087L14.4437 4.06882C14.7149 4.33163 14.9714 4.69038 15.1618 5.0655C15.3507 5.43759 15.5 5.87588 15.5 6.29181V12.9483C15.5 14.1534 14.5821 15.2 13.3636 15.2C12.1451 15.2 11.2273 14.1533 11.2273 12.9483V11.7805C11.2273 11.325 11.0873 11.13 10.9757 11.0371C10.8465 10.9296 10.6583 10.8791 10.4545 10.8791H10.25V14.5C10.25 14.5221 10.2493 14.544 10.2479 14.5657C10.3985 14.6518 10.5 14.8141 10.5 15C10.5 15.2761 10.2761 15.5 10 15.5H0.75C0.473858 15.5 0.25 15.2761 0.25 15C0.25 14.8141 0.351502 14.6518 0.502122 14.5657C0.500715 14.544 0.5 14.5221 0.5 14.5V2.5ZM1.5 14.5H9.25V2.5C9.25 1.94772 8.80228 1.5 8.25 1.5H2.5C1.94772 1.5 1.5 1.94772 1.5 2.5V14.5ZM13.5167 6.01342L13.5166 4.58771L13.8721 4.96408C14.2753 5.39103 14.5 5.95608 14.5 6.54336V7.43788C14.3381 7.34578 14.172 7.21326 14.0162 7.04303C13.6892 6.68592 13.5167 6.28148 13.5167 6.01342Z" fill="black"/>
</g>
<defs>
<clipPath id="clip0_526_390">
<rect width="16" height="16" fill="white"/>
</clipPath>
</defs>
</svg>
