<svg width="24" height="24" viewBox="0 0 24 24" fill="none" xmlns="http://www.w3.org/2000/svg">
<path fill-rule="evenodd" clip-rule="evenodd" d="M1.75 3.5C1.75 1.98122 2.98122 0.75 4.5 0.75H12.9951C14.5139 0.75 15.7451 1.98122 15.7451 3.5V14.5443L15.7523 14.5443H16.377C16.8603 14.5443 17.4962 14.6625 18.0214 15.1132C18.5691 15.5832 18.8764 16.3109 18.8764 17.2812V19.764C18.8764 20.315 19.0269 20.6805 19.2189 20.8974C19.4011 21.1032 19.685 21.25 20.1256 21.25C20.561 21.25 20.7992 21.1081 20.9471 20.9243C21.1153 20.7154 21.25 20.3466 21.25 19.7647V12.3699C20.7085 12.2738 20.2011 12.0698 19.7813 11.7514C19.1551 11.2766 18.75 10.5621 18.75 9.68555V4.90193L17.5532 3.48371C17.2861 3.16715 17.3261 2.69397 17.6427 2.42683C17.9593 2.1597 18.4324 2.19976 18.6996 2.51632L21.9287 6.34287C22.4966 6.92119 22.6723 7.58577 22.7264 8.20564C22.7419 8.33409 22.7497 8.4639 22.7497 8.59443V8.77983C22.7502 8.85558 22.7501 8.92984 22.7501 9.00232L22.75 19.7647C22.75 20.5488 22.5722 21.2977 22.1156 21.8649C21.6387 22.4573 20.9397 22.75 20.1256 22.75C19.3167 22.75 18.6009 22.4622 18.0959 21.8918C17.6007 21.3326 17.3764 20.5797 17.3764 19.7647V17.2812C17.3764 16.637 17.1839 16.3712 17.0444 16.2514C16.8823 16.1123 16.6435 16.0443 16.377 16.0443H15.7523L15.7451 16.0442V21.75H15.75C16.1642 21.75 16.5 22.0858 16.5 22.5C16.5 22.9142 16.1642 23.25 15.75 23.25H1.75C1.33579 23.25 1 22.9142 1 22.5C1 22.0858 1.33579 21.75 1.75 21.75V3.5ZM5.84999 4.0498C5.40816 4.0498 5.04999 4.40798 5.04999 4.84981V9.2726C5.04999 9.71443 5.40816 10.0726 5.84999 10.0726H11.65C12.0918 10.0726 12.45 9.71443 12.45 9.2726V4.8498C12.45 4.40798 12.0918 4.0498 11.65 4.0498H5.84999Z" fill="#1F1E1E"/>
</svg>
