<svg width="24" height="24" viewBox="0 0 24 24" fill="none" xmlns="http://www.w3.org/2000/svg">
<path d="M11.3731 13.642V13.5341C11.3806 12.8301 11.4507 12.27 11.5831 11.8536C11.7194 11.4373 11.9124 11.1005 12.1622 10.8431C12.412 10.5857 12.7129 10.3511 13.0649 10.1391C13.292 9.99529 13.4964 9.83444 13.678 9.65655C13.8597 9.47867 14.0035 9.27429 14.1095 9.04341C14.2155 8.81254 14.2685 8.55707 14.2685 8.27699C14.2685 7.94014 14.189 7.64871 14.03 7.4027C13.871 7.15669 13.6591 6.96745 13.3942 6.83498C13.133 6.69873 12.8416 6.6306 12.5199 6.6306C12.2284 6.6306 11.9503 6.69116 11.6853 6.81227C11.4204 6.93338 11.2009 7.12262 11.0268 7.37999C10.8527 7.63357 10.7524 7.96096 10.7259 8.36215C10.7259 8.36215 10.5338 9.07227 9.81434 9.07227C9.09492 9.07227 9 8.36215 9 8.36215C9.02649 7.68088 9.1987 7.10559 9.51663 6.63628C9.83455 6.16318 10.2547 5.80551 10.777 5.56328C11.3031 5.32106 11.884 5.19995 12.5199 5.19995C13.2163 5.19995 13.8256 5.33052 14.3479 5.59167C14.8702 5.84904 15.2752 6.21049 15.5629 6.67602C15.8543 7.13776 16 7.6771 16 8.29402C16 8.71792 15.9338 9.10019 15.8013 9.44082C15.6688 9.77767 15.4796 10.0786 15.2336 10.3435C14.9913 10.6084 14.6999 10.8431 14.3593 11.0475C14.0376 11.2481 13.7764 11.4562 13.5758 11.672C13.379 11.8877 13.2352 12.1432 13.1444 12.4384C13.0535 12.7336 13.0043 13.0988 12.9968 13.5341V13.642C12.9968 13.642 12.8519 14.348 12.1325 14.348C11.413 14.348 11.3731 13.642 11.3731 13.642Z" fill="black"/>
<path d="M12.1963 15.6056C11.9277 15.6056 11.7065 15.6946 11.5327 15.8726C11.3431 16.0667 11.2483 16.3013 11.2483 16.5764V16.8694C11.2483 17.1283 11.3431 17.3548 11.5327 17.549C11.7065 17.7431 11.9277 17.8402 12.1963 17.8402C12.4649 17.8402 12.6941 17.7431 12.8837 17.549C13.0575 17.3548 13.1444 17.1283 13.1444 16.8694V16.5764C13.1444 16.3013 13.0575 16.0667 12.8837 15.8726C12.6941 15.6946 12.4649 15.6056 12.1963 15.6056Z" fill="black"/>
<path fill-rule="evenodd" clip-rule="evenodd" d="M12.303 2.75C7.36176 2.75 3.35606 6.75569 3.35606 11.697C3.35606 13.1465 3.7002 14.5135 4.31055 15.7227C4.4087 15.9171 4.40418 16.1098 4.40287 16.166L4.40282 16.168C4.40075 16.2576 4.38937 16.3476 4.37676 16.426C4.35109 16.5853 4.30705 16.7752 4.2549 16.9748C4.1495 17.3784 3.99287 17.8898 3.82226 18.4173C3.60866 19.0778 3.36732 19.7812 3.16389 20.3622C3.81151 20.22 4.61227 20.0501 5.36906 19.9055C5.95862 19.7928 6.53357 19.6932 6.99276 19.6347C7.22068 19.6056 7.43587 19.5846 7.61701 19.5793C7.70703 19.5766 7.80374 19.5772 7.89726 19.5863C7.97246 19.5935 8.12452 19.6123 8.27735 19.6895C9.48655 20.2998 10.8535 20.6439 12.303 20.6439C17.2443 20.6439 21.25 16.6382 21.25 11.697C21.25 6.75569 17.2443 2.75 12.303 2.75ZM1.85606 11.697C1.85606 5.92727 6.53333 1.25 12.303 1.25C18.0727 1.25 22.75 5.92727 22.75 11.697C22.75 17.4667 18.0727 22.1439 12.303 22.1439C10.6528 22.1439 9.08994 21.7608 7.70055 21.0779C7.68942 21.0779 7.67643 21.0782 7.66146 21.0786C7.55087 21.0819 7.3905 21.0961 7.18236 21.1226C6.76943 21.1753 6.23029 21.268 5.65059 21.3788C4.49459 21.5997 3.22527 21.8828 2.58479 22.0288C1.82581 22.2019 1.17744 21.4687 1.43971 20.7371C1.65295 20.1423 2.06014 18.9913 2.39505 17.9557C2.56306 17.4363 2.70918 16.9572 2.80359 16.5958C2.84426 16.44 2.87213 16.3181 2.8884 16.2302C2.22664 14.8582 1.85606 13.3199 1.85606 11.697ZM7.75301 21.0793C7.76107 21.0801 7.75931 21.0805 7.74997 21.0791L7.75301 21.0793Z" fill="black"/>
</svg>
