<svg width="24" height="24" viewBox="0 0 24 24" fill="none" xmlns="http://www.w3.org/2000/svg">
<path d="M2.60152 7.5521C2.35413 7.21988 1.88426 7.15112 1.55204 7.39851C1.21982 7.6459 1.15106 8.11577 1.39845 8.44799C1.91794 9.1456 2.6619 10.0335 3.66491 10.8905L1.58507 13.0437C1.2973 13.3416 1.30553 13.8164 1.60346 14.1042C1.90138 14.392 2.37618 14.3837 2.66396 14.0858L4.86722 11.8048C5.51066 12.2376 6.23267 12.6381 7.03861 12.9719L6.15657 15.9396C6.03856 16.3367 6.26477 16.7542 6.66182 16.8722C7.05887 16.9902 7.4764 16.764 7.59441 16.367L8.45842 13.4598C9.20354 13.6659 10.0081 13.8132 10.8752 13.8823V16.8C10.8752 17.2142 11.211 17.55 11.6252 17.55C12.0395 17.55 12.3752 17.2142 12.3752 16.8V13.9216C13.3106 13.8975 14.1779 13.7833 14.9806 13.601L15.9135 16.3911C16.0448 16.784 16.4697 16.9959 16.8626 16.8646C17.2554 16.7332 17.4674 16.3083 17.3361 15.9155L16.4216 13.1805C17.2517 12.8821 17.9993 12.5116 18.6694 12.1021L20.5856 14.0858C20.8733 14.3837 21.3481 14.392 21.6461 14.1042C21.944 13.8164 21.9522 13.3416 21.6644 13.0437L19.9163 11.2339C21.1339 10.2758 22.0122 9.2394 22.6015 8.44799C22.8489 8.11577 22.7801 7.6459 22.4479 7.39851C22.1157 7.15112 21.6458 7.21988 21.3984 7.5521C20.0493 9.36389 17.1675 12.4265 12 12.4265C6.83248 12.4265 3.9507 9.36389 2.60152 7.5521Z" fill="#1F1E1E"/>
</svg>
