<svg width="16" height="16" viewBox="0 0 16 16" fill="none" xmlns="http://www.w3.org/2000/svg">
<g clip-path="url(#clip0_291_61)">
<path fill-rule="evenodd" clip-rule="evenodd" d="M0.25 8C0.25 3.71979 3.71979 0.25 8 0.25C12.2802 0.25 15.75 3.71979 15.75 8C15.75 12.2802 12.2802 15.75 8 15.75C3.71979 15.75 0.25 12.2802 0.25 8ZM8.67949 4.59999C8.67949 4.22472 8.37527 3.9205 8 3.9205C7.62473 3.9205 7.32051 4.22472 7.32051 4.59999V5.13332C7.32051 5.50859 7.62473 5.81281 8 5.81281C8.37527 5.81281 8.67949 5.50859 8.67949 5.13332V4.59999ZM8.67949 7.43349C8.67949 7.05821 8.37527 6.754 8 6.754C7.62473 6.754 7.32051 7.05821 7.32051 7.43349V11.4C7.32051 11.7753 7.62473 12.0795 8 12.0795C8.37527 12.0795 8.67949 11.7753 8.67949 11.4V7.43349Z" fill="#1F1E1E"/>
</g>
<defs>
<clipPath id="clip0_291_61">
<rect width="16" height="16" fill="white"/>
</clipPath>
</defs>
</svg>
