<svg width="16" height="16" viewBox="0 0 16 16" fill="none" xmlns="http://www.w3.org/2000/svg">
<g clip-path="url(#clip0_291_59)">
<path fill-rule="evenodd" clip-rule="evenodd" d="M8 1.75C4.54822 1.75 1.75 4.54822 1.75 8C1.75 11.4518 4.54822 14.25 8 14.25C11.4518 14.25 14.25 11.4518 14.25 8C14.25 4.54822 11.4518 1.75 8 1.75ZM0.25 8C0.25 3.71979 3.71979 0.25 8 0.25C12.2802 0.25 15.75 3.71979 15.75 8C15.75 12.2802 12.2802 15.75 8 15.75C3.71979 15.75 0.25 12.2802 0.25 8Z" fill="#1F1E1E"/>
<path fill-rule="evenodd" clip-rule="evenodd" d="M8 3.92051C8.37527 3.92051 8.67949 4.22473 8.67949 4.6V5.13333C8.67949 5.5086 8.37527 5.81282 8 5.81282C7.62473 5.81282 7.32051 5.5086 7.32051 5.13333V4.6C7.32051 4.22473 7.62473 3.92051 8 3.92051ZM8 6.75401C8.37527 6.75401 8.67949 7.05823 8.67949 7.4335V11.4C8.67949 11.7753 8.37527 12.0795 8 12.0795C7.62473 12.0795 7.32051 11.7753 7.32051 11.4V7.4335C7.32051 7.05823 7.62473 6.75401 8 6.75401Z" fill="#1F1E1E"/>
</g>
<defs>
<clipPath id="clip0_291_59">
<rect width="16" height="16" fill="white"/>
</clipPath>
</defs>
</svg>
