<svg width="24" height="24" viewBox="0 0 24 24" fill="none" xmlns="http://www.w3.org/2000/svg">
<path d="M7.75 11.75C7.75 12.7165 6.9665 13.5 6 13.5C5.0335 13.5 4.25 12.7165 4.25 11.75C4.25 10.7835 5.0335 10 6 10C6.9665 10 7.75 10.7835 7.75 11.75Z" fill="#1F1E1E"/>
<path d="M14 11.75C14 12.7165 13.2165 13.5 12.25 13.5C11.2835 13.5 10.5 12.7165 10.5 11.75C10.5 10.7835 11.2835 10 12.25 10C13.2165 10 14 10.7835 14 11.75Z" fill="#1F1E1E"/>
<path d="M18.5 13.5C19.4665 13.5 20.25 12.7165 20.25 11.75C20.25 10.7835 19.4665 10 18.5 10C17.5335 10 16.75 10.7835 16.75 11.75C16.75 12.7165 17.5335 13.5 18.5 13.5Z" fill="#1F1E1E"/>
</svg>
