<svg width="24" height="24" viewBox="0 0 24 24" fill="none" xmlns="http://www.w3.org/2000/svg">
<path fill-rule="evenodd" clip-rule="evenodd" d="M8.14437 4.58807C7.05512 5.48799 6.25 6.91135 6.25 9.05982C6.25 10.5553 6.02889 11.8515 5.42746 13.1177C4.86561 14.3005 3.99352 15.4112 2.75 16.6164V17.75H21.25V16.6447C20.0044 15.5714 19.1321 14.493 18.5704 13.2902C17.9683 12.0008 17.75 10.6253 17.75 9.05982C17.75 6.98395 16.9813 5.55446 15.9243 4.63465C14.8496 3.69938 13.4276 3.25 12.0834 3.25C10.7232 3.25 9.25642 3.66932 8.14437 4.58807ZM7.18899 3.43168C8.61861 2.25055 10.4435 1.75 12.0834 1.75C13.7392 1.75 15.5255 2.29915 16.909 3.5031C18.3103 4.72251 19.25 6.57293 19.25 9.05982C19.25 10.4838 19.4483 11.625 19.9296 12.6556C20.4112 13.6869 21.2029 14.6647 22.4776 15.7177C22.6501 15.8602 22.75 16.0722 22.75 16.2959V17.8943C22.75 18.6439 22.1422 19.25 21.3939 19.25H2.60606C1.85778 19.25 1.25 18.6439 1.25 17.8943V16.2959C1.25 16.0895 1.33506 15.8922 1.48516 15.7505C2.78228 14.526 3.58583 13.4987 4.07254 12.4741C4.55444 11.4596 4.75 10.3964 4.75 9.05982C4.75 6.48819 5.73656 4.63164 7.18899 3.43168Z" fill="black"/>
<path fill-rule="evenodd" clip-rule="evenodd" d="M8.25 21C8.25 20.5858 8.58579 20.25 9 20.25H15C15.4142 20.25 15.75 20.5858 15.75 21C15.75 21.4142 15.4142 21.75 15 21.75H9C8.58579 21.75 8.25 21.4142 8.25 21Z" fill="black"/>
</svg>
