<svg width="16" height="16" viewBox="0 0 16 16" fill="none" xmlns="http://www.w3.org/2000/svg">
<g clip-path="url(#clip0_526_397)">
<path d="M7.95252 7.04992C7.46683 7.04992 7.08175 7.17234 6.7762 7.39623C6.47392 7.61773 6.27004 7.92351 6.11831 8.25543C5.96736 8.58563 5.8613 8.95722 5.76421 9.3213C5.74762 9.38353 5.73129 9.44552 5.71504 9.5072C5.63447 9.81305 5.55586 10.1115 5.45638 10.3957C5.33243 10.7499 5.11598 11.0751 4.86016 11.3936C4.73256 11.5525 4.59784 11.7065 4.46191 11.861L4.43479 11.8918C4.30896 12.0348 4.18197 12.1791 4.06492 12.3228C3.81688 12.6271 3.58938 12.9561 3.49566 13.3186C3.3976 13.698 3.45148 14.0907 3.71697 14.4992C3.97267 14.8926 4.27346 15.125 4.62183 15.2311C4.96127 15.3346 5.3173 15.3089 5.66701 15.2445C5.88443 15.2044 6.12138 15.1443 6.3598 15.0838C6.49527 15.0494 6.63128 15.0149 6.76438 14.9838C7.14513 14.8951 7.5388 14.8248 7.95252 14.8248C8.29491 14.8248 8.66303 14.8748 9.04508 14.9374C9.14021 14.953 9.23671 14.9695 9.33377 14.986C9.61905 15.0347 9.9094 15.0843 10.1839 15.1147C10.9049 15.1944 11.6748 15.1632 12.1158 14.5016C12.4249 14.0381 12.5051 13.6056 12.4158 13.1907C12.3299 12.7914 12.0925 12.4382 11.8335 12.1146C11.7213 11.9743 11.5998 11.8335 11.4798 11.6944L11.4211 11.6264C11.2808 11.4634 11.1431 11.3012 11.015 11.1333C10.7587 10.797 10.5518 10.4508 10.4552 10.0645C10.4134 9.897 10.374 9.73126 10.3359 9.5705C10.2782 9.32752 10.2232 9.09582 10.1662 8.88669C10.0703 8.53438 9.95987 8.20929 9.79733 7.93502C9.63163 7.6554 9.41133 7.42777 9.1008 7.27365C8.79452 7.12164 8.4181 7.04992 7.95252 7.04992Z" fill="black"/>
<path d="M12.7245 10.408C13.7627 10.7852 14.9749 10.0748 15.432 8.82122C15.8891 7.56769 15.418 6.24575 14.3798 5.86858C13.3416 5.49142 12.1295 6.20185 11.6724 7.45538C11.2153 8.70891 11.6863 10.0309 12.7245 10.408Z" fill="black"/>
<path d="M9.87122 5.94112C11.0042 6.2654 12.2413 5.41929 12.6342 4.0513C13.0272 2.6833 12.4274 1.31144 11.2944 0.987168C10.1614 0.662894 8.92435 1.509 8.53135 2.877C8.13836 4.24499 8.73823 5.61685 9.87122 5.94112Z" fill="black"/>
<path d="M6.07913 5.86692C7.21211 5.54265 7.81198 4.17079 7.41899 2.80279C7.02599 1.4348 5.78894 0.588692 4.65596 0.912966C3.52298 1.23724 2.9231 2.6091 3.3161 3.97709C3.70909 5.34509 4.94614 6.1912 6.07913 5.86692Z" fill="black"/>
<path d="M3.3351 10.4226C4.37328 10.0454 4.84434 8.72345 4.38724 7.46992C3.93014 6.21639 2.71798 5.50595 1.6798 5.88312C0.641619 6.26028 0.170558 7.58222 0.627655 8.83575C1.08475 10.0893 2.29692 10.7997 3.3351 10.4226Z" fill="black"/>
</g>
<defs>
<clipPath id="clip0_526_397">
<rect width="16" height="16" fill="white"/>
</clipPath>
</defs>
</svg>
