<svg width="24" height="24" viewBox="0 0 24 24" fill="none" xmlns="http://www.w3.org/2000/svg">
<path d="M12 11.0001C11.2865 11.0001 10.7098 11.1804 10.2483 11.5186C9.79327 11.852 9.49125 12.3089 9.2703 12.7922C9.05093 13.2721 8.89811 13.8089 8.76067 14.3244C8.73691 14.4134 8.71362 14.5019 8.69051 14.5896C8.57645 15.0225 8.46686 15.4384 8.32811 15.8349C8.16059 16.3135 7.86589 16.7589 7.50795 17.2046C7.3296 17.4266 7.14086 17.6424 6.94831 17.8613L6.90953 17.9054C6.73178 18.1074 6.55025 18.3137 6.38269 18.5193C6.02897 18.9532 5.68953 19.4395 5.54853 19.985C5.39885 20.564 5.48394 21.162 5.88082 21.7726C6.25811 22.353 6.71013 22.707 7.24181 22.869C7.75566 23.0255 8.28721 22.9845 8.79062 22.8918C9.10249 22.8343 9.44755 22.7468 9.78896 22.6602C9.97957 22.6118 10.1691 22.5638 10.351 22.5214C10.8855 22.3969 11.4305 22.3001 12 22.3001C12.4722 22.3001 12.9834 22.3691 13.5233 22.4575C13.6558 22.4793 13.7911 22.5024 13.9278 22.5257C14.3328 22.5948 14.7499 22.666 15.1432 22.7095C16.1655 22.8226 17.3403 22.7911 18.0161 21.7774C18.4723 21.093 18.5979 20.441 18.462 19.8097C18.3329 19.2095 17.9784 18.6873 17.6089 18.2255C17.4481 18.0246 17.2742 17.823 17.1044 17.6262L17.0216 17.5303C16.8231 17.2997 16.6305 17.0729 16.4522 16.8389C16.0947 16.37 15.815 15.8983 15.6851 15.3788C15.6269 15.1458 15.5715 14.9126 15.5175 14.6853C15.4353 14.3388 15.3562 14.0059 15.2752 13.7083C15.1384 13.2059 14.9779 12.7303 14.7376 12.3248C14.4909 11.9086 14.1594 11.5647 13.6907 11.3321C13.2305 11.1036 12.6733 11.0001 12 11.0001Z" fill="#1F1E1E"/>
<path d="M18.8367 16.0467C20.3936 16.6133 22.2115 15.5459 22.897 13.6626C23.5825 11.7792 22.876 9.79299 21.3191 9.22632C19.7622 8.65964 17.9443 9.72704 17.2588 11.6104C16.5733 13.4938 17.2798 15.48 18.8367 16.0467Z" fill="#1F1E1E"/>
<path d="M14.4849 9.09489C16.0776 9.55158 17.8165 8.35997 18.369 6.43335C18.9214 4.50673 18.0782 2.57468 16.4855 2.11799C14.8928 1.6613 13.1539 2.85291 12.6014 4.77953C12.049 6.70614 12.8922 8.6382 14.4849 9.09489Z" fill="#1F1E1E"/>
<path d="M9.17786 9.15005C10.7705 8.69336 11.6138 6.7613 11.0614 4.83469C10.5089 2.90807 8.76994 1.71646 7.17727 2.17315C5.5846 2.62984 4.74133 4.56189 5.29378 6.48851C5.84623 8.41513 7.58519 9.60674 9.17786 9.15005Z" fill="#1F1E1E"/>
<path d="M5.30151 15.9945C6.85844 15.4279 7.56488 13.4417 6.87939 11.5583C6.19389 9.67492 4.37604 8.60752 2.81911 9.1742C1.26217 9.74087 0.555733 11.727 1.24123 13.6104C1.92673 15.4938 3.74458 16.5612 5.30151 15.9945Z" fill="#1F1E1E"/>
</svg>
