<svg width="16" height="16" viewBox="0 0 16 16" fill="none" xmlns="http://www.w3.org/2000/svg">
<path d="M5.5 9.8C5.5 9.52386 5.72386 9.3 6 9.3H10C10.2761 9.3 10.5 9.52386 10.5 9.8C10.5 10.0761 10.2761 10.3 10 10.3H6C5.72386 10.3 5.5 10.0761 5.5 9.8Z" fill="#1F1E1E"/>
<path d="M6 11.9C5.72386 11.9 5.5 12.1239 5.5 12.4C5.5 12.6761 5.72386 12.9 6 12.9H10C10.2761 12.9 10.5 12.6761 10.5 12.4C10.5 12.1239 10.2761 11.9 10 11.9H6Z" fill="#1F1E1E"/>
<path fill-rule="evenodd" clip-rule="evenodd" d="M3.5 2.5C3.5 1.94772 3.94772 1.5 4.5 1.5H11.5C12.0523 1.5 12.5 1.94772 12.5 2.5V4.16663H14C14.5523 4.16663 15 4.61434 15 5.16663V10.5C15 11.0522 14.5523 11.5 14 11.5H12.75V14.1C12.75 14.6523 12.3023 15.1 11.75 15.1H4.25C3.69772 15.1 3.25 14.6523 3.25 14.1V11.4999L2.00001 11.5C1.44772 11.5 1 11.0522 1 10.5V5.16663C1 4.61434 1.44771 4.16663 2 4.16663H3.5V2.5ZM3.25 10.4999V7.68311C3.10055 7.59666 3 7.43507 3 7.25C3 6.97386 3.22386 6.75 3.5 6.75H4.23884C4.24255 6.74996 4.24627 6.74994 4.25 6.74994H11.75C11.7537 6.74994 11.7574 6.74996 11.7612 6.75H12.5C12.7761 6.75 13 6.97386 13 7.25C13 7.43507 12.8995 7.59666 12.75 7.68311V10.5L14 10.5V5.16663H11.6764L11.6662 5.16669H4.3338L4.32364 5.16663H2V10.5L3.25 10.4999ZM11.75 7.75H4.25V14.1H11.75V7.75ZM11.5 2.5V4.16663H4.5V2.5H11.5Z" fill="#1F1E1E"/>
</svg>
