<svg width="24" height="24" viewBox="0 0 24 24" fill="none" xmlns="http://www.w3.org/2000/svg">
<path d="M7.3611 15.3334C7.3611 14.9192 7.69688 14.5834 8.1111 14.5834H15.8889C16.3031 14.5834 16.6389 14.9192 16.6389 15.3334C16.6389 15.7476 16.3031 16.0834 15.8889 16.0834H8.1111C7.69688 16.0834 7.3611 15.7476 7.3611 15.3334Z" fill="black"/>
<path d="M8.1111 17.3611C7.69688 17.3611 7.3611 17.6969 7.3611 18.1111C7.3611 18.5254 7.69688 18.8611 8.1111 18.8611H15.8889C16.3031 18.8611 16.6389 18.5254 16.6389 18.1111C16.6389 17.6969 16.3031 17.3611 15.8889 17.3611H8.1111Z" fill="black"/>
<path fill-rule="evenodd" clip-rule="evenodd" d="M5.88885 2C5.58202 2 5.33329 2.24873 5.33329 2.55555V6.44446H3.66667C2.74619 6.44446 2 7.19065 2 8.11113V15.3333C2 16.2538 2.74619 17 3.66667 17H5.33329V21.4445C5.33329 21.7513 5.58202 22 5.88885 22H18.1111C18.4179 22 18.6666 21.7513 18.6666 21.4445V17H20.3333C21.2538 17 22 16.2538 22 15.3333V8.11112C22 7.19065 21.2538 6.44446 20.3333 6.44446H18.6666V2.55556C18.6666 2.24873 18.4179 2 18.1111 2H5.88885ZM19.0556 12.55V15.5H20.3333C20.4254 15.5 20.5 15.4254 20.5 15.3333V8.11112C20.5 8.01908 20.4254 7.94446 20.3333 7.94446H3.66667C3.57462 7.94446 3.5 8.01908 3.5 8.11113V15.3333C3.5 15.4254 3.57462 15.5 3.66667 15.5H4.94444V12.55H4.77781C4.36359 12.55 4.02781 12.2143 4.02781 11.8C4.02781 11.3858 4.36359 11.05 4.77781 11.05H19.2222C19.6365 11.05 19.9722 11.3858 19.9722 11.8C19.9722 12.2143 19.6365 12.55 19.2222 12.55H19.0556ZM6.83329 3.5V6.05556H17.1666V3.5H6.83329ZM6.83329 12.9445V20.5H17.1666V12.9445H6.83329Z" fill="black"/>
</svg>
