<svg width="16" height="16" viewBox="0 0 16 16" fill="none" xmlns="http://www.w3.org/2000/svg">
<g clip-path="url(#clip0_488_205)">
<path fill-rule="evenodd" clip-rule="evenodd" d="M6.75 0.5C3.29822 0.5 0.5 3.29822 0.5 6.75C0.5 10.2018 3.29822 13 6.75 13C8.30432 13 9.72612 12.4326 10.8196 11.4937C10.8426 11.5382 10.8728 11.5799 10.9101 11.6172L14.3131 15.0202C14.5084 15.2155 14.825 15.2155 15.0203 15.0202C15.2155 14.8249 15.2155 14.5083 15.0202 14.3131L11.6173 10.9101C11.5799 10.8728 11.5382 10.8426 11.4937 10.8196C12.4326 9.7261 13 8.30431 13 6.75C13 3.29822 10.2018 0.5 6.75 0.5ZM1.5 6.75C1.5 3.85051 3.85051 1.5 6.75 1.5C9.6495 1.5 12 3.85051 12 6.75C12 9.6495 9.6495 12 6.75 12C3.85051 12 1.5 9.6495 1.5 6.75Z" fill="#1F1E1E"/>
</g>
<defs>
<clipPath id="clip0_488_205">
<rect width="16" height="16" fill="white"/>
</clipPath>
</defs>
</svg>
