<svg width="16" height="16" viewBox="0 0 16 16" fill="none" xmlns="http://www.w3.org/2000/svg">
<path fill-rule="evenodd" clip-rule="evenodd" d="M3 6.75C2.72386 6.75 2.5 6.97385 2.5 7.25V13.5C2.5 13.7761 2.72386 14 3 14H13C13.2761 14 13.5 13.7761 13.5 13.5V7.25C13.5 6.97385 13.2761 6.75 13 6.75H10.25V5.75H13C13.8284 5.75 14.5 6.42157 14.5 7.25V13.5C14.5 14.3284 13.8284 15 13 15H3C2.17157 15 1.5 14.3284 1.5 13.5V7.25C1.5 6.42157 2.17157 5.75 3 5.75H5.75V6.75H3Z" fill="black"/>
<path d="M5.46367 2.63002C5.25934 2.81578 5.24428 3.132 5.43003 3.33633C5.61578 3.54066 5.93201 3.55572 6.13634 3.36997L7.5 2.13028V8.5C7.5 8.77614 7.72386 9 8 9C8.27614 9 8.5 8.77614 8.5 8.5V2.1305L9.86294 3.36991C10.0672 3.5557 10.3835 3.54069 10.5692 3.33639C10.755 3.13209 10.74 2.81586 10.5357 2.63008L8.3364 0.630081C8.14569 0.456659 7.8544 0.456637 7.66367 0.63003L5.46367 2.63002Z" fill="black"/>
</svg>
