<svg width="24" height="24" viewBox="0 0 24 24" fill="none" xmlns="http://www.w3.org/2000/svg">
<path fill-rule="evenodd" clip-rule="evenodd" d="M4.5 10.75C4.08579 10.75 3.75 11.0858 3.75 11.5V20.5C3.75 20.9142 4.08579 21.25 4.5 21.25H19.5C19.9142 21.25 20.25 20.9142 20.25 20.5V11.5C20.25 11.0858 19.9142 10.75 19.5 10.75H14.625V9.25001H19.5C20.7426 9.25001 21.75 10.2574 21.75 11.5V20.5C21.75 21.7427 20.7426 22.75 19.5 22.75H4.5C3.25736 22.75 2.25 21.7427 2.25 20.5V11.5C2.25 10.2574 3.25736 9.25001 4.5 9.25001H9.375V10.75H4.5Z" fill="black"/>
<path d="M12.5766 0.945084C12.4352 0.797758 12.2398 0.714478 12.0355 0.714478C11.8313 0.714478 11.6359 0.797758 11.4945 0.945084L8.03114 4.55281C7.74429 4.85162 7.75398 5.32639 8.0528 5.61325C8.35161 5.9001 8.82638 5.8904 9.11324 5.59159L11.25 3.36575V14.6251C11.25 15.0393 11.5858 15.3751 12 15.3751C12.4142 15.3751 12.75 15.0393 12.75 14.6251V3.29172L14.9578 5.59159C15.2447 5.8904 15.7195 5.9001 16.0183 5.61325C16.3171 5.32639 16.3268 4.85162 16.0399 4.55281L12.5766 0.945084Z" fill="black"/>
</svg>
