<svg width="24" height="24" viewBox="0 0 24 24" fill="none" xmlns="http://www.w3.org/2000/svg">
<path fill-rule="evenodd" clip-rule="evenodd" d="M12.6088 1.06191L12.6072 1.05977L12.6063 1.05845C12.6077 1.06036 12.6117 1.06552 12.6181 1.07364C12.6311 1.08987 12.6541 1.11786 12.6875 1.15526C12.7544 1.23014 12.8625 1.34223 13.0142 1.47316C13.3175 1.73486 13.7941 2.07084 14.466 2.3372C15.7915 2.86264 17.9705 3.15352 21.2308 1.89992C21.4615 1.81125 21.721 1.84185 21.9246 1.98175C22.1283 2.12164 22.25 2.35287 22.25 2.59996V12.5C22.25 16.4628 19.6245 19.1598 17.1694 20.8158C15.9306 21.6514 14.6971 22.2496 13.7762 22.6386C13.3147 22.8336 12.9288 22.9772 12.6562 23.0727C12.5199 23.1205 12.4117 23.1563 12.3363 23.1806C12.2986 23.1927 12.2691 23.2019 12.2484 23.2083L12.224 23.2158L12.2168 23.2179L12.2145 23.2186C12.2145 23.2186 12.2131 23.219 12 22.5C11.7869 23.219 11.7863 23.2189 11.7863 23.2189L11.7832 23.2179L11.776 23.2158L11.7516 23.2083C11.7309 23.2019 11.7014 23.1927 11.6637 23.1806C11.5883 23.1563 11.4801 23.1205 11.3438 23.0727C11.0712 22.9772 10.6853 22.8336 10.2238 22.6386C9.30289 22.2496 8.06944 21.6514 6.8306 20.8158C4.37552 19.1598 1.75 16.4628 1.75 12.5V2.59996C1.75 2.35287 1.8717 2.12164 2.07537 1.98175C2.27904 1.84185 2.53854 1.81125 2.76916 1.89992C6.02948 3.15352 8.20845 2.86264 9.53397 2.3372C10.2059 2.07084 10.6825 1.73486 10.9858 1.47316C11.1375 1.34223 11.2456 1.23014 11.3125 1.15526C11.3459 1.11786 11.3689 1.08987 11.3819 1.07364C11.3883 1.06552 11.3923 1.06036 11.3937 1.05845L11.3928 1.05977L11.3918 1.06111M12 22.5L11.7863 23.2189C11.9254 23.2601 12.074 23.2603 12.2131 23.219L12 22.5ZM12 21.7121C12.0465 21.6965 12.1001 21.6782 12.1602 21.6571C12.4071 21.5706 12.7635 21.4381 13.1925 21.2569C14.0529 20.8934 15.1944 20.3386 16.3306 19.5723C18.6255 18.0243 20.75 15.7213 20.75 12.5V3.65707C17.7067 4.61684 15.4627 4.34584 13.9133 3.73164C13.0637 3.39485 12.4454 2.96359 12.0343 2.60885C12.0227 2.59884 12.0113 2.5889 12 2.57902C11.9887 2.5889 11.9773 2.59884 11.9657 2.60885C11.5546 2.96359 10.9363 3.39485 10.0867 3.73164C8.5373 4.34584 6.29333 4.61685 3.25 3.65707V12.5C3.25 15.7213 5.37448 18.0243 7.6694 19.5723C8.80556 20.3386 9.94711 20.8934 10.8075 21.2569C11.2365 21.4381 11.5929 21.5706 11.8398 21.6571C11.8999 21.6782 11.9535 21.6965 12 21.7121ZM12.6063 1.05845L12.6088 1.06191Z" fill="#1F1E1E"/>
<path fill-rule="evenodd" clip-rule="evenodd" d="M17.9599 7.40747C18.2871 7.66144 18.3465 8.13259 18.0925 8.45981L11.8833 16.4598C11.7561 16.6238 11.5665 16.7277 11.3598 16.7468C11.1532 16.7659 10.9478 16.6985 10.7926 16.5606L7.00179 13.1916C6.69217 12.9165 6.66423 12.4424 6.93939 12.1328C7.21455 11.8232 7.6886 11.7953 7.99821 12.0704L11.1899 14.9068L16.9075 7.54011C17.1615 7.21289 17.6326 7.15351 17.9599 7.40747Z" fill="#1F1E1E"/>
</svg>
