<svg width="16" height="16" viewBox="0 0 16 16" fill="none" xmlns="http://www.w3.org/2000/svg">
<path fill-rule="evenodd" clip-rule="evenodd" d="M8.4197 0.728246C8.32761 0.586012 8.16965 0.5 8 0.5C7.83035 0.5 7.67239 0.586012 7.5803 0.728246L7.57421 0.73699C7.56717 0.746872 7.55426 0.764408 7.5352 0.788076C7.49702 0.83547 7.43451 0.907014 7.3454 0.990774C7.16741 1.15808 6.88389 1.37363 6.47504 1.54424C5.67049 1.87998 4.3067 2.07157 2.18234 1.23957C2.02845 1.1793 1.85471 1.19897 1.71819 1.29212C1.58167 1.38527 1.5 1.53986 1.5 1.70513V8.15182C1.5 10.7703 3.15265 12.5635 4.71031 13.6707C5.49458 14.2282 6.27555 14.6279 6.85881 14.8881C7.15115 15.0185 7.39565 15.1147 7.56851 15.1787C7.65499 15.2107 7.72367 15.2348 7.7716 15.2511C7.79557 15.2592 7.81436 15.2654 7.82761 15.2698L7.84327 15.2748L7.8479 15.2763L7.8494 15.2768C7.8494 15.2768 7.85035 15.2771 8 14.8L7.8494 15.2768C7.94683 15.3073 8.05222 15.3076 8.14965 15.2771L8 14.8C8.14965 15.2771 8.14965 15.2771 8.14965 15.2771L8.1521 15.2763L8.15673 15.2748L8.17239 15.2698C8.18564 15.2654 8.20443 15.2592 8.2284 15.2511C8.27633 15.2348 8.34501 15.2107 8.43149 15.1787C8.60435 15.1147 8.84885 15.0185 9.14119 14.8881C9.72445 14.6279 10.5054 14.2282 11.2897 13.6707C12.8474 12.5635 14.5 10.7703 14.5 8.15182V1.70513C14.5 1.53986 14.4183 1.38527 14.2818 1.29212C14.1453 1.19897 13.9716 1.1793 13.8177 1.23957C11.6933 2.07157 10.3295 1.87998 9.52496 1.54424C9.11611 1.37363 8.83259 1.15808 8.6546 0.990774C8.56549 0.907014 8.50298 0.83547 8.4648 0.788076C8.44574 0.764408 8.43283 0.746872 8.42579 0.73699L8.4197 0.728246ZM8 14.2716C8.02518 14.2626 8.05329 14.2524 8.08414 14.241C8.2394 14.1834 8.46365 14.0953 8.73381 13.9748C9.27555 13.7332 9.99458 13.3645 10.7103 12.8557C12.1526 11.8304 13.5 10.2995 13.5 8.15182V2.41419C11.5352 3.04487 10.1142 2.87371 9.13984 2.46711C8.62557 2.25251 8.25215 1.9789 8 1.74755C7.74785 1.9789 7.37443 2.25251 6.86016 2.46711C5.88581 2.87371 4.46485 3.04487 2.5 2.41419V8.15182C2.5 10.2995 3.84735 11.8304 5.28969 12.8557C6.00542 13.3645 6.72445 13.7332 7.26619 13.9748C7.53635 14.0953 7.7606 14.1834 7.91586 14.241C7.94671 14.2524 7.97482 14.2626 8 14.2716Z" fill="#1F1E1E"/>
<path fill-rule="evenodd" clip-rule="evenodd" d="M11.7035 4.90272C11.9229 5.0704 11.9648 5.3842 11.7972 5.6036L7.94753 10.6407C7.86346 10.7507 7.73755 10.8209 7.59978 10.8346C7.46201 10.8484 7.32473 10.8043 7.22063 10.7131L4.87031 8.65228C4.66268 8.47023 4.64195 8.15433 4.824 7.94669C5.00605 7.73906 5.32196 7.71833 5.52959 7.90038L7.47776 9.60855L11.0026 4.99638C11.1703 4.77697 11.4841 4.73504 11.7035 4.90272Z" fill="#1F1E1E"/>
</svg>
