<svg width="16" height="16" viewBox="0 0 16 16" fill="none" xmlns="http://www.w3.org/2000/svg">
<path fill-rule="evenodd" clip-rule="evenodd" d="M7.86357 4C4.49889 4 2.53122 6.21859 1.72811 7.39791L1.71876 7.41118C1.42766 7.81014 1.42708 8.22855 1.71702 8.62758C2.61602 9.82701 4.58467 12 7.86357 12C11.2531 12 13.5522 9.79245 14.3349 8.64324C14.5532 8.32267 14.555 7.81227 14.3405 7.48845C13.444 6.29534 11.2258 4 7.86357 4ZM0.90595 6.82861C1.78504 5.54014 4.01426 3 7.86357 3C11.7124 3 14.1928 5.6234 15.1483 6.89889C15.1528 6.9049 15.1572 6.91102 15.1614 6.91722C15.6129 7.58018 15.6129 8.54316 15.1614 9.20611C14.2648 10.5226 11.6944 13 7.86357 13C4.09244 13 1.86367 10.4913 0.91467 9.22445L0.910898 9.21941C0.364657 8.47077 0.363029 7.57813 0.90595 6.82861Z" fill="#1F1E1E"/>
<path fill-rule="evenodd" clip-rule="evenodd" d="M8 6.25C7.0335 6.25 6.25 7.0335 6.25 8C6.25 8.9665 7.0335 9.75 8 9.75C8.9665 9.75 9.75 8.9665 9.75 8C9.75 7.0335 8.9665 6.25 8 6.25ZM5.25 8C5.25 6.48122 6.48122 5.25 8 5.25C9.51878 5.25 10.75 6.48122 10.75 8C10.75 9.51878 9.51878 10.75 8 10.75C6.48122 10.75 5.25 9.51878 5.25 8Z" fill="#1F1E1E"/>
</svg>
