<svg width="24" height="24" viewBox="0 0 24 24" fill="none" xmlns="http://www.w3.org/2000/svg">
<path fill-rule="evenodd" clip-rule="evenodd" d="M15.0689 9.44512C14.419 9.44512 13.8431 9.02668 13.6423 8.40865L12 3.35417L10.3577 8.40865C10.1569 9.02668 9.58096 9.44512 8.93112 9.44512L3.61653 9.44512L7.91612 12.569C8.44185 12.9509 8.66184 13.628 8.46103 14.246L6.81873 19.3005L11.1183 16.1767C11.6441 15.7947 12.3559 15.7947 12.8817 16.1767L17.1813 19.3005L15.539 14.246C15.3382 13.628 15.5582 12.9509 16.0839 12.569L20.3835 9.44512L15.0689 9.44512ZM13.1413 2.01253C12.782 0.906957 11.218 0.906956 10.8587 2.01253L8.93112 7.94512L2.69322 7.94512C1.53075 7.94512 1.04742 9.43266 1.98788 10.1159L7.03444 13.7825L5.10683 19.7151C4.74761 20.8207 6.01298 21.74 6.95344 21.0567L12 17.3902L17.0466 21.0567C17.987 21.74 19.2524 20.8207 18.8932 19.7151L16.9656 13.7825L22.0121 10.1159C22.9526 9.43266 22.4693 7.94512 21.3068 7.94512L15.0689 7.94512L13.1413 2.01253Z" fill="#1F1E1E"/>
</svg>
