<svg width="16" height="16" viewBox="0 0 16 16" fill="none" xmlns="http://www.w3.org/2000/svg">
<path d="M14.3997 7.8C14.3997 8.35228 13.952 8.8 13.3997 8.8H12.1996V1.3H13.3997C13.952 1.3 14.3997 1.74772 14.3997 2.3V7.8Z" fill="black"/>
<path d="M8.56597 14.1897C8.48103 14.5012 8.12759 14.6517 7.84417 14.4971L7.37044 14.2387C6.66141 13.852 6.25458 13.0767 6.33912 12.2735L6.5995 9.8H3.55727C2.63485 9.8 1.93099 8.97533 2.07589 8.06436L3.06551 1.84291C3.14274 1.35737 3.5609 1 4.05254 1C5.19382 1 7.17007 1 7.99957 1C9.19957 1 10.9996 2.3 10.9996 2.3C10.9996 3.10208 10.9996 8.8 10.9996 8.8L9.89956 9.3L8.56597 14.1897Z" fill="black"/>
</svg>
