<svg width="24" height="24" viewBox="0 0 24 24" fill="none" xmlns="http://www.w3.org/2000/svg">
<path d="M20.5 11.5C20.5 12.3284 19.8284 13 19 13H17.3V3H19C19.8284 3 20.5 3.67157 20.5 4.5V11.5Z" fill="black"/>
<path d="M12.0482 20.745C12.0193 20.8952 11.8889 21 11.736 21L-nan -nanL11.736 21C10.2601 21 9.09666 19.7436 9.20985 18.2721L9.50001 14.5H5.37785C4.13627 14.5 3.19469 13.3805 3.40743 12.1573L4.85589 3.82866C4.93919 3.34967 5.35331 3 5.83948 3C7.32334 3 10.4033 3 12 3C14.1523 3 16 4.5 16 4.5V13C16 13 16.1378 13 14.8 13C13.6053 13 12.3114 19.3803 12.0482 20.745Z" fill="black"/>
</svg>
