<svg width="16" height="16" viewBox="0 0 16 16" fill="none" xmlns="http://www.w3.org/2000/svg">
<path d="M8.35536 1.30303C8.07194 1.14844 7.7185 1.29896 7.63355 1.61042L6.29997 6.50011L5.19997 7.00011L5.19996 13.5001C5.19996 13.5001 6.99996 14.8001 8.19996 14.8001H12.147C12.6386 14.8001 13.0568 14.4427 13.134 13.9572L14.1236 7.73575C14.2685 6.82478 13.5647 6.00011 12.6423 6.00011H9.60003L9.8604 3.52659C9.94495 2.72339 9.53811 1.94816 8.82909 1.56142L8.35536 1.30303Z" fill="#1F1E1E"/>
<path d="M2.7998 7C2.24752 7 1.7998 7.44772 1.7998 8V13.5C1.7998 14.0523 2.24752 14.5 2.7998 14.5H3.99988V7H2.7998Z" fill="#1F1E1E"/>
</svg>
