<svg width="16" height="16" viewBox="0 0 16 16" fill="none" xmlns="http://www.w3.org/2000/svg">
<path fill-rule="evenodd" clip-rule="evenodd" d="M8 3.50008C5.10051 3.50008 2.75 5.85059 2.75 8.75008C2.75 11.6496 5.10051 14.0001 8 14.0001C10.8995 14.0001 13.25 11.6496 13.25 8.75008C13.25 5.85059 10.8995 3.50008 8 3.50008ZM1.75 8.75008C1.75 5.2983 4.54822 2.50008 8 2.50008C11.4518 2.50008 14.25 5.2983 14.25 8.75008C14.25 12.2019 11.4518 15.0001 8 15.0001C4.54822 15.0001 1.75 12.2019 1.75 8.75008Z" fill="black"/>
<path fill-rule="evenodd" clip-rule="evenodd" d="M10.8136 1.52625C10.7991 1.25049 11.0109 1.01522 11.2867 1.00077C13.0332 0.909239 14.5232 2.25086 14.6148 3.99737C14.6292 4.27313 14.4174 4.5084 14.1416 4.52285C13.8658 4.5373 13.6306 4.32547 13.6161 4.0497C13.5535 2.85472 12.534 1.93677 11.339 1.9994C11.0633 2.01385 10.828 1.80202 10.8136 1.52625Z" fill="black"/>
<path fill-rule="evenodd" clip-rule="evenodd" d="M5.22845 1.54366C5.25251 1.26857 5.04902 1.02605 4.77393 1.00199C3.03168 0.84956 1.49574 2.13836 1.34332 3.88061C1.31925 4.1557 1.52275 4.39822 1.79784 4.42229C2.07293 4.44635 2.31544 4.24286 2.33951 3.96777C2.4438 2.7757 3.49471 1.89389 4.68677 1.99818C4.96186 2.02225 5.20438 1.81875 5.22845 1.54366Z" fill="black"/>
<path d="M8.5 8.26009V5.50006C8.5 5.22392 8.27614 5.00006 8 5.00006C7.72386 5.00006 7.5 5.22392 7.5 5.50006V8.75008L7.50003 8.75509L7.5 8.76009C7.5 9.03624 7.72386 9.26009 8 9.26009H10.6667C10.9428 9.26009 11.1667 9.03624 11.1667 8.76009C11.1667 8.48395 10.9428 8.26009 10.6667 8.26009H8.5Z" fill="black"/>
</svg>
