<svg width="24" height="24" viewBox="0 0 24 24" fill="none" xmlns="http://www.w3.org/2000/svg">
<path fill-rule="evenodd" clip-rule="evenodd" d="M12.1246 4.11021C7.39159 4.11021 3.55473 7.94707 3.55473 12.6801C3.55473 17.4131 7.39159 21.2499 12.1246 21.2499C16.8576 21.2499 20.6945 17.4131 20.6945 12.6801C20.6945 7.94707 16.8576 4.11021 12.1246 4.11021ZM2.05473 12.6801C2.05473 7.11864 6.56316 2.61021 12.1246 2.61021C17.686 2.61021 22.1945 7.11864 22.1945 12.6801C22.1945 18.2415 17.686 22.7499 12.1246 22.7499C6.56316 22.7499 2.05473 18.2415 2.05473 12.6801Z" fill="black"/>
<path fill-rule="evenodd" clip-rule="evenodd" d="M16.8241 2.33982C16.8024 1.92618 17.1202 1.57328 17.5338 1.5516C20.3664 1.40315 22.7829 3.57905 22.9314 6.41159C22.9531 6.82524 22.6353 7.17814 22.2217 7.19982C21.808 7.2215 21.4551 6.90374 21.4334 6.4901C21.3283 4.48484 19.6176 2.94445 17.6123 3.04954C17.1987 3.07122 16.8458 2.75347 16.8241 2.33982Z" fill="black"/>
<path fill-rule="evenodd" clip-rule="evenodd" d="M7.49423 2.4476C7.53034 2.03496 7.22509 1.67119 6.81246 1.63508C3.98681 1.38787 1.49577 3.4781 1.24856 6.30375C1.21246 6.71638 1.5177 7.08016 1.93034 7.11626C2.34298 7.15236 2.70675 6.84712 2.74285 6.43448C2.91786 4.43411 4.68135 2.95437 6.68172 3.12938C7.09436 3.16548 7.45813 2.86023 7.49423 2.4476Z" fill="black"/>
<path d="M12.8745 12.7524V8.02012C12.8745 7.60591 12.5387 7.27012 12.1245 7.27012C11.7103 7.27012 11.3745 7.60591 11.3745 8.02012V13.5024C11.3745 13.9166 11.7103 14.2524 12.1245 14.2524H16.5103C16.9245 14.2524 17.2603 13.9166 17.2603 13.5024C17.2603 13.0882 16.9245 12.7524 16.5103 12.7524H12.8745Z" fill="black"/>
</svg>
