<svg width="32" height="32" viewBox="0 0 32 32" fill="none" xmlns="http://www.w3.org/2000/svg">
<path d="M24.074 15.5581C23.8548 15.4115 23.597 15.3333 23.3333 15.3333C22.9796 15.3333 22.6405 15.4738 22.3904 15.7239C22.1404 15.9739 21.9999 16.3131 21.9999 16.6667C21.9999 16.9304 22.0781 17.1882 22.2246 17.4074C22.3711 17.6267 22.5794 17.7976 22.823 17.8985C23.0666 17.9994 23.3347 18.0258 23.5934 17.9744C23.852 17.923 24.0896 17.796 24.2761 17.6095C24.4625 17.423 24.5895 17.1854 24.641 16.9268C24.6924 16.6682 24.666 16.4001 24.5651 16.1564C24.4642 15.9128 24.2933 15.7046 24.074 15.5581Z" fill="black"/>
<path d="M23.3333 20.6667C23.597 20.6667 23.8548 20.7449 24.074 20.8914C24.2933 21.0379 24.4642 21.2461 24.5651 21.4898C24.666 21.7334 24.6924 22.0015 24.641 22.2601C24.5895 22.5188 24.4625 22.7564 24.2761 22.9428C24.0896 23.1293 23.852 23.2563 23.5934 23.3077C23.3347 23.3592 23.0666 23.3328 22.823 23.2319C22.5794 23.1309 22.3711 22.96 22.2246 22.7408C22.0781 22.5215 21.9999 22.2637 21.9999 22C21.9999 21.6464 22.1404 21.3073 22.3904 21.0572C22.6405 20.8072 22.9796 20.6667 23.3333 20.6667Z" fill="black"/>
<path fill-rule="evenodd" clip-rule="evenodd" d="M6.34042 9.6665V7.61705C6.34042 7.5141 6.33962 7.45119 5.76477 7.01394L5.73173 6.98885C5.26635 6.63564 4.3999 5.97804 4.3999 4.71736C4.3999 3.85276 4.58346 3.02218 5.15554 2.41417C5.74035 1.79264 6.54363 1.6001 7.33564 1.6001H20.8858C21.674 1.6001 22.5308 1.78856 23.2185 2.29325C23.9462 2.82734 24.3999 3.658 24.3999 4.71736C24.3999 5.93167 23.6638 6.58094 23.2383 6.95618L23.2251 6.96787C22.7591 7.37903 22.727 7.45025 22.727 7.61705V9.6665H25.3333C26.3057 9.6665 27.2383 10.0528 27.926 10.7404C28.6136 11.4281 28.9999 12.3607 28.9999 13.3332V15.6667H30.6666C31.2189 15.6667 31.6666 16.1144 31.6666 16.6667C31.6666 17.219 31.2189 17.6667 30.6666 17.6667H28.9999V26.6663C28.9999 27.6388 28.6136 28.5714 27.926 29.2591C27.2383 29.9467 26.3057 30.333 25.3333 30.333H3.99992C3.02746 30.333 2.09483 29.9467 1.40719 29.2591C0.719561 28.5714 0.333252 27.6388 0.333252 26.6663V13.3332C0.333252 12.3607 0.719561 11.4281 1.40719 10.7404C2.09483 10.0528 3.02746 9.6665 3.99992 9.6665H6.34042ZM6.3999 4.71736C6.3999 4.09051 6.53897 3.86246 6.61213 3.7847C6.67257 3.72046 6.83716 3.6001 7.33564 3.6001H20.8858C21.3882 3.6001 21.7884 3.72454 22.0351 3.90562C22.2418 4.0573 22.3999 4.28527 22.3999 4.71736C22.3999 4.98178 22.3151 5.10358 21.9019 5.46817C21.8817 5.48592 21.8603 5.50458 21.8378 5.52419C21.4464 5.86541 20.727 6.49251 20.727 7.61705V9.6665H8.34042V7.61705C8.34042 6.4417 7.48739 5.80467 7.05531 5.48199C7.02677 5.46068 7.00006 5.44073 6.97556 5.4221C6.46131 5.03095 6.3999 4.91764 6.3999 4.71736ZM26.9999 13.3332C26.9999 12.8911 26.8243 12.4672 26.5118 12.1547C26.1992 11.8421 25.7753 11.6665 25.3333 11.6665H3.99992C3.55789 11.6665 3.13397 11.8421 2.82141 12.1547C2.50885 12.4672 2.33325 12.8911 2.33325 13.3332V24.333H26.9999V13.3332ZM2.33325 26.6663V26.3332H26.9999V26.6663C26.9999 27.1084 26.8243 27.5323 26.5118 27.8449C26.1992 28.1574 25.7753 28.333 25.3333 28.333H3.99992C3.55789 28.333 3.13397 28.1574 2.82141 27.8449C2.50885 27.5323 2.33325 27.1084 2.33325 26.6663Z" fill="black"/>
</svg>
