<svg width="24" height="24" viewBox="0 0 24 24" fill="none" xmlns="http://www.w3.org/2000/svg">
<path d="M18.0556 11.6685C17.8911 11.5586 17.6978 11.5 17.5 11.5C17.2348 11.5 16.9804 11.6054 16.7929 11.7929C16.6054 11.9804 16.5 12.2348 16.5 12.5C16.5 12.6978 16.5587 12.8911 16.6685 13.0556C16.7784 13.22 16.9346 13.3482 17.1173 13.4239C17.3 13.4996 17.5011 13.5194 17.6951 13.4808C17.8891 13.4422 18.0673 13.347 18.2071 13.2071C18.347 13.0673 18.4422 12.8891 18.4808 12.6951C18.5194 12.5011 18.4996 12.3 18.4239 12.1173C18.3482 11.9346 18.22 11.7784 18.0556 11.6685Z" fill="black"/>
<path d="M17.5 15.5C17.6978 15.5 17.8911 15.5587 18.0556 15.6685C18.22 15.7784 18.3482 15.9346 18.4239 16.1173C18.4996 16.3 18.5194 16.5011 18.4808 16.6951C18.4422 16.8891 18.347 17.0673 18.2071 17.2071C18.0673 17.347 17.8891 17.4422 17.6951 17.4808C17.5011 17.5194 17.3 17.4996 17.1173 17.4239C16.9346 17.3482 16.7784 17.22 16.6685 17.0556C16.5587 16.8911 16.5 16.6978 16.5 16.5C16.5 16.2348 16.6054 15.9804 16.7929 15.7929C16.9804 15.6054 17.2348 15.5 17.5 15.5Z" fill="black"/>
<path fill-rule="evenodd" clip-rule="evenodd" d="M4.7 7.25V5.7L4.7 5.69666C4.70014 5.63402 4.70023 5.58745 4.27472 5.26801L4.24856 5.2484C3.90268 4.9894 3.25 4.50065 3.25 3.56148C3.25 2.92023 3.3882 2.3024 3.81876 1.85075C4.25694 1.39111 4.85674 1.25 5.44643 1.25H15.5714C16.1589 1.25 16.7983 1.38854 17.3123 1.76087C17.8571 2.15548 18.2 2.77221 18.2 3.56148C18.2 4.4657 17.6453 4.94851 17.3288 5.22399L17.3175 5.23381C16.9668 5.53924 16.95 5.58751 16.95 5.7V7.25H19C19.7293 7.25 20.4288 7.53973 20.9445 8.05546C21.4603 8.57118 21.75 9.27065 21.75 10V11.75H23C23.4142 11.75 23.75 12.0858 23.75 12.5C23.75 12.9142 23.4142 13.25 23 13.25H21.75V20C21.75 20.7293 21.4603 21.4288 20.9445 21.9445C20.4288 22.4603 19.7293 22.75 19 22.75H3C2.27065 22.75 1.57118 22.4603 1.05546 21.9445C0.539732 21.4288 0.25 20.7293 0.25 20V10C0.25 9.27065 0.539732 8.57118 1.05546 8.05546C1.57118 7.53973 2.27065 7.25 3 7.25H4.7ZM4.75 3.56148C4.75 3.10279 4.85287 2.93988 4.90446 2.88577C4.94842 2.83966 5.07183 2.75 5.44643 2.75H15.5714C15.9483 2.75 16.2482 2.84223 16.4324 2.97566C16.5858 3.0868 16.7 3.25081 16.7 3.56148C16.7 3.74635 16.6431 3.83213 16.3325 4.10262L16.2841 4.14435C15.9929 4.39477 15.45 4.86151 15.45 5.7V7.25H6.2V5.7C6.2 4.82321 5.55644 4.34935 5.23525 4.11285C5.21378 4.09704 5.19358 4.08216 5.17528 4.06843C4.78819 3.77782 4.75 3.698 4.75 3.56148ZM20.25 10C20.25 9.66848 20.1183 9.35054 19.8839 9.11612C19.6495 8.8817 19.3315 8.75 19 8.75H3C2.66848 8.75 2.35054 8.8817 2.11612 9.11612C1.8817 9.35054 1.75 9.66848 1.75 10V18.25H20.25V10ZM1.75 19.75H20.25V20C20.25 20.3315 20.1183 20.6495 19.8839 20.8839C19.6495 21.1183 19.3315 21.25 19 21.25H3C2.66848 21.25 2.35054 21.1183 2.11612 20.8839C1.8817 20.6495 1.75 20.3315 1.75 20V19.75Z" fill="black"/>
</svg>
