<svg width="24" height="24" viewBox="0 0 24 24" fill="none" xmlns="http://www.w3.org/2000/svg">
<g clip-path="url(#clip0_608_1132)">
<path fill-rule="evenodd" clip-rule="evenodd" d="M8.68177 7.73515L11.3089 7.03121C12.0134 6.84244 12.6141 6.38154 12.9788 5.74991L15.2932 1.74115C15.5003 1.38243 15.3774 0.923741 15.0187 0.716634C13.3549 -0.243974 11.2273 0.326094 10.2667 1.98992L0.71639 18.5316C-0.135823 20.0077 0.216686 21.8487 1.46884 22.9161C2.55794 23.8467 4.15723 24.0403 5.4685 23.2833L22.0102 13.7329C23.674 12.7723 24.2441 10.6448 23.2835 8.98096C23.184 8.8087 23.0202 8.683 22.8281 8.63151C22.6359 8.58003 22.4312 8.60698 22.259 8.70644L18.2502 11.0209C17.6186 11.3856 17.1577 11.9862 16.9689 12.6907L16.265 15.3179L9.71383 19.1002L5.91689 18.0828L4.89958 14.2861L8.68177 7.73515ZM3.83892 16.1232L2.01543 19.2816C1.6493 19.9158 1.6741 20.6683 2.01505 21.2603C2.1592 21.51 2.35007 21.716 2.56958 21.8745L2.59045 21.8894C2.63146 21.9181 2.67385 21.9456 2.71761 21.9716L2.73967 21.9845C2.78596 22.0112 2.83323 22.0359 2.88134 22.0587L4.62164 19.0444L3.83892 16.1232ZM4.62796 22.0335C4.65838 22.0179 4.68858 22.0015 4.7185 21.9842L7.87671 20.1608L5.99952 19.6578L4.62796 22.0335ZM13.5456 1.76805C12.7736 1.66352 11.9794 2.02342 11.5658 2.73992L9.74243 5.89803L10.9207 5.58232C11.2409 5.49651 11.514 5.28701 11.6797 4.99991L13.5456 1.76805ZM18.1021 14.2572L21.2602 12.4339C21.9767 12.0202 22.3366 11.2261 22.2321 10.454L19.0002 12.3199C18.7131 12.4857 18.5036 12.7587 18.4178 13.0789L18.1021 14.2572Z" fill="black"/>
</g>
<defs>
<clipPath id="clip0_608_1132">
<rect width="24" height="24" fill="white"/>
</clipPath>
</defs>
</svg>
