<svg width="32" height="32" viewBox="0 0 32 32" fill="none" xmlns="http://www.w3.org/2000/svg">
<g clip-path="url(#clip0_608_1131)">
<path fill-rule="evenodd" clip-rule="evenodd" d="M11.5757 10.3132L15.0786 9.37462C16.0179 9.12292 16.8188 8.5084 17.305 7.66622L20.3909 2.32121C20.6671 1.84292 20.5032 1.23133 20.0249 0.955187C17.8065 -0.325624 14.9698 0.434466 13.689 2.6529L0.955187 24.7085C-0.114939 26.562 0.239629 28.8471 1.67912 30.2957C3.12636 31.7562 5.42724 32.1212 7.2915 31.0448L29.3471 18.311C31.5655 17.0302 32.3256 14.1935 31.0448 11.9751C30.9122 11.7454 30.6938 11.5778 30.4376 11.5092C30.1814 11.4405 29.9085 11.4765 29.6788 11.6091L24.3338 14.695C23.4916 15.1812 22.8771 15.9821 22.6254 16.9214L21.6868 20.4243L12.9519 25.4674L7.88899 24.1108L6.53249 19.0483L11.5757 10.3132ZM5.11827 21.4978L2.68724 25.7085C2.19893 26.5543 2.23215 27.558 2.68713 28.3474C2.80163 28.5457 2.93846 28.7233 3.09187 28.8793C3.25474 29.0445 3.44226 29.1908 3.6529 29.3124C3.71457 29.3479 3.77755 29.3809 3.84165 29.4112L6.16186 25.3925L5.11827 21.4978ZM6.16968 29.379C6.21062 29.3581 6.25124 29.336 6.2915 29.3128L10.5024 26.8816L7.99882 26.2108L6.16968 29.379ZM18.0608 2.35708C17.0314 2.2177 15.9726 2.69757 15.421 3.6529L12.9899 7.86372L14.5609 7.44276C14.9879 7.32836 15.3519 7.04903 15.573 6.66622L18.0608 2.35708ZM24.1363 19.0101L28.3471 16.579C29.3024 16.0274 29.7823 14.9686 29.6429 13.9392L25.3338 16.4271C24.951 16.6481 24.6716 17.0121 24.5572 17.4391L24.1363 19.0101Z" fill="black"/>
</g>
<defs>
<clipPath id="clip0_608_1131">
<rect width="32" height="32" fill="white"/>
</clipPath>
</defs>
</svg>
