<svg width="32" height="32" viewBox="0 0 32 32" fill="none" xmlns="http://www.w3.org/2000/svg">
<g clip-path="url(#clip0_601_488)">
<path d="M20.5819 11.127C20.1548 11.5934 20.3104 12.1705 20.6916 12.5903C20.9422 12.8661 21.1401 13.2124 21.2041 13.5817C21.2511 13.8528 21.231 14.1804 21.012 14.5702C20.783 14.9778 20.3041 15.5086 19.3312 16.0931C18.8577 16.3775 18.7045 16.9919 18.989 17.4653C19.2734 17.9387 19.8877 18.0919 20.3611 17.8075C21.5304 17.105 22.3068 16.3488 22.7556 15.5498C23.2146 14.733 23.295 13.9346 23.1748 13.2403C23.0582 12.5673 22.7606 12.0287 22.5116 11.6722C22.1434 11.1449 21.2903 10.3533 20.5819 11.127Z" fill="black"/>
<path d="M18.3048 18.6267C18.3048 19.1037 17.9181 19.4904 17.4411 19.4904C16.9641 19.4904 16.5775 19.1037 16.5775 18.6267C16.5775 18.1498 16.9641 17.7631 17.4411 17.7631C17.9181 17.7631 18.3048 18.1498 18.3048 18.6267Z" fill="black"/>
<path fill-rule="evenodd" clip-rule="evenodd" d="M24.6303 0.947724C25.1632 1.0928 25.4776 1.64241 25.3325 2.17529C24.8591 3.914 24.0818 5.40926 23.432 6.46192C23.2165 6.81098 23.0133 7.11417 22.8371 7.36452C22.9678 7.48183 23.098 7.60508 23.2275 7.7344L28.603 1.98376C28.9802 1.5803 29.613 1.55897 30.0165 1.93611C30.4199 2.31326 30.4412 2.94607 30.0641 3.34952L24.5473 9.25125C24.5821 9.29718 24.6165 9.34348 24.6506 9.39013C25.0105 9.15549 25.4624 8.86958 25.9624 8.57331C27.1482 7.87069 28.742 7.02523 30.024 6.75898C30.5647 6.64667 31.0941 6.99398 31.2064 7.53473C31.3187 8.07547 30.9714 8.60488 30.4307 8.71719C29.5112 8.90816 28.1754 9.58678 26.9819 10.2939C26.4758 10.5938 26.0201 10.8836 25.6678 11.1146C25.9555 11.7417 26.1708 12.3973 26.2876 13.0594C26.5869 14.755 26.2391 16.5601 24.7258 17.9017C23.4938 18.994 20.3108 21.5281 16.502 24.141C12.7064 26.7448 8.21183 29.481 4.36345 30.9316C3.08678 31.4429 1.99768 30.5377 1.49535 29.7571C0.823219 28.7126 0.800146 27.5 1.2106 26.4917C1.55096 25.7878 1.90469 25.0903 2.26467 24.3963C2.93774 23.0985 3.90309 21.3005 5.07328 19.2973C7.40216 15.3106 10.5852 10.4363 13.9229 7.09862C15.0426 5.97891 16.8762 5.39942 18.4293 5.45155C19.3421 5.48219 20.2778 5.71898 21.2039 6.2101C21.3586 5.99015 21.5386 5.72164 21.7301 5.41131C22.3165 4.46149 22.9955 3.14566 23.4027 1.64991C23.5478 1.11703 24.0974 0.802644 24.6303 0.947724ZM23.5421 11.35C23.9235 12.0184 24.1976 12.7246 24.3181 13.407C24.5269 14.5901 24.2734 15.63 23.399 16.4052C22.2678 17.4081 19.2601 19.8088 15.6085 22.3281L11.9899 18.2664C11.6225 17.8541 10.9904 17.8176 10.578 18.185C10.1657 18.5524 10.1292 19.1845 10.4966 19.5968L13.9367 23.4582C13.4212 23.7995 12.8985 24.1386 12.3716 24.4725L10.8215 22.6383C10.465 22.2164 9.8341 22.1634 9.41227 22.5199C8.99044 22.8764 8.93746 23.5073 9.29394 23.9292L10.6504 25.5343C8.24249 26.9777 5.81561 28.248 3.64761 29.0641C3.47928 29.1301 3.24174 28.7751 3.17722 28.6748C2.88564 28.2217 2.84504 27.7058 3.07654 27.2271C3.21068 26.9512 3.54422 26.2732 4.04008 25.3171C4.7015 24.0418 5.65059 22.2741 6.80021 20.3061C8.10326 18.0755 9.6503 15.6115 11.3163 13.3221L12.571 14.6287C12.9535 15.027 13.5866 15.0398 13.9849 14.6573C14.3833 14.2747 14.3961 13.6417 14.0136 13.2434L12.5374 11.7062C12.9841 11.1382 13.4369 10.5886 13.8936 10.0648L17.5403 14.1761C17.9067 14.5893 18.5388 14.6272 18.9519 14.2607C19.3651 13.8942 19.403 13.2622 19.0365 12.849L15.2595 8.59077C16.0257 7.8182 17.2961 7.41464 18.3622 7.45042C20.1061 7.50896 21.3624 8.66041 22.4687 9.87616C22.8791 10.3363 23.1961 10.8435 23.5421 11.35Z" fill="black"/>
</g>
<defs>
<clipPath id="clip0_601_488">
<rect width="32" height="32" fill="white"/>
</clipPath>
</defs>
</svg>
