<svg width="24" height="24" viewBox="0 0 24 24" fill="none" xmlns="http://www.w3.org/2000/svg">
<g clip-path="url(#clip0_601_489)">
<path fill-rule="evenodd" clip-rule="evenodd" d="M16.4959 8.29863C16.1904 8.0189 15.716 8.03979 15.4363 8.34528C15.158 8.64914 15.1772 9.12013 15.478 9.40042L15.4828 9.40509C15.691 9.61261 15.8527 9.89642 15.9029 10.1864C15.9381 10.3896 15.9231 10.6354 15.7588 10.9277C15.5871 11.2334 15.2279 11.6315 14.4982 12.0699C14.1431 12.2832 14.0282 12.744 14.2415 13.099C14.4549 13.4541 14.9156 13.569 15.2707 13.3557C16.1476 12.8288 16.7299 12.2616 17.0666 11.6624C17.4107 11.0498 17.4711 10.451 17.3809 9.93031C17.2759 9.32403 16.9515 8.71795 16.4959 8.29863ZM16.4959 8.29863C16.4734 8.28301 16.477 8.2819 16.4959 8.29863V8.29863Z" fill="black"/>
<path d="M13.0807 14.6179C13.4384 14.6179 13.7284 14.3279 13.7284 13.9702C13.7284 13.6124 13.4384 13.3224 13.0807 13.3224C12.7229 13.3224 12.4329 13.6124 12.4329 13.9702C12.4329 14.3279 12.7229 14.6179 13.0807 14.6179Z" fill="black"/>
<path fill-rule="evenodd" clip-rule="evenodd" d="M18.9992 1.63153C19.108 1.23187 18.8722 0.819664 18.4726 0.710854C18.0729 0.602044 17.6607 0.83783 17.5519 1.2375C17.2465 2.3593 16.7372 3.34618 16.2974 4.05855C16.1538 4.29126 16.0188 4.49262 15.9028 4.65757C15.2082 4.28921 14.5064 4.11161 13.8218 4.08863C12.657 4.04953 11.2818 4.48415 10.442 5.32394C7.93875 7.82718 5.55144 11.4829 3.80478 14.4729C2.92714 15.9753 2.20313 17.3239 1.69832 18.2972C1.44583 18.784 1.24794 19.1774 1.11284 19.4498C0.645262 20.3926 0.516362 21.3777 1.12134 22.3178C1.49808 22.9033 2.31492 23.5821 3.27243 23.1987C6.15871 22.1107 9.52961 20.0586 12.3763 18.1057C15.2329 16.146 17.6202 14.2454 18.5442 13.4263C19.6792 12.4201 19.94 11.0662 19.7155 9.79451C19.6279 9.29797 19.4664 8.80633 19.2507 8.33602C19.4636 8.19643 19.7269 8.02819 20.0196 7.85045C20.8839 7.32578 21.8223 6.74576 22.8228 6.53795C23.2284 6.45372 23.4889 6.05667 23.4046 5.65111C23.3204 5.24555 22.9234 4.98506 22.5178 5.06929C21.5563 5.26898 20.361 5.90308 19.4716 6.43005C19.0966 6.65223 18.7577 6.86666 18.4878 7.04263C18.4623 7.00764 18.4364 6.97291 18.4103 6.93846L22.5479 2.5122C22.8308 2.20961 22.8148 1.73501 22.5122 1.45215C22.2096 1.16929 21.735 1.18528 21.4521 1.48788L17.4205 5.80082C17.3234 5.70382 17.2257 5.61138 17.1277 5.52339C17.2598 5.33565 17.4122 5.10827 17.5738 4.8465C18.0612 4.057 18.6442 2.93556 18.9992 1.63153ZM13.7715 5.58779C12.9719 5.56095 12.019 5.86363 11.4444 6.44309L14.2772 9.63681C14.5521 9.94669 14.5237 10.4207 14.2138 10.6956C13.9039 10.9704 13.4299 10.942 13.155 10.6322L10.4199 7.54861C10.0775 7.94149 9.73789 8.35364 9.40282 8.77966L10.51 9.93257C10.7969 10.2313 10.7873 10.7061 10.4885 10.993C10.1898 11.2799 9.71498 11.2703 9.42808 10.9715L8.48703 9.99162C7.23753 11.7086 6.07726 13.5566 5.09998 15.2296C4.23776 16.7055 3.52594 18.0313 3.02988 18.9878C2.78194 19.4658 2.58814 19.8512 2.45665 20.1163C2.39007 20.2505 2.32422 20.3851 2.25898 20.52C2.13049 20.7923 2.17473 21.1829 2.38273 21.5061C2.42411 21.5704 2.61208 21.8481 2.72578 21.8017C4.56479 21.1093 6.30539 20.1591 7.98758 19.1508L6.97027 17.9469C6.70291 17.6306 6.74265 17.1574 7.05902 16.89C7.3754 16.6226 7.84861 16.6624 8.11596 16.9788L9.27845 18.3544C9.67362 18.1039 10.0657 17.8496 10.4523 17.5937L7.87225 14.6977C7.59671 14.3884 7.62406 13.9143 7.93334 13.6388C8.24262 13.3632 8.7167 13.3906 8.99224 13.6999L11.7061 16.7461C14.4449 14.8566 16.7007 13.056 17.5491 12.3038C18.2049 11.7225 18.395 10.9426 18.2384 10.0552C17.8782 8.01451 15.9137 5.65969 13.7715 5.58779Z" fill="black"/>
</g>
<defs>
<clipPath id="clip0_601_489">
<rect width="24" height="24" fill="white"/>
</clipPath>
</defs>
</svg>
