<svg width="32" height="32" viewBox="0 0 32 32" fill="none" xmlns="http://www.w3.org/2000/svg">
<path d="M20.7534 8.18501C17.5703 6.77643 13.5811 6.5885 10.3027 8.22773C9.80869 8.47472 9.20801 8.27449 8.96102 7.78051C8.71403 7.28653 8.91426 6.68586 9.40824 6.43887C13.3061 4.48996 17.9284 4.74784 21.5627 6.35608C25.1734 7.95388 28.0785 11.0277 28.0785 14.9209C28.0785 15.4732 27.6308 15.9209 27.0785 15.9209C26.5262 15.9209 26.0785 15.4732 26.0785 14.9209C26.0785 12.1181 23.9601 9.60405 20.7534 8.18501Z" fill="black"/>
<path d="M8.25313 9.5333C8.25313 10.0856 7.80859 10.5333 7.26023 10.5333C6.71187 10.5333 6.26733 10.0856 6.26733 9.5333C6.26733 8.98101 6.71187 8.5333 7.26023 8.5333C7.80859 8.5333 8.25313 8.98101 8.25313 9.5333Z" fill="black"/>
<path fill-rule="evenodd" clip-rule="evenodd" d="M31 14.4697C31 12.336 30.197 9.14446 27.8804 6.47166C24.5 3.00005 20.9919 1.64209 15.8088 1.66784C10.0589 1.72516 6.32915 3.80026 4.04574 6.47772C1.76265 9.15481 1 12.3461 1 14.4697C1 16.823 1.49621 18.6702 2.32679 20.1068C3.15866 21.5456 4.29306 22.5154 5.47897 23.1623C7.36018 24.1884 9.38519 24.4077 10.6045 24.4542L10.4033 28.5522C10.3379 29.8842 11.4002 31 12.7338 31H18.1935C19.5064 31 20.5608 29.9171 20.526 28.6047L20.4158 24.457C21.6834 24.4173 23.9224 24.2145 26.0154 23.1892C27.3087 22.5557 28.5686 21.5979 29.5011 20.1572C30.4357 18.7134 31 16.8483 31 14.4697ZM10.1764 22.4262C9.12497 22.3456 7.72091 22.107 6.43666 21.4065C5.52552 20.9095 4.68101 20.1829 4.05823 19.1057C3.43417 18.0263 3 16.5381 3 14.4697C3 12.7491 3.6372 10.0389 5.5675 7.77551C7.45072 5.5673 10.6398 3.69541 15.9314 3.66695C21.224 3.69541 24.4505 5.56802 26.3691 7.78157C28.3345 10.0493 29 12.7593 29 14.4697C29 16.5217 28.5173 17.9966 27.8222 19.0705C27.1251 20.1474 26.1728 20.8851 25.1356 21.3931C24.0303 21.9346 22.8548 22.2033 21.8524 22.3365C22.017 22.101 22.3183 21.8489 22.8196 21.4293C24.0143 20.4293 24.8214 19.2418 24.8214 17.628C24.8214 15.2489 23.3702 13.6321 21.5474 13.5962C19.3569 13.5531 18.2341 15.7026 18.2341 17.6413L18.5267 28.6578C18.5317 28.8453 18.381 29 18.1935 29H12.7338C12.5433 29 12.3915 28.8406 12.4009 28.6503L12.9409 17.6526C12.9409 15.7152 11.8325 13.5529 9.63644 13.5962C7.81491 13.6322 6.37148 15.2527 6.37148 17.628C6.37148 18.6405 6.70218 19.4221 7.21251 20.0366C7.69222 20.6143 8.30813 21.0128 8.79266 21.3172C9.2663 21.6143 9.90423 21.9044 10.1764 22.4262ZM8.37148 17.628C8.37148 16.051 9.21276 15.605 9.67593 15.5958C10.6643 15.5763 10.937 16.8499 10.9408 17.6047L10.811 20.2494C10.4198 19.9612 10.0302 19.7508 9.77869 19.6275C8.92017 19.2347 8.37148 18.5778 8.37148 17.628ZM21.408 19.9986C21.0801 20.2634 20.6654 20.5984 20.3251 21.043L20.2341 17.6154C20.2362 16.8525 20.5116 15.5762 21.5081 15.5958C21.9789 15.6051 22.8214 16.0548 22.8214 17.628C22.8214 18.7011 22.1995 19.3592 21.408 19.9986Z" fill="black"/>
</svg>
