<svg width="24" height="24" viewBox="0 0 24 24" fill="none" xmlns="http://www.w3.org/2000/svg">
<g clip-path="url(#clip0_608_1129)">
<path fill-rule="evenodd" clip-rule="evenodd" d="M12.1 1.8696L10.0214 3.94819C9.21846 4.75342 8.67391 5.78002 8.45765 6.89645C8.24139 8.01292 8.36318 9.16853 8.80745 10.2154L8.808 10.2167C9.10877 10.9291 9.0171 11.5635 8.8461 12.0093C8.74453 12.2741 8.60001 12.5292 8.40708 12.7385C6.52905 14.7427 4.51238 16.6338 2.57012 18.5761C1.95967 19.1865 1.75 19.7967 1.75 20.3088C1.75 20.8309 1.96733 21.3164 2.32546 21.6746C2.68359 22.0327 3.16916 22.25 3.69121 22.25C4.20328 22.25 4.8135 22.0403 5.42394 21.4299L11.2433 15.6105C11.448 15.4063 11.7048 15.2569 11.9726 15.1515C12.4251 14.9735 13.0606 14.8876 13.7846 15.1933L13.7857 15.1938C14.8325 15.6377 15.988 15.7591 17.1042 15.5427C18.2205 15.3262 19.2468 14.7816 20.0518 13.9786L22.1304 11.9L21.5601 11.3296L21.1146 11.775L21.1117 11.778L21.1088 11.7809L20.1331 12.7565C19.116 13.7737 17.9719 14.2644 16.765 14.1593C15.5877 14.0568 14.4957 13.3991 13.527 12.4303L11.5697 10.4731C10.601 9.50431 9.94323 8.41228 9.84073 7.23503C9.73565 6.02809 10.2264 4.88403 11.2435 3.86688L12.6704 2.43997L12.1 1.8696ZM13.8131 3.41864C14.3146 2.91707 14.4899 2.13813 13.9352 1.58344L12.9566 0.604814C12.4906 0.13889 11.7094 0.13889 11.2435 0.604814L8.95932 2.88899C7.94549 3.90562 7.25807 5.20164 6.98503 6.6112C6.71203 8.02052 6.86571 9.47924 7.42637 10.8007C7.5542 11.104 7.51666 11.456 7.30973 11.7151L1.50946 17.5154C0.651966 18.3729 0.25 19.353 0.25 20.3088C0.25 21.2547 0.644306 22.1147 1.2648 22.7352C1.8853 23.3557 2.74533 23.75 3.69121 23.75C4.64707 23.75 5.62712 23.3481 6.48461 22.4906L12.296 16.6791C12.5471 16.4619 12.9047 16.4502 13.2008 16.575C14.5222 17.1352 15.9807 17.2885 17.3898 17.0152C18.7991 16.7419 20.0947 16.0544 21.1111 15.0406L23.3952 12.7565C23.8611 12.2906 23.8611 11.5094 23.3952 11.0434L22.4166 10.0648C21.8619 9.51013 21.083 9.68539 20.5814 10.187L13.8131 3.41864ZM12.7524 4.4793C12.5624 4.66928 12.3676 4.85535 12.1841 5.05168L18.9483 11.8159C19.1447 11.6324 19.3307 11.4376 19.5207 11.2476L12.7524 4.4793ZM17.6159 12.6048L11.3952 6.38416C11.3316 6.63178 11.3148 6.87219 11.3351 7.10493C11.3957 7.80108 11.8004 8.58246 12.6304 9.41241L14.5876 11.3697C15.4176 12.1996 16.1989 12.6043 16.8951 12.6649C17.1278 12.6852 17.3682 12.6685 17.6159 12.6048Z" fill="black"/>
</g>
<defs>
<clipPath id="clip0_608_1129">
<rect width="24" height="24" fill="white"/>
</clipPath>
</defs>
</svg>
