<svg width="32" height="32" viewBox="0 0 32 32" fill="none" xmlns="http://www.w3.org/2000/svg">
<g clip-path="url(#clip0_608_1128)">
<path fill-rule="evenodd" clip-rule="evenodd" d="M16.1333 2.49263L13.3618 5.26409C12.2913 6.33771 11.5651 7.7066 11.2768 9.19511C10.9884 10.6837 11.1508 12.2245 11.7432 13.6204L11.7439 13.6221C12.206 14.7167 12.0293 16.1034 11.2087 16.9853C8.7017 19.6549 6.01648 22.1782 3.42674 24.7679C2.61282 25.5819 2.33325 26.3955 2.33325 27.0783C2.33325 27.7743 2.62303 28.4217 3.10053 28.8993C3.57804 29.3768 4.22546 29.6665 4.92153 29.6665C5.6043 29.6665 6.41792 29.387 7.23185 28.573L14.991 20.8139L14.9918 20.8131L14.9934 20.8115C15.8681 19.9452 17.2713 19.7898 18.3794 20.2576L18.3809 20.2582C19.7766 20.8501 21.3172 21.012 22.8056 20.7234C24.2936 20.4348 25.6616 19.709 26.7349 18.6387L26.7356 18.638L29.5072 15.8665L28.7467 15.106L28.1528 15.6998L28.1489 15.7038L28.1449 15.7077L26.8441 17.0085C25.4879 18.3647 23.9625 19.019 22.3532 18.8789C20.7836 18.7422 19.3275 17.8653 18.0359 16.5736L15.4262 13.9639C14.1345 12.6722 13.2576 11.2162 13.1209 9.64654C12.9808 8.0373 13.6351 6.51188 14.9913 5.15568L16.8938 3.25314L16.1333 2.49263ZM18.4173 4.55802C19.0861 3.88927 19.3198 2.85068 18.5802 2.11109L17.2753 0.806256C16.6541 0.185024 15.6125 0.185024 14.9912 0.806256L11.9457 3.85183C10.5939 5.20733 9.67734 6.93536 9.31329 8.81477C8.9493 10.6939 9.15419 12.6388 9.90175 14.4008C10.0741 14.8098 10.0244 15.2718 9.74622 15.62L2.01253 23.3537C0.869207 24.497 0.333252 25.8038 0.333252 27.0783C0.333252 28.3394 0.858994 29.4861 1.68632 30.3135C2.51365 31.1408 3.66036 31.6665 4.92153 31.6665C6.19601 31.6665 7.50274 31.1306 8.64606 29.9873L16.3946 22.2387C16.7295 21.9489 17.2065 21.9334 17.6012 22.1C19.3631 22.8468 21.3077 23.0511 23.1863 22.6868C25.0653 22.3224 26.7929 21.4057 28.148 20.054L28.1489 20.0531L31.1935 17.0085C31.8148 16.3873 31.8148 15.3457 31.1935 14.7244L29.8887 13.4196C29.1491 12.68 28.1105 12.9137 27.4418 13.5824L18.4173 4.55802ZM17.0031 5.97224C16.7498 6.22555 16.49 6.47363 16.2454 6.73541L25.2644 15.7544C25.5261 15.5098 25.7742 15.25 26.0276 14.9967L17.0031 5.97224ZM23.4877 16.8062L15.1936 8.51206C14.7983 10.0492 15.8017 11.511 16.8404 12.5497L19.4501 15.1594C20.4888 16.1981 21.9506 17.2015 23.4877 16.8062Z" fill="black"/>
</g>
<defs>
<clipPath id="clip0_608_1128">
<rect width="32" height="32" fill="white"/>
</clipPath>
</defs>
</svg>
