<svg width="24" height="24" viewBox="0 0 24 24" fill="none" xmlns="http://www.w3.org/2000/svg">
<path d="M15.565 6.13882C13.1776 5.08238 10.1858 4.94144 7.72694 6.17086C7.35645 6.3561 6.90595 6.20593 6.72071 5.83545C6.53546 5.46497 6.68563 5.01446 7.05612 4.82922C9.97948 3.36754 13.4462 3.56094 16.172 4.76713C18.88 5.96547 21.0588 8.27082 21.0588 11.1907C21.0588 11.6049 20.723 11.9407 20.3088 11.9407C19.8946 11.9407 19.5588 11.6049 19.5588 11.1907C19.5588 9.08865 17.97 7.2031 15.565 6.13882Z" fill="black"/>
<path d="M6.18978 7.15004C6.18978 7.56425 5.85638 7.90004 5.44511 7.90004C5.03384 7.90004 4.70044 7.56425 4.70044 7.15004C4.70044 6.73582 5.03384 6.40004 5.44511 6.40004C5.85638 6.40004 6.18978 6.73582 6.18978 7.15004Z" fill="black"/>
<path fill-rule="evenodd" clip-rule="evenodd" d="M11.8566 1.25H12.0404C16.3531 1.29298 19.1733 2.84966 20.9103 4.85378C22.6477 6.85838 23.25 9.25201 23.25 10.8523C23.25 12.6363 22.8268 14.0351 22.1259 15.118C21.4265 16.1985 20.4815 16.9168 19.5116 17.3919C17.9417 18.1609 16.2625 18.313 15.3118 18.3428L15.3944 21.4536C15.4206 22.4379 14.6297 23.25 13.645 23.25H9.55029C8.55009 23.25 7.75334 22.4132 7.8024 21.4142L7.95332 18.3407C7.03883 18.3058 5.52011 18.1413 4.10923 17.3717C3.21979 16.8866 2.36899 16.1592 1.74509 15.0801C1.12216 14.0027 0.75 12.6172 0.75 10.8523C0.75 9.25963 1.32199 6.86614 3.03431 4.85832C4.74686 2.85023 7.54414 1.29299 11.8566 1.25ZM7.6322 16.8196C7.20018 15.9915 6.00116 15.7403 5.40932 15.0275C5.02658 14.5666 4.77855 13.9805 4.77855 13.2211C4.77855 11.4396 5.86112 10.2242 7.22727 10.1972C8.86471 10.1649 9.70562 11.7731 9.70562 13.2211V13.2395L9.30059 21.4878C9.29358 21.6305 9.4074 21.75 9.55029 21.75H13.645C13.7857 21.75 13.8987 21.634 13.895 21.4934L13.6755 13.231V13.2211C13.6755 11.7697 14.5218 10.165 16.1605 10.1972C17.5276 10.2241 18.616 11.4367 18.616 13.2211C18.616 13.9391 18.4301 14.5117 18.1335 14.9836C17.8653 15.4105 17.4981 15.751 17.1146 16.0721C16.7387 16.3867 16.5127 16.5758 16.3893 16.7524C17.141 16.6525 18.0227 16.451 18.8517 16.0449C19.6296 15.6638 20.3438 15.1106 20.8666 14.3029C21.388 13.4975 21.75 12.3913 21.75 10.8523C21.75 9.56951 21.2509 7.53699 19.7768 5.83621C18.3379 4.17605 15.918 2.77159 11.9485 2.75025C7.97988 2.77159 5.58804 4.17551 4.17562 5.83167C2.7279 7.52923 2.25 9.56189 2.25 10.8523C2.25 12.4036 2.57563 13.5198 3.04368 14.3293C3.51076 15.1372 4.14414 15.6822 4.82749 16.0549C5.79065 16.5802 6.84366 16.7592 7.6322 16.8196ZM7.25689 11.6969C6.90951 11.7038 6.27855 12.0383 6.27855 13.2211C6.27855 14.2849 7.37907 14.6499 8.10817 15.1871L8.20557 13.2036C8.20271 12.6375 7.99817 11.6823 7.25689 11.6969ZM15.2438 15.7823C15.499 15.4489 15.81 15.1976 16.056 14.999C16.3526 14.7594 16.6585 14.5117 16.8635 14.1855C17.0079 13.9557 17.116 13.6604 17.116 13.2211C17.116 12.0411 16.4841 11.7039 16.131 11.6969C15.3837 11.6822 15.1771 12.6395 15.1755 13.2116L15.2438 15.7823Z" fill="black"/>
</svg>
