<svg width="16" height="16" viewBox="0 0 16 16" fill="none" xmlns="http://www.w3.org/2000/svg">
<path fill-rule="evenodd" clip-rule="evenodd" d="M8.44634 3.00748C6.76268 3.01122 5.07838 3.01496 3.39398 3.01496C3.21188 3.01496 3 3.18291 3 3.48663C3 3.81885 3.23736 4 3.39398 4H15C15.2761 4 15.5 4.22386 15.5 4.5V6.46491C15.5 7.00115 15.3033 7.47881 15 7.85132V12.7C15 13.5284 14.3284 14.2 13.5 14.2H2.5C1.67157 14.2 1 13.5284 1 12.7V7.79807C0.704553 7.43453 0.5 6.97849 0.5 6.46429V4.5C0.5 4.22386 0.723858 4 1 4H2.08651C2.02999 3.83441 2 3.66002 2 3.48663C2 2.71071 2.58277 2.01496 3.39398 2.01496C5.07728 2.01496 6.76069 2.01122 8.44474 2.00748L8.44588 2.00748C10.1301 2.00374 11.815 2 13.5 2C13.7761 2 14 2.22386 14 2.5C14 2.77614 13.7761 3 13.5 3C11.8163 3 10.1325 3.00373 8.4481 3.00748L8.44634 3.00748ZM2 8.55826V12.7C2 12.9761 2.22386 13.2 2.5 13.2H13.5C13.7761 13.2 14 12.9761 14 12.7V8.5634C13.9716 8.57341 13.943 8.58274 13.9144 8.5914L8.15545 10.4752C8.05445 10.5083 7.94555 10.5083 7.84455 10.4752L2.07984 8.58951C2.07071 8.58652 2.06166 8.58327 2.05272 8.57976C2.0352 8.57289 2.01762 8.56572 2 8.55826ZM1.5 6.46429V5H14.5V6.46491C14.5 7.02624 14.0814 7.49788 13.6217 7.63498L8 9.47393L2.40556 7.64391C1.9317 7.45244 1.5 6.95449 1.5 6.46429Z" fill="black"/>
<path d="M8.89998 7.4C8.89998 7.89706 8.49703 8.3 7.99998 8.3C7.50292 8.3 7.09998 7.89706 7.09998 7.4C7.09998 6.90294 7.50292 6.5 7.99998 6.5C8.49703 6.5 8.89998 6.90294 8.89998 7.4Z" fill="black"/>
</svg>
