<svg width="24" height="24" viewBox="0 0 24 24" fill="none" xmlns="http://www.w3.org/2000/svg">
<path d="M12 12.9C12.6904 12.9 13.25 12.3404 13.25 11.65C13.25 10.9596 12.6904 10.4 12 10.4C11.3096 10.4 10.75 10.9596 10.75 11.65C10.75 12.3404 11.3096 12.9 12 12.9Z" fill="black"/>
<path fill-rule="evenodd" clip-rule="evenodd" d="M4.24112 4.28858C7.07835 4.28858 9.91544 4.28261 12.7516 4.27664L12.7545 4.27664C15.5918 4.27067 18.4283 4.2647 21.2646 4.26471C21.6789 4.26471 22.0146 3.92892 22.0146 3.51471C22.0146 3.1005 21.6789 2.76471 21.2646 2.76471C18.4265 2.7647 15.5884 2.77067 12.7513 2.77664L12.7492 2.77664C9.91253 2.78261 7.07676 2.78858 4.24112 2.78858C2.97004 2.78858 1.98523 3.83381 1.98523 5.08858C1.98523 5.35855 2.03021 5.61553 2.11293 5.85295H1.5C1.08579 5.85295 0.75 6.18873 0.75 6.60295V9.7458C0.75 10.3881 0.944772 10.9778 1.25 11.4836V19C1.25 20.2426 2.25736 21.25 3.5 21.25H20.5C21.7426 21.25 22.75 20.2426 22.75 19V11.5658C23.0613 11.0407 23.25 10.42 23.25 9.74681V6.60295C23.25 6.18873 22.9142 5.85295 22.5 5.85295H4.24304L4.24112 5.85294C3.81627 5.85294 3.48523 5.53302 3.48523 5.08858C3.48523 4.62112 3.83899 4.28858 4.24112 4.28858ZM20.8851 13.0971C21.0086 13.0573 21.1305 13.0088 21.25 12.9522V19C21.25 19.4142 20.9142 19.75 20.5 19.75H3.5C3.08579 19.75 2.75 19.4142 2.75 19V12.9263C2.85458 12.9836 2.95942 13.0342 3.06346 13.0777C3.07743 13.0835 3.09157 13.0889 3.10586 13.0939L11.7529 16.1111C11.9129 16.1669 12.0871 16.1669 12.2471 16.1111L20.8851 13.0971ZM2.25 7.35295V9.7458C2.25 10.5845 2.92981 11.3863 3.62332 11.6858L12 14.6086L20.4 11.6777L20.4197 11.6711C21.0885 11.4583 21.75 10.7014 21.75 9.74681V7.35295H2.25Z" fill="black"/>
</svg>
