<svg width="16" height="16" viewBox="0 0 16 16" fill="none" xmlns="http://www.w3.org/2000/svg">
<g clip-path="url(#clip0_451_57)">
<path fill-rule="evenodd" clip-rule="evenodd" d="M5.93062 1.67309C6.87313 0.0406119 9.22941 0.0406098 10.1719 1.67309L15.6734 11.2019C16.6159 12.8344 15.4378 14.875 13.5528 14.875H2.54979C0.664767 14.875 -0.513373 12.8344 0.429139 11.2019L5.93062 1.67309ZM7.25 11.687C7.25 12.1012 7.58579 12.437 8 12.437C8.41421 12.437 8.75 12.1012 8.75 11.687V11.1434C8.75 10.7292 8.41421 10.3934 8 10.3934C7.58579 10.3934 7.25 10.7292 7.25 11.1434V11.687ZM7.25 8.80002C7.25 9.21423 7.58579 9.55002 8 9.55002C8.41421 9.55002 8.75 9.21423 8.75 8.80002V5.09603C8.75 4.68182 8.41421 4.34603 8 4.34603C7.58579 4.34603 7.25 4.68182 7.25 5.09603V8.80002Z" fill="black"/>
</g>
<defs>
<clipPath id="clip0_451_57">
<rect width="16" height="16" fill="white"/>
</clipPath>
</defs>
</svg>
