<svg width="24" height="24" viewBox="0 0 24 24" fill="none" xmlns="http://www.w3.org/2000/svg">
<path fill-rule="evenodd" clip-rule="evenodd" d="M9.18542 2.875C10.4363 0.708333 13.5637 0.708334 14.8146 2.875L23.0418 17.125C24.2928 19.2917 22.7291 22 20.2272 22H3.77276C1.27091 22 -0.29275 19.2917 0.958176 17.125L9.18542 2.875ZM13.5155 3.625C12.842 2.45833 11.158 2.45833 10.4845 3.625L2.25721 17.875C1.58364 19.0417 2.42561 20.5 3.77276 20.5H20.2272C21.5744 20.5 22.4164 19.0417 21.7428 17.875L13.5155 3.625ZM12 6.75005C12.4142 6.75005 12.75 7.08584 12.75 7.50005V13.5C12.75 13.9142 12.4142 14.25 12 14.25C11.5858 14.25 11.25 13.9142 11.25 13.5V7.50005C11.25 7.08584 11.5858 6.75005 12 6.75005ZM12 15.65C12.4142 15.65 12.75 15.9858 12.75 16.4V17.2C12.75 17.6142 12.4142 17.95 12 17.95C11.5858 17.95 11.25 17.6142 11.25 17.2V16.4C11.25 15.9858 11.5858 15.65 12 15.65Z" fill="#1F1E1E"/>
</svg>
