<svg width="16" height="16" viewBox="0 0 16 16" fill="none" xmlns="http://www.w3.org/2000/svg">
<g clip-path="url(#clip0_451_57)">
<path fill-rule="evenodd" clip-rule="evenodd" d="M5.93062 1.67307C6.87313 0.0405966 9.22941 0.0405946 10.1719 1.67307L15.6734 11.2019C16.6159 12.8344 15.4378 14.875 13.5528 14.875H2.54979C0.664767 14.875 -0.513373 12.8344 0.429139 11.2019L5.93062 1.67307ZM7.25 11.687C7.25 12.1012 7.58579 12.437 8 12.437C8.41421 12.437 8.75 12.1012 8.75 11.687V11.1434C8.75 10.7292 8.41421 10.3934 8 10.3934C7.58579 10.3934 7.25 10.7292 7.25 11.1434V11.687ZM7.25 8.8C7.25 9.21421 7.58579 9.55 8 9.55C8.41421 9.55 8.75 9.21421 8.75 8.8V5.09602C8.75 4.68181 8.41421 4.34602 8 4.34602C7.58579 4.34602 7.25 4.68181 7.25 5.09602V8.8Z" fill="#1F1E1E"/>
</g>
<defs>
<clipPath id="clip0_451_57">
<rect width="16" height="16" fill="white"/>
</clipPath>
</defs>
</svg>
