<svg width="16" height="16" viewBox="0 0 16 16" fill="none" xmlns="http://www.w3.org/2000/svg">
<g clip-path="url(#clip0_451_55)">
<path fill-rule="evenodd" clip-rule="evenodd" d="M5.93062 1.67307C6.87313 0.0405967 9.22941 0.0405945 10.1719 1.67307L15.6734 11.2019C16.6159 12.8344 15.4378 14.875 13.5528 14.875H2.54979C0.664767 14.875 -0.513373 12.8344 0.429139 11.2019L5.93062 1.67307ZM8.87289 2.42307C8.50772 1.7906 7.59482 1.7906 7.22966 2.42307L1.72818 11.9519C1.36302 12.5844 1.81947 13.375 2.54979 13.375H13.5528C14.2831 13.375 14.7395 12.5844 14.3744 11.9519L8.87289 2.42307ZM8 4.34602C8.41422 4.34602 8.75 4.6818 8.75 5.09602V8.8C8.75 9.21421 8.41422 9.55 8 9.55C7.58579 9.55 7.25 9.21421 7.25 8.8V5.09602C7.25 4.6818 7.58579 4.34602 8 4.34602ZM8 10.3934C8.41422 10.3934 8.75 10.7292 8.75 11.1434V11.687C8.75 12.1012 8.41422 12.437 8 12.437C7.58579 12.437 7.25 12.1012 7.25 11.687V11.1434C7.25 10.7292 7.58579 10.3934 8 10.3934Z" fill="#1F1E1E"/>
</g>
<defs>
<clipPath id="clip0_451_55">
<rect width="16" height="16" fill="white"/>
</clipPath>
</defs>
</svg>
