<svg width="32" height="32" viewBox="0 0 32 32" fill="none" xmlns="http://www.w3.org/2000/svg">
<g clip-path="url(#clip0_608_1125)">
<path fill-rule="evenodd" clip-rule="evenodd" d="M29.531 14.6317C31.894 12.2759 33.0696 7.38778 28.8806 3.19111L28.8594 3.16977L28.8368 3.14749C25.7112 0.0511534 20.6967 -0.815414 17.3711 2.50011C13.8202 6.0402 10.2359 11.3968 10.0035 16.6099C9.98495 17.027 9.99642 17.4416 10.0451 17.8454C10.025 17.8623 10.0054 17.8801 9.98645 17.8988L1.14874 26.6011C1.13474 26.6149 1.12115 26.6291 1.10798 26.6437C0.590708 27.2169 0.313473 27.9667 0.334351 28.7386C0.355229 29.5105 0.672584 30.2443 1.21999 30.7888C1.76731 31.3331 2.50278 31.6467 3.27439 31.6656C4.04601 31.6845 4.79597 31.4074 5.36938 30.8906C5.3848 30.8767 5.3998 30.8624 5.41433 30.8475L14.0895 21.9898C14.1073 21.9716 14.1243 21.9529 14.1404 21.9338C14.5463 21.9826 14.9629 21.9941 15.3821 21.9756C20.6028 21.7443 25.9731 18.1788 29.531 14.6317ZM12.0376 21.2265C11.7844 21.0669 11.5458 20.8787 11.3254 20.659C11.1048 20.439 10.9159 20.201 10.7557 19.9482L2.57657 28.002C2.41338 28.1919 2.32687 28.4351 2.33362 28.6846C2.34059 28.9421 2.44649 29.1878 2.63038 29.3707C2.81435 29.5537 3.06238 29.6598 3.32344 29.6662C3.57581 29.6724 3.82071 29.5849 4.01098 29.4221L12.0376 21.2265ZM18.7832 3.91647C15.5927 7.09721 12.2113 11.9941 12.0016 16.699C11.996 16.8243 11.994 16.9456 11.9954 17.0629C12.1624 16.7238 12.3445 16.3836 12.5375 16.0446C13.2711 14.7565 14.2029 13.4193 15.1853 12.1419C17.1499 9.58714 19.3642 7.21011 20.7299 5.84858C22.0435 4.53893 23.3835 3.40481 24.6571 2.78081C22.6754 2.04642 20.4672 2.23757 18.7832 3.91647ZM15.2936 19.9775C15.1714 19.9829 15.053 19.985 14.9385 19.9838C15.2738 19.8192 15.6104 19.6401 15.9458 19.4502C17.2376 18.719 18.5787 17.7901 19.86 16.8108C22.4225 14.8522 24.8067 12.6447 26.1724 11.2831C27.5063 9.95329 28.6591 8.59591 29.2789 7.30784C30.204 9.74177 29.3339 12.004 28.119 13.2153C24.9199 16.4046 20.0082 19.7687 15.2936 19.9775ZM27.4472 4.58618L27.4337 4.57276C27.2114 4.35626 26.9928 4.2709 26.7532 4.2555C26.4812 4.23803 26.1137 4.30846 25.632 4.53155C24.6522 4.98536 23.469 5.94196 22.1419 7.26494C20.8207 8.5822 18.6686 10.8931 16.7707 13.3611C15.8218 14.595 14.9483 15.8529 14.2754 17.0344C13.9987 17.5202 13.7623 17.9823 13.5697 18.4157C14.0061 18.2232 14.4714 17.9866 14.9606 17.7097C16.1458 17.0388 17.4077 16.1678 18.6455 15.2218C21.1211 13.3296 23.4391 11.184 24.7603 9.86677C26.0875 8.54361 27.0467 7.36426 27.5015 6.3882C27.7251 5.90846 27.7951 5.54349 27.7777 5.27443C27.7624 5.03792 27.6777 4.82106 27.4604 4.59933L27.4472 4.58618Z" fill="black"/>
</g>
<defs>
<clipPath id="clip0_608_1125">
<rect width="32" height="32" fill="white"/>
</clipPath>
</defs>
</svg>
