<svg width="24" height="24" viewBox="0 0 24 24" fill="none" xmlns="http://www.w3.org/2000/svg">
<g clip-path="url(#clip0_608_1126)">
<path fill-rule="evenodd" clip-rule="evenodd" d="M10.6055 16.4502C10.9099 16.4868 11.2224 16.4955 11.5368 16.4816C15.4523 16.3081 19.4801 13.634 22.1485 10.9736C23.9237 9.20382 24.8054 5.5283 21.6447 2.37723C19.3017 0.0413783 15.5288 -0.617646 13.0286 1.87496C10.3654 4.53003 7.67717 8.54746 7.5029 12.4573C7.48896 12.7701 7.49756 13.081 7.53403 13.3839C7.51893 13.3966 7.5042 13.41 7.4899 13.4241L0.861614 19.9508C0.851114 19.9612 0.84092 19.9718 0.831047 19.9828C0.443092 20.4126 0.235166 20.9751 0.250824 21.554C0.266482 22.1329 0.504499 22.6832 0.915054 23.0916C1.32554 23.4999 1.87714 23.735 2.45586 23.7492C3.03457 23.7634 3.59704 23.5556 4.02709 23.168C4.03866 23.1576 4.04991 23.1468 4.06081 23.1356L10.5672 16.4924C10.5806 16.4787 10.5933 16.4646 10.6055 16.4502ZM9.02844 15.9197C8.84563 15.8045 8.67302 15.6694 8.51292 15.5125C8.50621 15.5063 8.4996 15.4999 8.4931 15.4934C8.48733 15.4876 8.48167 15.4817 8.47612 15.4758C8.31844 15.316 8.18274 15.1436 8.06696 14.961L1.93249 21.0015C1.8101 21.1439 1.74522 21.3263 1.75028 21.5134C1.7555 21.7066 1.83493 21.8909 1.97284 22.0281C2.11082 22.1653 2.29685 22.2449 2.49264 22.2497C2.68192 22.2543 2.86559 22.1887 3.0083 22.0665L9.02844 15.9197ZM14.0876 2.93723C11.6948 5.32279 9.15869 8.99548 9.00141 12.5241C8.99722 12.6181 8.99571 12.7091 8.99681 12.797C9.12198 12.5429 9.25848 12.2878 9.40321 12.0337C9.95341 11.0676 10.6523 10.0647 11.389 9.10666C12.8625 7.1906 14.5232 5.40782 15.5475 4.38668C16.5329 3.40427 17.5381 2.55355 18.4934 2.08561C17.007 1.53468 15.3507 1.67797 14.0876 2.93723ZM11.9594 14.5879C11.7081 14.7302 11.4559 14.8644 11.2046 14.9877C11.2904 14.9886 11.379 14.9871 11.4704 14.983C15.0064 14.8264 18.6902 12.3033 21.0895 9.91135C22.0007 9.00289 22.6533 7.3062 21.9594 5.48074C21.4946 6.44691 20.6299 7.46508 19.6294 8.46259C18.6051 9.48375 16.8169 11.1394 14.8951 12.6083C13.9341 13.3428 12.9283 14.0395 11.9594 14.5879ZM19.2241 3.3989C18.4892 3.73927 17.6018 4.45671 16.6065 5.44895C15.6156 6.4369 14.0015 8.17005 12.5781 10.0211C11.8664 10.9465 11.2113 11.8899 10.7066 12.776C10.4991 13.1404 10.3218 13.487 10.1773 13.812C10.5046 13.6676 10.8536 13.4902 11.2205 13.2825C12.1094 12.7793 13.0559 12.1261 13.9842 11.4166C15.8409 9.99741 17.5794 8.38826 18.5703 7.40032C19.5657 6.40795 20.2851 5.52344 20.6262 4.79139C20.7938 4.43159 20.8464 4.15786 20.8333 3.95607C20.8216 3.77517 20.7558 3.60959 20.5855 3.43985C20.4152 3.27007 20.2483 3.20365 20.065 3.19187C19.861 3.17876 19.5853 3.23159 19.2241 3.3989Z" fill="black"/>
</g>
<defs>
<clipPath id="clip0_608_1126">
<rect width="24" height="24" fill="white"/>
</clipPath>
</defs>
</svg>
