<svg viewbox="0 0 16 16" width="16" height="16"><path d="M2.52992 10.25C2.52992 9.29998 3.30003 8.52987 4.25001 8.52987C5.19998 8.52987 5.97009 9.29998 5.97009 10.25C5.97009 11.1999 5.19998 11.97 4.25001 11.97C3.30003 11.97 2.52992 11.1999 2.52992 10.25ZM4.25001 9.47004C3.81927 9.47004 3.47009 9.81922 3.47009 10.25C3.47009 10.6807 3.81927 11.0299 4.25001 11.0299C4.68074 11.0299 5.02992 10.6807 5.02992 10.25C5.02992 9.81922 4.68074 9.47004 4.25001 9.47004ZM11.75 8.52987C10.8 8.52987 10.0299 9.29998 10.0299 10.25C10.0299 11.1999 10.8 11.97 11.75 11.97C12.7 11.97 13.4701 11.1999 13.4701 10.25C13.4701 9.29998 12.7 8.52987 11.75 8.52987ZM10.9701 10.25C10.9701 9.81922 11.3193 9.47004 11.75 9.47004C12.1807 9.47004 12.5299 9.81922 12.5299 10.25C12.5299 10.6807 12.1807 11.0299 11.75 11.0299C11.3193 11.0299 10.9701 10.6807 10.9701 10.25ZM2.61578 4.74598C2.81255 4.14022 3.37703 3.73008 4.01395 3.73008H11.8818C12.5187 3.73008 13.0832 4.14022 13.2799 4.74598L13.8187 6.40467C13.8933 6.37488 13.9747 6.3585 14.0598 6.3585H15C15.359 6.3585 15.65 6.64951 15.65 7.0085C15.65 7.36748 15.359 7.6585 15 7.6585H14.2845C14.7328 8.11775 15 8.8133 15 9.78277V13.6172C15 14.0488 14.9493 14.5437 14.6494 14.9267C14.3266 15.3391 13.8195 15.5001 13.2 15.5001C12.5524 15.5001 12.0104 15.2977 11.6501 14.8361C11.4036 14.5203 11.2781 14.127 11.2276 13.7001H4.87504C4.83021 14.1161 4.71904 14.5027 4.49492 14.816C4.15767 15.2874 3.6354 15.5001 3 15.5001C2.38996 15.5001 1.8727 15.3275 1.50832 14.9634C1.14496 14.6003 1 14.113 1 13.6171V9.78277C1 8.81538 1.24687 8.13219 1.66257 7.68039L1.66968 7.6585H1.00001C0.641021 7.6585 0.350006 7.36748 0.350006 7.0085C0.350006 6.64951 0.641021 6.3585 1.00001 6.3585H1.77273C1.87938 6.3585 1.98003 6.38418 2.06884 6.4297L2.61578 4.74598ZM4.01395 4.67025C3.78436 4.67025 3.58088 4.81809 3.50995 5.03645L2.89483 6.93008H13.0009L12.3858 5.03645C12.3148 4.81809 12.1114 4.67025 11.8818 4.67025H4.01395ZM14 9.78277C14 8.93837 13.7555 8.5192 13.5129 8.30361C13.2588 8.07778 12.9188 7.99668 12.5938 8.0003L12.5888 8.00036L11.2564 8.00159C10.4525 8.00228 9.37309 8.00312 8.27109 8.00368C6.0703 8.00479 3.77094 8.0048 3.40558 8.00028C3.09259 7.99641 2.75597 8.0524 2.50139 8.2604C2.26504 8.45351 2 8.86078 2 9.78277V13.6162C2 13.9231 2.08736 14.1283 2.21515 14.256C2.34193 14.3827 2.57467 14.5001 3 14.5001C3.39997 14.5001 3.57771 14.3794 3.68161 14.2342C3.8108 14.0536 3.9 13.7318 3.9 13.2001V12.7001H6.50001V11C6.50001 10.7238 6.72386 10.5 7.00001 10.5C7.27615 10.5 7.50001 10.7238 7.50001 11V12.7001H8.50001V11C8.50001 10.7238 8.72386 10.5 9.00001 10.5C9.27615 10.5 9.50001 10.7238 9.50001 11V12.7001H12.2V13.2001C12.2 13.7263 12.2993 14.0425 12.4385 14.2208C12.5577 14.3736 12.7657 14.5001 13.2 14.5001C13.6624 14.5001 13.8053 14.3828 13.862 14.3103C13.9417 14.2085 14 14.0119 14 13.6172V9.78277ZM8.59987 2.70012C8.59987 3.0315 8.33123 3.30014 7.99985 3.30014C7.66847 3.30014 7.39983 3.0315 7.39983 2.70012C7.39983 2.36874 7.66847 2.1001 7.99985 2.1001C8.33123 2.1001 8.59987 2.36874 8.59987 2.70012ZM7.3999 1.20012C7.3999 1.5315 7.13126 1.80014 6.79988 1.80014C6.4685 1.80014 6.19986 1.5315 6.19986 1.20012C6.19986 0.868736 6.4685 0.600098 6.79988 0.600098C7.13126 0.600098 7.3999 0.868736 7.3999 1.20012ZM9.79997 1.20012C9.79997 1.5315 9.53133 1.80014 9.19995 1.80014C8.86857 1.80014 8.59993 1.5315 8.59993 1.20012C8.59993 0.868736 8.86857 0.600098 9.19995 0.600098C9.53133 0.600098 9.79997 0.868736 9.79997 1.20012ZM11 2.70012C11 3.0315 10.7314 3.30014 10.4 3.30014C10.0686 3.30014 9.79996 3.0315 9.79996 2.70012C9.79996 2.36874 10.0686 2.1001 10.4 2.1001C10.7314 2.1001 11 2.36874 11 2.70012ZM6.19986 2.70012C6.19986 3.0315 5.93122 3.30014 5.59984 3.30014C5.26845 3.30014 4.99982 3.0315 4.99982 2.70012C4.99982 2.36874 5.26845 2.1001 5.59984 2.1001C5.93122 2.1001 6.19986 2.36874 6.19986 2.70012Z"></path></svg>