<svg viewbox="0 0 16 16" width="16" height="16"><path d="M8 1.75C4.54822 1.75 1.75 4.54822 1.75 8C1.75 11.4518 4.54822 14.25 8 14.25C11.4518 14.25 14.25 11.4518 14.25 8C14.25 4.54822 11.4518 1.75 8 1.75ZM0.25 8C0.25 3.71979 3.71979 0.25 8 0.25C12.2802 0.25 15.75 3.71979 15.75 8C15.75 12.2802 12.2802 15.75 8 15.75C3.71979 15.75 0.25 12.2802 0.25 8ZM11.8819 4.88091C12.2053 5.13967 12.2578 5.61164 11.999 5.93508L7.61567 11.4142C7.48594 11.5764 7.29479 11.6775 7.08775 11.6935C6.8807 11.7095 6.6763 11.6389 6.52322 11.4986L3.89322 9.08776C3.58788 8.80787 3.56726 8.33344 3.84715 8.0281C4.12704 7.72276 4.60147 7.70213 4.90681 7.98203L6.94548 9.85081L10.8277 4.99804C11.0865 4.67459 11.5584 4.62215 11.8819 4.88091Z"></path></svg>