<svg viewbox="0 0 24 24" width="24" height="24"><path d="M1.75 5.25C1.75 2.76472 3.76472 0.75 6.25 0.75C8.73528 0.75 10.75 2.76472 10.75 5.25C10.75 6.22193 10.4419 7.12189 9.91797 7.85753L12.853 10.7925L20.4805 3.16498C20.7734 2.87209 21.2482 2.87209 21.5411 3.16498C21.834 3.45788 21.834 3.93275 21.5411 4.22564L9.83034 15.9364C9.81761 15.9492 9.80454 15.9613 9.79116 15.973C10.3918 16.7378 10.75 17.7021 10.75 18.75C10.75 21.2353 8.73528 23.25 6.25 23.25C3.76472 23.25 1.75 21.2353 1.75 18.75C1.75 16.2647 3.76472 14.25 6.25 14.25C7.14961 14.25 7.98757 14.514 8.69063 14.9687C8.71405 14.9362 8.7404 14.9051 8.76968 14.8758L11.7923 11.8532L8.85727 8.91815C8.12168 9.44194 7.22182 9.75 6.25 9.75C3.76472 9.75 1.75 7.73528 1.75 5.25ZM6.25 2.25C4.59315 2.25 3.25 3.59315 3.25 5.25C3.25 6.90685 4.59315 8.25 6.25 8.25C7.90685 8.25 9.25 6.90685 9.25 5.25C9.25 3.59315 7.90685 2.25 6.25 2.25ZM6.25 15.75C4.59315 15.75 3.25 17.0931 3.25 18.75C3.25 20.4069 4.59315 21.75 6.25 21.75C7.90685 21.75 9.25 20.4069 9.25 18.75C9.25 17.0931 7.90685 15.75 6.25 15.75ZM13.7393 13.8002L20.4697 20.5305C20.7626 20.8234 21.2374 20.8234 21.5303 20.5305C21.8232 20.2376 21.8232 19.7627 21.5303 19.4698L14.8 12.7395L13.7393 13.8002Z"></path></svg>