<svg viewbox="0 0 16 16" width="16" height="16"><path d="M3.5 5C3.5 4.72386 3.72386 4.5 4 4.5H12C12.2761 4.5 12.5 4.72386 12.5 5C12.5 5.27614 12.2761 5.5 12 5.5H4C3.72386 5.5 3.5 5.27614 3.5 5ZM3.5 7.8C3.5 7.52386 3.72386 7.3 4 7.3H7.25C7.52614 7.3 7.75 7.52386 7.75 7.8C7.75 8.07614 7.52614 8.3 7.25 8.3H4C3.72386 8.3 3.5 8.07614 3.5 7.8ZM1 3.5C1 2.39543 1.89543 1.5 3 1.5H13C14.1046 1.5 15 2.39543 15 3.5V9.5C15 10.6046 14.1046 11.5 13 11.5H7.42268L5.15493 14.0197C4.74876 14.471 4 14.1837 4 13.5765V11.5H3C1.89543 11.5 1 10.6046 1 9.5V3.5ZM3 2.5C2.44772 2.5 2 2.94772 2 3.5V9.5C2 10.0523 2.44772 10.5 3 10.5H4.09375C4.59426 10.5 5 10.9057 5 11.4062V12.697L6.70732 10.8C6.87918 10.609 7.12402 10.5 7.38093 10.5H13C13.5523 10.5 14 10.0523 14 9.5V3.5C14 2.94772 13.5523 2.5 13 2.5H3Z"></path></svg>