<svg viewbox="0 0 16 16" width="16" height="16"><path d="M2.7735 5.25C3.02528 2.58503 5.26915 0.5 8 0.5C10.7309 0.5 12.9747 2.58503 13.2265 5.25H13.5C14.6046 5.25 15.5 6.14543 15.5 7.25V8.75C15.5 9.85457 14.6046 10.75 13.5 10.75H13.125C12.6418 10.75 12.25 10.3582 12.25 9.875V5.75C12.25 3.40279 10.3472 1.5 8 1.5C5.65279 1.5 3.75 3.40279 3.75 5.75L3.75001 11.0001C3.75001 12.3099 4.75736 13.3845 6.0396 13.4913C6.18288 12.9217 6.69845 12.5 7.3125 12.5H8.4375C9.16237 12.5 9.75 13.0876 9.75 13.8125C9.75 14.5374 9.16237 15.125 8.4375 15.125H7.3125C6.83952 15.125 6.42498 14.8748 6.19398 14.4996C4.28683 14.4697 2.75001 12.9144 2.75001 11.0001V10.75H2.5C1.39543 10.75 0.5 9.85457 0.5 8.75V7.25C0.5 6.14543 1.39543 5.25 2.5 5.25H2.7735ZM2.75 6.25H2.5C1.94772 6.25 1.5 6.69772 1.5 7.25V8.75C1.5 9.30228 1.94772 9.75 2.5 9.75H2.75V6.25ZM13.25 6.25V9.75H13.5C14.0523 9.75 14.5 9.30228 14.5 8.75V7.25C14.5 6.69772 14.0523 6.25 13.5 6.25H13.25ZM8.4375 13.5H7.3125C7.13991 13.5 7 13.6399 7 13.8125C7 13.9851 7.13991 14.125 7.3125 14.125H8.4375C8.61009 14.125 8.75 13.9851 8.75 13.8125C8.75 13.6399 8.61009 13.5 8.4375 13.5Z"></path></svg>