<svg viewbox="0 0 24 24" width="24" height="24"><path d="M3.67968 8.10547C4.18614 3.96041 7.71818 0.75 12.0001 0.75C16.2819 0.75 19.814 3.96041 20.3204 8.10547H20.7551C22.4091 8.10547 23.75 9.44633 23.75 11.1004V13.4C23.75 15.0541 22.4091 16.3949 20.7551 16.3949H20.1939C19.4697 16.3949 18.8827 15.8079 18.8827 15.0837V9.41669C18.8827 9.4118 18.8827 9.40692 18.8827 9.40205V9.13268C18.8827 5.33148 15.8013 2.25 12.0001 2.25C8.19885 2.25 5.11737 5.33148 5.11737 9.13268L5.11737 15.915C5.11737 18.3077 6.9293 20.2772 9.25587 20.5262C9.4752 19.6714 10.2509 19.0396 11.1741 19.0396H12.8258C13.9195 19.0396 14.8061 19.9261 14.8061 21.0198C14.8061 22.1135 13.9195 23.0001 12.8258 23.0001H11.1741C10.4564 23.0001 9.82789 22.6183 9.48057 22.0467C6.37798 21.9101 3.87373 19.4702 3.63586 16.3949H3.2449C1.59086 16.3949 0.25 15.0541 0.25 13.4V11.1004C0.25 9.44633 1.59086 8.10547 3.2449 8.10547H3.67968Z"></path></svg>