<svg viewbox="0 0 24 24" width="24" height="24"><path d="M3 3.25C1.75736 3.25 0.75 4.25736 0.75 5.5V17C0.75 18.2426 1.75736 19.25 3 19.25H21C22.2426 19.25 23.25 18.2426 23.25 17V5.5C23.25 4.25736 22.2426 3.25 21 3.25H3ZM2.25 5.69236V17C2.25 17.4142 2.58579 17.75 3 17.75H21C21.4142 17.75 21.75 17.4142 21.75 17V5.69236L13.5893 12.413C12.6661 13.1732 11.3339 13.1732 10.4107 12.413L2.25 5.69236ZM20.5347 4.75H3.46528L11.3643 11.2551C11.7335 11.5592 12.2665 11.5592 12.6357 11.2551L20.5347 4.75Z"></path></svg>