<svg viewbox="0 0 24 24" width="24" height="24"><path d="M5.25 2C5.25 1.58579 4.91421 1.25 4.5 1.25C4.08579 1.25 3.75 1.58579 3.75 2V23.0021C3.75 23.4163 4.08579 23.7521 4.5 23.7521C4.91421 23.7521 5.25 23.4163 5.25 23.0021V13.1241C5.63943 13.2599 6.12182 13.3993 6.67552 13.5011C8.17704 13.7771 10.2258 13.7799 12.349 12.6637C14.0471 11.7709 15.8251 11.9314 17.2369 12.3547C17.9387 12.5651 18.5308 12.8354 18.947 13.053C19.1544 13.1615 19.3162 13.256 19.4241 13.3219C19.4779 13.3548 19.5182 13.3805 19.5438 13.3972L19.571 13.4151L19.5752 13.4179L20 12.7998C19.5752 13.4179 19.5759 13.4184 19.5761 13.4185C19.8055 13.5757 20.1031 13.5931 20.3492 13.4635C20.5957 13.3339 20.75 13.0783 20.75 12.7998V3.40002C20.75 3.10095 20.5723 2.83048 20.2979 2.7117L20.2946 2.71031L20.2902 2.70841L20.2776 2.70314C20.2676 2.699 20.2544 2.69361 20.238 2.68711C20.2052 2.67413 20.1597 2.65674 20.102 2.63609C19.9866 2.59481 19.8221 2.54047 19.6123 2.48237C19.1928 2.36621 18.5909 2.23473 17.8367 2.16296C16.3631 2.02272 14.3132 2.11112 11.9172 2.98081L5.25 2.63502V2ZM5.25 2.80661V2.63756L11.9138 2.98202C11.8546 3.00353 11.7952 3.02552 11.7355 3.04799C9.54011 3.87527 7.82898 3.73703 6.68606 3.41787C6.10978 3.25695 5.66996 3.04761 5.37976 2.88302C5.33245 2.85619 5.28918 2.83058 5.25 2.80661ZM11.9138 2.98202C11.9149 2.98162 11.9161 2.98121 11.9172 2.98081L20 3.40002L11.9138 2.98202ZM20.2979 2.7117L20.0065 3.3849C20.1515 3.05003 20.2244 2.88177 20.261 2.79721C20.298 2.71178 20.298 2.71178 20.2979 2.7117ZM12.2645 4.45164C14.4988 3.6097 16.3824 3.53133 17.6946 3.65621C18.3519 3.71877 18.8672 3.8325 19.212 3.92798L19.25 3.93862V11.5284C18.8175 11.3232 18.2801 11.1015 17.6677 10.9179C16.0478 10.4322 13.8258 10.1926 11.651 11.336C9.90128 12.2559 8.21354 12.2587 6.94674 12.0258C6.31267 11.9092 5.78981 11.7343 5.42827 11.5898C5.37345 11.5679 5.32246 11.5468 5.27548 11.5267L5.25397 4.4955C5.54726 4.62484 5.89094 4.75322 6.28263 4.8626C7.71261 5.26192 9.75148 5.39858 12.2645 4.45164Z"></path></svg>