<svg viewbox="0 0 16 16" width="16" height="16"><path d="M13.9481 1.76584L13.7 2.19993C13.9481 1.76584 13.9481 1.76584 13.9481 1.76584L13.9469 1.76514L13.9455 1.76438L13.9424 1.76263L13.9346 1.75831C13.9286 1.75508 13.9213 1.75115 13.9124 1.74661C13.8948 1.73752 13.8714 1.72597 13.8423 1.71264C13.7841 1.68597 13.7031 1.65215 13.5996 1.61657C13.3923 1.54535 13.0954 1.46729 12.7117 1.42518C11.9416 1.34064 10.8376 1.40266 9.42379 1.93505C8.1849 2.40156 7.13472 2.35227 6.39909 2.19225C6.02979 2.11192 5.73883 2.00337 5.54347 1.91687C5.4459 1.87368 5.37262 1.83619 5.32583 1.81081C5.30244 1.79813 5.28573 1.78851 5.27595 1.78275L5.26655 1.77713C5.11285 1.68055 4.91824 1.67451 4.75907 1.76203C4.59928 1.8499 4.5 2.0178 4.5 2.20016V8.00016C4.5 8.19696 4.61545 8.37546 4.79494 8.45617L5 8.00016C4.79494 8.45617 4.79494 8.45617 4.79494 8.45617L4.79673 8.45698L4.79935 8.45814L4.80703 8.46151L4.83204 8.47218C4.85294 8.48095 4.88221 8.49292 4.91936 8.50733C4.99362 8.53614 5.09957 8.57481 5.23308 8.61728C5.49969 8.70209 5.87864 8.80282 6.33655 8.86993C7.25026 9.00385 8.49816 9.0065 9.79399 8.46099C10.8474 8.01754 11.743 8.12967 12.3786 8.34792C12.6992 8.45803 12.9543 8.5957 13.1273 8.70451C13.2135 8.75875 13.2785 8.80526 13.3202 8.83667C13.341 8.85236 13.3559 8.86422 13.3646 8.87131L13.373 8.87822C13.5207 9.00624 13.7293 9.03609 13.9073 8.95502C14.0856 8.87381 14.2 8.69593 14.2 8.5V2.19993C14.2 2.02052 14.1039 1.85486 13.9481 1.76584ZM3 0.5C3.27614 0.5 3.5 0.723858 3.5 1V15.0014C3.5 15.2775 3.27614 15.5014 3 15.5014C2.72386 15.5014 2.5 15.2775 2.5 15.0014V1C2.5 0.723858 2.72386 0.5 3 0.5Z"></path></svg>