<svg viewbox="0 0 16 16" width="16" height="16"><path d="M8.74241 0.520749C8.95454 0.583777 9.1 0.778747 9.1 1.00004V5.90004H12.1783C12.8752 5.90004 13.2925 6.67522 12.9086 7.25697L7.61733 15.2754C7.49573 15.4597 7.26768 15.5424 7.05624 15.4789C6.84479 15.4154 6.7 15.2208 6.7 15V9.90004H3.81704C3.12229 9.90004 2.70464 9.12929 3.084 8.54725L8.18112 0.72702C8.30196 0.54163 8.53028 0.457721 8.74241 0.520749ZM4.04772 8.90004H7.2C7.47614 8.90004 7.7 9.1239 7.7 9.40004V13.3345L11.946 6.90004H8.6C8.32386 6.90004 8.1 6.67618 8.1 6.40004V2.68285L4.04772 8.90004Z"></path></svg>