<svg viewbox="0 0 16 16" width="16" height="16"><path d="M8.74236 0.520749C8.95449 0.583777 9.09996 0.778747 9.09996 1.00004V5.90004H12.1782C12.8752 5.90004 13.2924 6.67522 12.9085 7.25697L7.61728 15.2754C7.49569 15.4597 7.26764 15.5424 7.05619 15.4789C6.84474 15.4154 6.69996 15.2208 6.69996 15V9.90004H3.817C3.12224 9.90004 2.7046 9.12929 3.08396 8.54725L8.18108 0.72702C8.30191 0.54163 8.53024 0.457721 8.74236 0.520749ZM4.04768 8.90004H7.19995C7.4761 8.90004 7.69995 9.1239 7.69995 9.40004V13.3345L11.946 6.90004H8.59996C8.32381 6.90004 8.09996 6.67618 8.09996 6.40004V2.68285L4.04768 8.90004Z"></path></svg>