<svg viewbox="0 0 24 24" width="24" height="24"><path d="M12.9606 1.00007C12.9606 0.66132 12.7335 0.364621 12.4065 0.276117C12.0795 0.187614 11.7338 0.329277 11.563 0.621779L8.04096 6.65124L4.93352 3.47558C4.64382 3.17953 4.16898 3.17437 3.87292 3.46407C3.57686 3.75376 3.57171 4.22861 3.8614 4.52466L7.25646 7.99426L4.3509 12.9684C3.83795 13.8466 4.47133 14.9501 5.48832 14.9501H10.8933V22.5556C10.8933 22.8948 11.121 23.1918 11.4486 23.2799C11.7762 23.368 12.1221 23.2252 12.2922 22.9317L15.8561 16.7827L18.5392 19.5247C18.8289 19.8207 19.3037 19.8259 19.5998 19.5362C19.8958 19.2465 19.901 18.7716 19.6113 18.4756L16.6368 15.4358L19.6553 10.2279C20.1643 9.34969 19.5306 8.25007 18.5156 8.25007H12.9606V1.00007ZM15.548 14.3231L18.1985 9.75007H12.2106C11.7963 9.75007 11.4606 9.41428 11.4606 9.00007V3.77099L9.12875 7.76292L15.548 14.3231ZM8.34425 9.10593L5.80671 13.4501H11.6433C12.0575 13.4501 12.3933 13.7859 12.3933 14.2001V19.766L14.7673 15.67L8.34425 9.10593Z"></path></svg>