<svg viewbox="0 0 16 16" width="16" height="16"><path d="M7.36286 9.47115V9.39102C7.36848 8.86807 7.4205 8.45196 7.5189 8.14268C7.62012 7.83341 7.76351 7.58318 7.94907 7.392C8.13463 7.20081 8.35815 7.02649 8.61963 6.86904C8.78832 6.7622 8.94015 6.64271 9.0751 6.51057C9.21006 6.37842 9.3169 6.2266 9.39562 6.05509C9.47435 5.88359 9.51371 5.69381 9.51371 5.48575C9.51371 5.23552 9.45467 5.01903 9.33658 4.83628C9.21849 4.65353 9.06105 4.51295 8.86424 4.41454C8.67024 4.31333 8.45375 4.26272 8.21476 4.26272C7.99827 4.26272 7.79162 4.3077 7.59481 4.39767C7.398 4.48764 7.23493 4.62822 7.1056 4.81941C6.97627 5.00778 6.90176 5.25099 6.88208 5.54901C6.88208 5.54901 6.73936 6.07653 6.20494 6.07653C5.67052 6.07653 5.6 5.54901 5.6 5.54901C5.61968 5.04293 5.74761 4.61557 5.98378 4.26694C6.21995 3.91549 6.53204 3.6498 6.92004 3.46985C7.31084 3.28991 7.74242 3.19995 8.21476 3.19995C8.73209 3.19995 9.18476 3.29694 9.57275 3.49094C9.96075 3.68213 10.2616 3.95063 10.4753 4.29646C10.6918 4.63947 10.8 5.04012 10.8 5.4984C10.8 5.8133 10.7508 6.09727 10.6524 6.35031C10.554 6.60054 10.4134 6.82406 10.2307 7.02087C10.0507 7.21768 9.83423 7.392 9.58119 7.54382C9.3422 7.69283 9.14821 7.84747 8.99919 8.00773C8.85299 8.16799 8.74615 8.35777 8.67867 8.57707C8.61119 8.79638 8.57464 9.06769 8.56902 9.39102V9.47115C8.56902 9.47115 8.46139 9.99563 7.92697 9.99563C7.39255 9.99563 7.36286 9.47115 7.36286 9.47115ZM7.97443 10.9299C7.77489 10.9299 7.61057 10.996 7.48146 11.1282C7.34061 11.2724 7.27019 11.4467 7.27019 11.651V11.8687C7.27019 12.061 7.34061 12.2293 7.48146 12.3735C7.61057 12.5177 7.77489 12.5899 7.97443 12.5899C8.17396 12.5899 8.34416 12.5177 8.48501 12.3735C8.61412 12.2293 8.67867 12.061 8.67867 11.8687V11.651C8.67867 11.4467 8.61412 11.2724 8.48501 11.1282C8.34416 10.996 8.17396 10.9299 7.97443 10.9299ZM8.21212 1.5C4.73942 1.5 1.92425 4.31518 1.92425 7.78788C1.92425 8.80654 2.1661 9.76727 2.59507 10.6171C2.66069 10.7471 2.65787 10.8762 2.65704 10.9146L2.65701 10.9156C2.6557 10.9766 2.64804 11.038 2.63943 11.0918C2.62192 11.2013 2.59172 11.3321 2.55577 11.4702C2.48313 11.7492 2.37496 12.1031 2.25673 12.4692C2.10086 12.9518 1.9232 13.4687 1.77631 13.8876C2.24132 13.7852 2.82766 13.6604 3.37902 13.5553C3.78844 13.4773 4.18664 13.4085 4.50433 13.3683C4.66207 13.3483 4.81049 13.334 4.93515 13.3304C4.99712 13.3286 5.06326 13.3292 5.12697 13.3354C5.17865 13.3405 5.28068 13.3533 5.38288 13.4049C6.23274 13.8339 7.19346 14.0758 8.21212 14.0758C11.6848 14.0758 14.5 11.2606 14.5 7.78788C14.5 4.31518 11.6848 1.5 8.21212 1.5ZM0.924246 7.78788C0.924246 3.76289 4.18714 0.5 8.21212 0.5C12.2371 0.5 15.5 3.76289 15.5 7.78788C15.5 11.8129 12.2371 15.0758 8.21212 15.0758C7.05879 15.0758 5.96672 14.8075 4.99619 14.3295C4.98725 14.3295 4.97648 14.3296 4.96372 14.33C4.88623 14.3322 4.77447 14.342 4.63001 14.3603C4.3433 14.3967 3.96908 14.4609 3.56628 14.5376C2.76296 14.6908 1.87807 14.8878 1.42126 14.9918C0.899603 15.1106 0.458883 14.6058 0.637525 14.1071C0.789495 13.6829 1.07289 12.8809 1.30512 12.1619C1.42161 11.8012 1.52276 11.4689 1.58804 11.2182C1.61713 11.1065 1.63682 11.0196 1.64794 10.9576C1.18409 9.99869 0.924246 8.92296 0.924246 7.78788ZM5.02958 14.3307C5.03557 14.3312 5.03445 14.3315 5.02789 14.3305L5.02958 14.3307Z"></path></svg>