<svg viewbox="0 0 24 24" width="24" height="24"><path d="M2.60158 7.5521C2.35419 7.21988 1.88432 7.15112 1.5521 7.39851C1.21988 7.6459 1.15112 8.11577 1.39851 8.44799C1.918 9.1456 2.66196 10.0335 3.66497 10.8905L1.58513 13.0437C1.29736 13.3416 1.30559 13.8164 1.60352 14.1042C1.90144 14.392 2.37625 14.3837 2.66402 14.0858L4.86728 11.8048C5.51073 12.2376 6.23273 12.6381 7.03867 12.9719L6.15663 15.9396C6.03862 16.3367 6.26483 16.7542 6.66188 16.8722C7.05893 16.9902 7.47646 16.764 7.59447 16.367L8.45849 13.4598C9.2036 13.6659 10.0082 13.8132 10.8753 13.8823V16.8C10.8753 17.2142 11.2111 17.55 11.6253 17.55C12.0395 17.55 12.3753 17.2142 12.3753 16.8V13.9216C13.3107 13.8975 14.178 13.7833 14.9806 13.601L15.9135 16.3911C16.0449 16.784 16.4698 16.9959 16.8626 16.8646C17.2555 16.7332 17.4675 16.3083 17.3361 15.9155L16.4217 13.1805C17.2518 12.8821 17.9993 12.5116 18.6695 12.1021L20.5856 14.0858C20.8734 14.3837 21.3482 14.392 21.6461 14.1042C21.944 13.8164 21.9523 13.3416 21.6645 13.0437L19.9164 11.2339C21.134 10.2758 22.0122 9.2394 22.6016 8.44799C22.849 8.11577 22.7802 7.6459 22.448 7.39851C22.1158 7.15112 21.6459 7.21988 21.3985 7.5521C20.0493 9.36389 17.1676 12.4265 12 12.4265C6.83254 12.4265 3.95076 9.36389 2.60158 7.5521Z"></path></svg>