<svg viewbox="0 0 24 24" width="24" height="24"><path d="M1.25 12C1.25 6.06294 6.06294 1.25 12 1.25C17.9371 1.25 22.75 6.06294 22.75 12C22.75 17.9371 17.9371 22.75 12 22.75C6.06294 22.75 1.25 17.9371 1.25 12ZM12.75 7C12.75 6.58579 12.4142 6.25 12 6.25C11.5858 6.25 11.25 6.58579 11.25 7V7.8C11.25 8.21421 11.5858 8.55 12 8.55C12.4142 8.55 12.75 8.21421 12.75 7.8V7ZM12.75 10.7C12.75 10.2858 12.4142 9.95 12 9.95C11.5858 9.95 11.25 10.2858 11.25 10.7V17.2C11.25 17.6142 11.5858 17.95 12 17.95C12.4142 17.95 12.75 17.6142 12.75 17.2V10.7Z"></path></svg>