<svg viewbox="0 0 16 16" width="16" height="16"><path d="M1.25 8C1.25 8.41421 1.58579 8.75 2 8.75H14C14.4142 8.75 14.75 8.41421 14.75 8C14.75 7.58579 14.4142 7.25 14 7.25H2C1.58579 7.25 1.25 7.58579 1.25 8ZM1.25 4C1.25 4.41421 1.58579 4.75 2 4.75H14C14.4142 4.75 14.75 4.41421 14.75 4C14.75 3.58579 14.4142 3.25 14 3.25H2C1.58579 3.25 1.25 3.58579 1.25 4ZM1.25 12C1.25 12.4142 1.58579 12.75 2 12.75H14C14.4142 12.75 14.75 12.4142 14.75 12C14.75 11.5858 14.4142 11.25 14 11.25H2C1.58579 11.25 1.25 11.5858 1.25 12Z"></path></svg>