<svg viewbox="0 0 16 16" width="16" height="16"><path d="M6.44247 9.69025C6.362 9.99608 6.27448 10.3287 6.16424 10.6437C5.99927 11.115 5.72248 11.5178 5.44487 11.8635C5.30545 12.0371 5.1604 12.2027 5.025 12.3566C5.01675 12.366 5.00853 12.3753 5.00036 12.3846C4.872 12.5305 4.75397 12.6646 4.64623 12.7968C4.41121 13.0852 4.27279 13.3091 4.22175 13.5065C4.17939 13.6704 4.18809 13.8481 4.34576 14.0907C4.52302 14.3634 4.68953 14.4679 4.84038 14.5139C5.00905 14.5653 5.22401 14.5637 5.5311 14.5071C5.72847 14.4707 5.91971 14.4219 6.13616 14.3667C6.27558 14.3312 6.42546 14.2929 6.59418 14.2536C6.99808 14.1595 7.4556 14.075 7.95248 14.075C8.35977 14.075 8.77876 14.134 9.16632 14.1975C9.27369 14.2151 9.37777 14.2329 9.47918 14.2502C9.75748 14.2976 10.0156 14.3417 10.2663 14.3694C10.9798 14.4483 11.3144 14.3519 11.4918 14.0858C11.7048 13.7663 11.7233 13.5382 11.6826 13.3487C11.6351 13.128 11.4921 12.8886 11.2479 12.5834C11.145 12.4548 11.0338 12.3259 10.9132 12.1861C10.8933 12.163 10.8732 12.1397 10.8528 12.116C10.7117 11.9522 10.5612 11.7754 10.4185 11.5882C10.1338 11.2147 9.85946 10.7741 9.72759 10.2466C9.68023 10.0572 9.63933 9.8845 9.60104 9.72285C9.5466 9.49303 9.49745 9.28553 9.44256 9.08397C9.35168 8.75024 9.26224 8.50348 9.15208 8.31759C9.04826 8.1424 8.92871 8.02576 8.76735 7.94568C8.59751 7.86139 8.34565 7.80013 7.95248 7.80013C7.59955 7.80013 7.37646 7.88638 7.21946 8.00142C7.05591 8.12126 6.92069 8.30428 6.80038 8.56747C6.67849 8.8341 6.58602 9.15037 6.48885 9.51476C6.47358 9.57202 6.45816 9.63063 6.44247 9.69025ZM6.6284 7.19479C6.98347 6.93461 7.42254 6.80013 7.95248 6.80013C8.4422 6.80013 8.86014 6.87535 9.2119 7.04993C9.57216 7.22872 9.82603 7.49335 10.0124 7.80778C10.1924 8.11151 10.3098 8.46271 10.4074 8.82122C10.4651 9.03294 10.5221 9.27303 10.5808 9.52027C10.6189 9.68046 10.6576 9.84365 10.6977 10.0041C10.7825 10.3433 10.9669 10.6581 11.2138 10.9819C11.3369 11.1434 11.4705 11.3008 11.6105 11.4634C11.6297 11.4857 11.6491 11.5082 11.6686 11.5308C11.7884 11.6697 11.9133 11.8143 12.0287 11.9586C12.2926 12.2883 12.5614 12.6795 12.6602 13.1383C12.7656 13.6283 12.6649 14.1289 12.3238 14.6405C11.7949 15.4339 10.8799 15.4434 10.1563 15.3634C9.87385 15.3321 9.57288 15.2807 9.28573 15.2317C9.19009 15.2154 9.09599 15.1993 9.00461 15.1843C8.6244 15.122 8.27324 15.075 7.95248 15.075C7.56649 15.075 7.19409 15.1406 6.82106 15.2275C6.69904 15.256 6.56836 15.2891 6.4351 15.3229C6.19021 15.3849 5.93665 15.4492 5.71226 15.4905C5.34835 15.5576 4.94529 15.5913 4.54892 15.4705C4.13472 15.3443 3.78917 15.0692 3.50732 14.6356C3.2059 14.1719 3.13695 13.7075 3.25358 13.2563C3.36152 12.8387 3.61871 12.4747 3.87109 12.165C3.99128 12.0176 4.12126 11.8699 4.24639 11.7277C4.25568 11.7171 4.26494 11.7066 4.27416 11.6961C4.41027 11.5414 4.54155 11.3912 4.66521 11.2373C4.91376 10.9278 5.11009 10.6284 5.22038 10.3133C5.31629 10.0393 5.39194 9.75219 5.47249 9.44653C5.48892 9.38418 5.50556 9.32105 5.52261 9.2571C5.61967 8.89312 5.73027 8.50308 5.8909 8.1517C6.05311 7.79687 6.27987 7.45017 6.6284 7.19479ZM13.0671 9.46853C13.4278 9.59958 14.1607 9.38835 14.492 8.47976C14.8234 7.57117 14.3979 6.93911 14.0372 6.80807C13.6765 6.67702 12.9436 6.88826 12.6123 7.79684C12.2809 8.70543 12.7064 9.33749 13.0671 9.46853ZM12.7245 10.408C13.7627 10.7852 14.9748 10.0748 15.4319 8.82122C15.889 7.56769 15.418 6.24575 14.3798 5.86858C13.3416 5.49142 12.1295 6.20185 11.6724 7.45538C11.2153 8.70891 11.6863 10.0309 12.7245 10.408ZM10.1473 4.98C10.5875 5.10597 11.3813 4.79109 11.6728 3.77613C11.9644 2.76117 11.4584 2.07427 11.0183 1.94829C10.5781 1.82232 9.78431 2.1372 9.49274 3.15216C9.20116 4.16712 9.70717 4.85403 10.1473 4.98ZM9.8712 5.94112C11.0042 6.2654 12.2412 5.41929 12.6342 4.0513C13.0272 2.6833 12.4274 1.31144 11.2944 0.987168C10.1614 0.662894 8.92434 1.509 8.53134 2.877C8.13834 4.24499 8.73822 5.61685 9.8712 5.94112ZM5.803 4.9058C6.24314 4.77982 6.74915 4.09292 6.45757 3.07796C6.166 2.063 5.37219 1.74812 4.93205 1.87409C4.49191 2.00007 3.9859 2.68697 4.27748 3.70193C4.56905 4.71689 5.36286 5.03177 5.803 4.9058ZM6.07911 5.86692C7.21209 5.54265 7.81197 4.17079 7.41897 2.80279C7.02598 1.4348 5.78892 0.588692 4.65594 0.912966C3.52296 1.23724 2.92308 2.6091 3.31608 3.97709C3.70908 5.34509 4.94613 6.1912 6.07911 5.86692ZM2.99251 9.48331C3.35323 9.35227 3.77866 8.72021 3.44735 7.81162C3.11603 6.90303 2.38309 6.6918 2.02238 6.82285C1.66167 6.95389 1.23624 7.58595 1.56755 8.49454C1.89887 9.40313 2.6318 9.61436 2.99251 9.48331ZM3.3351 10.4228C4.37328 10.0456 4.84434 8.72369 4.38724 7.47016C3.93014 6.21663 2.71798 5.5062 1.6798 5.88336C0.641619 6.26053 0.170558 7.58247 0.627655 8.836C1.08475 10.0895 2.29692 10.8 3.3351 10.4228Z"></path></svg>