<svg viewbox="0 0 24 24" width="24" height="24"><path d="M10 0.25C4.61522 0.25 0.25 4.61522 0.25 10C0.25 15.3848 4.61522 19.75 10 19.75C12.4224 19.75 14.6385 18.8666 16.3437 17.4043L20.9697 22.0303C21.2626 22.3232 21.7375 22.3232 22.0303 22.0303C22.3232 21.7374 22.3232 21.2625 22.0303 20.9697L17.4043 16.3437C18.8666 14.6385 19.75 12.4224 19.75 10C19.75 4.61522 15.3848 0.25 10 0.25ZM1.75 10C1.75 5.44365 5.44365 1.75 10 1.75C14.5563 1.75 18.25 5.44365 18.25 10C18.25 14.5563 14.5563 18.25 10 18.25C5.44365 18.25 1.75 14.5563 1.75 10Z"></path></svg>