<svg viewbox="0 0 24 24" width="24" height="24"><path d="M10.1494 2.66132C10.35 2.26017 10.8108 1.75 11.5654 1.75H12.683C13.0536 1.75 13.3454 1.92916 13.5281 2.08579C13.7194 2.24971 13.8721 2.45596 13.9747 2.66132C13.984 2.67992 13.9926 2.69889 14.0003 2.71819L14.497 3.96002C14.5025 3.97366 14.5075 3.98746 14.5122 4.00139C14.7432 4.69463 15.6279 5.10658 16.3385 4.80105L17.3149 4.31284C17.3467 4.29697 17.3795 4.28337 17.4132 4.27215C17.6318 4.19928 17.9115 4.12698 18.2144 4.16063C18.5513 4.19807 18.8269 4.35445 19.0499 4.57751L19.795 5.32261C20.3227 5.8503 20.2931 6.59083 20.0597 7.05763C20.0535 7.07004 20.047 7.08228 20.0401 7.09433L19.5459 7.95916C19.1989 8.5885 19.4864 9.3841 20.2957 9.75392L21.2553 10.1138C21.5606 10.2184 21.84 10.4024 22.0273 10.7022C22.2082 10.9915 22.25 11.3049 22.25 11.5654V12.683C22.25 13.4375 21.7398 13.8983 21.3387 14.0989C21.3152 14.1107 21.2912 14.1211 21.2666 14.1304L20.2731 14.5029C20.2687 14.5046 20.2643 14.5062 20.2598 14.5077C20.2556 14.5093 20.2513 14.5107 20.247 14.5122C19.5537 14.7432 19.1418 15.6279 19.4473 16.3385L19.9355 17.3149C19.9514 17.3467 19.965 17.3795 19.9762 17.4132C20.0491 17.6318 20.1214 17.9115 20.0877 18.2144C20.0503 18.5513 19.8939 18.8269 19.6709 19.0499L18.9258 19.795C18.3981 20.3227 17.6575 20.2931 17.1907 20.0597C17.1017 20.0152 16.9785 19.9457 16.8691 19.884C16.8124 19.8521 16.7595 19.8222 16.7168 19.7989C16.5574 19.712 16.4177 19.6444 16.2955 19.6037C16.2515 19.589 16.209 19.5703 16.1684 19.5478C15.5386 19.1978 14.7407 19.4849 14.3703 20.2957L14.0103 21.2556C13.7375 22.0477 12.9712 22.25 12.5588 22.25H11.4412C10.6867 22.25 10.2258 21.7398 10.0253 21.3387C10.0135 21.3152 10.003 21.2912 9.99383 21.2666L9.62128 20.2731C9.61803 20.2645 9.61494 20.2558 9.61202 20.247C9.38462 19.5648 8.52436 19.155 7.8198 19.4333C7.50846 19.6301 7.14423 19.7883 6.94201 19.8762C6.88111 19.9026 6.83491 19.9227 6.80927 19.9355C6.59857 20.0409 6.32319 20.1259 6.00828 20.0865C5.68522 20.0461 5.41432 19.8867 5.19843 19.6709C5.18485 19.6573 5.17181 19.6432 5.15932 19.6286L4.42982 18.7775C3.93517 18.2606 3.95783 17.551 4.17707 17.0903L4.54661 16.228C4.85263 15.5395 4.59725 14.723 3.82821 14.2534C3.42744 14.1497 3.07767 14.0383 2.79694 13.9142C2.41364 13.8533 2.1359 13.6211 1.97266 13.3599C1.80276 13.0881 1.75 12.7857 1.75 12.5588V11.4412C1.75 11.1068 1.89808 10.7971 2.05523 10.5876C2.17529 10.4275 2.42358 10.1657 2.79127 10.0908L3.80978 9.63817C3.83182 9.62837 3.85432 9.61965 3.87721 9.61202C4.5594 9.38462 4.96919 8.52436 4.69093 7.8198C4.49408 7.50845 4.33585 7.14421 4.248 6.94199C4.22155 6.8811 4.20148 6.83491 4.18866 6.80927C4.08331 6.59857 3.99829 6.32319 4.03765 6.00828C4.07804 5.68522 4.23744 5.41432 4.45333 5.19843L5.19843 4.45333C5.40606 4.2457 5.66806 4.08535 5.94789 4.0014C6.2199 3.9198 6.58523 3.89036 6.93345 4.06447C6.94586 4.07068 6.9581 4.07723 6.97014 4.08411L7.80317 4.56013C8.54082 4.86789 9.42027 4.53358 9.74891 3.83909L10.1087 2.75956C10.12 2.72589 10.1336 2.69306 10.1494 2.66132ZM11.5097 3.30013L11.1592 4.35155C11.1516 4.37444 11.1429 4.39694 11.1331 4.41898C10.4615 5.92997 8.64388 6.57568 7.16272 5.91738C7.13966 5.90714 7.11713 5.89573 7.09522 5.88321L6.34264 5.45316C6.3364 5.45635 6.32976 5.46002 6.32279 5.46424C6.29951 5.47833 6.27754 5.49554 6.25909 5.51399L5.56422 6.20886C5.60142 6.28839 5.64234 6.3822 5.67899 6.46622C5.70335 6.52204 5.72581 6.57354 5.74405 6.61367C5.8135 6.76646 5.88756 6.91226 5.98025 7.0513C6.00381 7.08663 6.02432 7.12391 6.04157 7.16272C6.71271 8.67279 5.9024 10.4929 4.38863 11.0224L3.30134 11.5056C3.28446 11.5131 3.26733 11.52 3.25 11.5262V12.4738C3.27798 12.4838 3.30541 12.4956 3.33214 12.5089C3.50661 12.5962 3.81615 12.7046 4.29628 12.8247C4.35995 12.8406 4.42125 12.8648 4.47861 12.8967C5.88283 13.6768 6.59317 15.3098 5.91955 16.8324L5.54884 17.6974C5.54305 17.7109 5.53687 17.7242 5.5303 17.7374C5.53147 17.735 5.53098 17.7361 5.53098 17.7361C5.53098 17.7361 5.52978 17.7401 5.52915 17.7435C5.52838 17.7477 5.52801 17.7517 5.52793 17.7552C5.53655 17.7643 5.54494 17.7736 5.5531 17.7831L6.21606 18.5566C6.29402 18.5203 6.38473 18.4807 6.46622 18.4452C6.52204 18.4208 6.57354 18.3984 6.61367 18.3801C6.76646 18.3107 6.91226 18.2366 7.0513 18.1439C7.08663 18.1204 7.12391 18.0999 7.16272 18.0826C8.68037 17.4081 10.5112 18.23 11.0303 19.7584L11.3802 20.6917C11.3859 20.7008 11.3919 20.7094 11.3982 20.7171C11.4095 20.7313 11.4192 20.74 11.4255 20.7448C11.4284 20.7469 11.4316 20.7488 11.4316 20.7488L11.4328 20.7494C11.4328 20.7494 11.4363 20.75 11.4412 20.75H12.5588L12.5611 20.7499L12.5673 20.7493C12.5725 20.7487 12.5787 20.7476 12.5853 20.746C12.5914 20.7445 12.5968 20.7429 12.6012 20.7413L12.9742 19.7465C12.9794 19.7325 12.9851 19.7188 12.9911 19.7052C13.6099 18.3128 15.2541 17.3713 16.8362 18.2037C17.0612 18.2851 17.2692 18.3916 17.4351 18.4821C17.5316 18.5347 17.6043 18.5761 17.6653 18.6108C17.7411 18.6539 17.7988 18.6867 17.8616 18.7181C17.8592 18.7169 17.8603 18.7174 17.8603 18.7174C17.8603 18.7174 17.8643 18.7186 17.8677 18.7192C17.8718 18.72 17.8756 18.7203 17.879 18.7204L18.5886 18.0108C18.5842 17.991 18.5777 17.9658 18.5681 17.9342L18.0972 16.9923C18.0921 16.9821 18.0872 16.9718 18.0826 16.9615C17.4081 15.4438 18.23 13.613 19.7584 13.0939L20.6917 12.7439C20.7008 12.7383 20.7094 12.7322 20.7171 12.726C20.7313 12.7147 20.74 12.705 20.7448 12.6987C20.7479 12.6945 20.7494 12.6914 20.7494 12.6914C20.7494 12.6914 20.75 12.6874 20.75 12.683V11.5654C20.75 11.5504 20.7496 11.5372 20.749 11.5259C20.746 11.5248 20.743 11.5236 20.7399 11.5225L19.7465 11.15C19.7325 11.1447 19.7188 11.1391 19.7052 11.1331C18.295 10.5063 17.3473 8.82788 18.2365 7.22727L18.2409 7.21937L18.7186 6.3835L18.7192 6.38067C18.72 6.3766 18.7203 6.37272 18.7204 6.36932L18.0108 5.65974C17.991 5.66412 17.9658 5.67066 17.9342 5.68027L16.9923 6.15121C16.9821 6.15629 16.9718 6.16114 16.9615 6.16575C15.4466 6.83903 13.6197 6.02141 13.0968 4.49833L12.6225 3.3127C12.6147 3.29924 12.6051 3.28487 12.5942 3.27066C12.5884 3.263 12.5826 3.25611 12.5772 3.25H11.5654C11.5571 3.25 11.557 3.25058 11.557 3.25058C11.557 3.25058 11.5555 3.25085 11.5497 3.25523C11.5434 3.25997 11.5337 3.26868 11.5223 3.28286C11.518 3.28826 11.5138 3.29404 11.5097 3.30013ZM3.25836 11.4837L3.25722 11.485L3.25836 11.4837ZM12 9.25C10.4812 9.25 9.25 10.4812 9.25 12C9.25 13.5188 10.4812 14.75 12 14.75C13.5188 14.75 14.75 13.5188 14.75 12C14.75 10.4812 13.5188 9.25 12 9.25ZM7.75 12C7.75 9.65279 9.65279 7.75 12 7.75C14.3472 7.75 16.25 9.65279 16.25 12C16.25 14.3472 14.3472 16.25 12 16.25C9.65279 16.25 7.75 14.3472 7.75 12Z"></path></svg>