<svg viewbox="0 0 16 16" width="16" height="16"><path d="M6.7456 1.61626C6.88149 1.34447 7.19307 1 7.70262 1H8.46732C8.71659 1 8.91327 1.12053 9.037 1.22658C9.1664 1.3375 9.26983 1.47718 9.33937 1.61626C9.34557 1.62866 9.35125 1.64131 9.3564 1.65417L9.69626 2.50385C9.6999 2.51294 9.70327 2.52214 9.70637 2.53143C9.86695 3.01318 10.4806 3.29871 10.974 3.08634L11.6424 2.75213C11.6636 2.74155 11.6855 2.73249 11.7079 2.725C11.8569 2.67533 12.0461 2.62659 12.2505 2.6493C12.4776 2.67453 12.6635 2.77988 12.8143 2.93076L13.3241 3.44056C13.6803 3.79671 13.6605 4.29694 13.5028 4.6125C13.4986 4.62077 13.4943 4.62893 13.4897 4.63696L13.1515 5.22884C12.9093 5.66794 13.1118 6.22007 13.671 6.47537L14.3281 6.7218C14.5349 6.79263 14.7234 6.91695 14.8497 7.11899C14.9716 7.31406 15 7.52571 15 7.70261V8.46732C15 8.97687 14.6555 9.28844 14.3837 9.42434C14.3681 9.43216 14.3521 9.43915 14.3357 9.44529L13.656 9.70019C13.6502 9.70236 13.6444 9.70442 13.6385 9.70637C13.1568 9.86695 12.8712 10.4806 13.0836 10.974L13.4178 11.6424C13.4284 11.6636 13.4374 11.6855 13.4449 11.7079C13.4946 11.8569 13.5433 12.0461 13.5206 12.2505C13.4954 12.4776 13.3901 12.6635 13.2392 12.8143L12.7294 13.3241C12.3732 13.6803 11.873 13.6605 11.5574 13.5028C11.4968 13.4724 11.4132 13.4253 11.3385 13.3832C11.2997 13.3613 11.2632 13.3407 11.2336 13.3246C11.1243 13.265 11.0279 13.2183 10.9432 13.19C10.9139 13.1803 10.8855 13.1678 10.8585 13.1528C10.419 12.9086 9.86536 13.1108 9.6096 13.671L9.36307 14.3284C9.179 14.8629 8.66162 15 8.38235 15H7.61765C7.1081 15 6.79653 14.6555 6.66063 14.3837C6.65281 14.3681 6.64582 14.3521 6.63968 14.3357L6.38478 13.656C6.38261 13.6502 6.38055 13.6444 6.3786 13.6385C6.22049 13.1642 5.62315 12.8801 5.13388 13.0741C4.92204 13.2083 4.67484 13.3157 4.53569 13.3761C4.49322 13.3946 4.46082 13.4087 4.44256 13.4178C4.29992 13.4891 4.11415 13.5463 3.90203 13.5198C3.68448 13.4926 3.5017 13.3853 3.3556 13.2392C3.34655 13.2301 3.33785 13.2207 3.32952 13.211L2.83016 12.6284C2.49596 12.2794 2.51111 11.7997 2.65946 11.4883L2.91233 10.8982C3.12501 10.4197 2.94626 9.85364 2.41395 9.52954C2.13847 9.45836 1.89872 9.38196 1.7069 9.297C1.44802 9.25641 1.26056 9.09984 1.15035 8.9235C1.03572 8.74009 1 8.53581 1 8.38235V7.61765C1 7.39252 1.09981 7.18337 1.20621 7.0415C1.28779 6.93274 1.45556 6.75629 1.70328 6.70636L2.40151 6.39604C2.4162 6.3895 2.4312 6.38369 2.44646 6.3786C2.92078 6.22049 3.20489 5.62315 3.01085 5.13389C2.87671 4.92204 2.76929 4.67484 2.70883 4.53569C2.69038 4.49323 2.6763 4.46082 2.66717 4.44256C2.59585 4.29992 2.53862 4.11415 2.56514 3.90203C2.59233 3.68448 2.69969 3.5017 2.84579 3.3556L3.3556 2.84579C3.4962 2.70519 3.67359 2.59666 3.86286 2.53988C4.04693 2.48466 4.2932 2.46504 4.52753 2.5822C4.5358 2.58634 4.54396 2.5907 4.55199 2.59529L5.12266 2.92139C5.63402 3.13521 6.2442 2.90362 6.47201 2.42113L6.71847 1.68176C6.72595 1.65931 6.73502 1.63742 6.7456 1.61626ZM7.65262 2.04159L7.41225 2.76269C7.40717 2.77795 7.40135 2.79295 7.39481 2.80764C6.9384 3.83458 5.70267 4.27376 4.69562 3.82619C4.68025 3.81935 4.66523 3.81175 4.65062 3.8034L4.12966 3.50571C4.12329 3.50868 4.11627 3.51237 4.10878 3.5169C4.09196 3.52708 4.07609 3.53951 4.0627 3.5529L3.58074 4.03487C3.60706 4.09065 3.63643 4.15799 3.66273 4.21829C3.67947 4.25665 3.69496 4.29217 3.70763 4.32006C3.7553 4.42492 3.8063 4.52538 3.87027 4.62134C3.88598 4.6449 3.89966 4.66975 3.91115 4.69562C4.3673 5.72196 3.81619 6.95933 2.78738 7.31885L2.04294 7.64972C2.02886 7.65597 2.01454 7.66156 2 7.66648V8.33352C2.02168 8.34085 2.04289 8.34968 2.06348 8.35998C2.18415 8.42031 2.39704 8.49482 2.72584 8.57702C2.76829 8.58763 2.80915 8.60377 2.8474 8.62501C3.80315 9.15599 4.28543 10.2665 3.82763 11.3011L3.57395 11.893C3.57016 11.9019 3.56612 11.9106 3.56182 11.9192L3.56134 11.9206C3.56134 11.9206 3.56018 11.9245 3.55964 11.9274C3.55854 11.9334 3.55838 11.939 3.55875 11.9433C3.56571 11.9504 3.57246 11.9579 3.57897 11.9655L4.03908 12.5022C4.09401 12.4764 4.15949 12.4479 4.21828 12.4222C4.25665 12.4055 4.29217 12.39 4.32006 12.3773C4.42492 12.3297 4.52538 12.2787 4.62134 12.2147C4.6449 12.199 4.66975 12.1853 4.69562 12.1738C5.727 11.7154 6.9715 12.2742 7.32409 13.3128L7.56411 13.9528C7.57633 13.9728 7.58944 13.9866 7.59902 13.9938C7.604 13.9975 7.60758 13.9989 7.60758 13.9989C7.60758 13.9989 7.61073 14 7.61765 14H8.38235C8.38456 14 8.3927 13.9996 8.40358 13.9969C8.41111 13.9951 8.41722 13.9929 8.42168 13.9909C8.42244 13.9888 8.42321 13.9867 8.42399 13.9846L8.67889 13.3048C8.68237 13.2956 8.68613 13.2864 8.69015 13.2773C9.11141 12.3295 10.2292 11.6909 11.3036 12.2567C11.457 12.3121 11.5989 12.3847 11.7125 12.4467C11.7779 12.4824 11.8276 12.5106 11.8693 12.5344C11.9214 12.564 11.9612 12.5866 12.0042 12.6081L12.0055 12.6086L12.0074 12.6092L12.0124 12.6103C12.0183 12.6114 12.0239 12.6116 12.0281 12.6112L12.5224 12.1169C12.5193 12.1017 12.5142 12.0816 12.5062 12.0553L12.1835 11.4099C12.1801 11.4031 12.1769 11.3963 12.1738 11.3893C11.7154 10.358 12.2742 9.11348 13.3128 8.76088L13.9529 8.52085C13.9728 8.50863 13.9866 8.49553 13.9938 8.48595C13.9975 8.48097 13.9989 8.47739 13.9989 8.47739C13.9989 8.47739 14 8.47447 14 8.46732V7.70261C14 7.68785 13.9995 7.67577 13.9988 7.66606C13.9965 7.66529 13.9943 7.66452 13.9921 7.66372C13.9896 7.66283 13.9871 7.66191 13.9846 7.66098L13.3048 7.40607C13.2956 7.40259 13.2864 7.39884 13.2773 7.39481C12.3176 6.96826 11.6749 5.82752 12.2786 4.74084L12.2815 4.73557L12.6093 4.16208L12.6103 4.15758C12.6114 4.15165 12.6116 4.14605 12.6112 4.14183L12.1169 3.64758C12.1017 3.65066 12.0816 3.65569 12.0553 3.66371L11.4099 3.98643C11.4031 3.98982 11.3963 3.99305 11.3893 3.99612C10.3598 4.45369 9.11791 3.89771 8.76277 2.8627L8.4378 2.05027C8.43203 2.04033 8.42503 2.02973 8.41703 2.01929C8.41136 2.0119 8.40586 2.00546 8.40078 2H7.70262C7.69571 2 7.69259 2.00112 7.69259 2.00112C7.69259 2.00112 7.68897 2.00247 7.68399 2.00621C7.67533 2.0127 7.66378 2.02464 7.65262 2.04159ZM8 6.25C7.0335 6.25 6.25 7.0335 6.25 8C6.25 8.9665 7.0335 9.75 8 9.75C8.9665 9.75 9.75 8.9665 9.75 8C9.75 7.0335 8.9665 6.25 8 6.25ZM5.25 8C5.25 6.48122 6.48122 5.25 8 5.25C9.51878 5.25 10.75 6.48122 10.75 8C10.75 9.51878 9.51878 10.75 8 10.75C6.48122 10.75 5.25 9.51878 5.25 8Z"></path></svg>