<svg viewbox="0 0 24 24" width="24" height="24"><path d="M4.5 10.7499C4.08579 10.7499 3.75 11.0857 3.75 11.4999V20.4999C3.75 20.9141 4.08579 21.2499 4.5 21.2499H19.5C19.9142 21.2499 20.25 20.9141 20.25 20.4999V11.4999C20.25 11.0857 19.9142 10.7499 19.5 10.7499H14.625V9.24989H19.5C20.7426 9.24989 21.75 10.2573 21.75 11.4999V20.4999C21.75 21.7425 20.7426 22.7499 19.5 22.7499H4.5C3.25736 22.7499 2.25 21.7425 2.25 20.4999V11.4999C2.25 10.2573 3.25736 9.24989 4.5 9.24989H9.375V10.7499H4.5ZM12.5766 0.944962C12.4352 0.797636 12.2398 0.714355 12.0355 0.714355C11.8313 0.714355 11.6359 0.797636 11.4945 0.944962L8.03114 4.55268C7.74429 4.8515 7.75398 5.32627 8.0528 5.61312C8.35161 5.89998 8.82638 5.89028 9.11324 5.59147L11.25 3.36563V14.6249C11.25 15.0392 11.5858 15.3749 12 15.3749C12.4142 15.3749 12.75 15.0392 12.75 14.6249V3.2916L14.9578 5.59147C15.2447 5.89028 15.7195 5.89998 16.0183 5.61312C16.3171 5.32627 16.3268 4.8515 16.0399 4.55268L12.5766 0.944962Z"></path></svg>