<svg viewbox="0 0 16 16" width="16" height="16"><path d="M7.86358 4C4.49891 4 2.53124 6.21859 1.72813 7.39791L1.71877 7.41118C1.42768 7.81014 1.4271 8.22855 1.71704 8.62758C2.61603 9.82701 4.58468 12 7.86358 12C11.2531 12 13.5523 9.79245 14.3349 8.64324C14.5532 8.32267 14.555 7.81227 14.3405 7.48845C13.444 6.29534 11.2258 4 7.86358 4ZM0.905965 6.82861C1.78506 5.54014 4.01427 3 7.86358 3C11.7124 3 14.1928 5.6234 15.1483 6.89889C15.1528 6.9049 15.1572 6.91102 15.1614 6.91722C15.6129 7.58018 15.6129 8.54316 15.1614 9.20611C14.2649 10.5226 11.6945 13 7.86358 13C4.09245 13 1.86369 10.4913 0.914685 9.22445L0.910914 9.21941C0.364673 8.47077 0.363044 7.57813 0.905965 6.82861ZM8.00002 6.25C7.03352 6.25 6.25002 7.0335 6.25002 8C6.25002 8.9665 7.03352 9.75 8.00002 9.75C8.96651 9.75 9.75002 8.9665 9.75002 8C9.75002 7.0335 8.96651 6.25 8.00002 6.25ZM5.25002 8C5.25002 6.48122 6.48123 5.25 8.00002 5.25C9.5188 5.25 10.75 6.48122 10.75 8C10.75 9.51878 9.5188 10.75 8.00002 10.75C6.48123 10.75 5.25002 9.51878 5.25002 8Z"></path></svg>