<svg viewbox="0 0 12 12" width="12" height="12"><path d="M5.23916 1.22368C5.47864 0.486634 6.52137 0.486639 6.76085 1.22369L7.66165 3.99606L10.5767 3.99606C11.3517 3.99606 11.6739 4.98776 11.0469 5.44328L8.6886 7.1567L9.5894 9.92908C9.82888 10.6661 8.9853 11.279 8.35833 10.8235L6 9.11008L3.64168 10.8235C3.0147 11.279 2.17112 10.6661 2.4106 9.92908L3.3114 7.1567L0.953078 5.44328C0.326106 4.98775 0.64833 3.99606 1.42331 3.99606L4.33836 3.99606L5.23916 1.22368ZM6 2.11811L5.28941 4.30508C5.15554 4.7171 4.77158 4.99606 4.33836 4.99606L2.03884 4.99606L3.89919 6.34768C4.24968 6.60233 4.39633 7.05369 4.26246 7.46572L3.55187 9.65268L5.41222 8.30106C5.7627 8.04642 6.2373 8.04642 6.58779 8.30106L8.44813 9.65268L7.73754 7.46572C7.60367 7.05369 7.75033 6.60233 8.10081 6.34768L9.96116 4.99606L7.66165 4.99606C7.22842 4.99606 6.84447 4.7171 6.71059 4.30508L6 2.11811Z"></path></svg>