<svg viewbox="0 0 12 12" width="12" height="12"><path d="M6.76084 1.22368C6.52136 0.486638 5.47863 0.486635 5.23915 1.22368L4.33835 3.99606H1.4233C0.648324 3.99606 0.326097 4.98775 0.953071 5.44328L3.3114 7.1567L2.4106 9.92908C2.17111 10.6661 3.0147 11.279 3.64167 10.8235L5.99999 9.11008L8.35832 10.8235C8.98529 11.279 9.82887 10.6661 9.58939 9.92908L8.68859 7.1567L11.0469 5.44328C11.6739 4.98776 11.3517 3.99606 10.5767 3.99606L7.66164 3.99606L6.76084 1.22368ZM5.99914 2.12076L5.99999 2.11811L6.71058 4.30508C6.84446 4.7171 7.22841 4.99606 7.66164 4.99606H9.96115L8.10081 6.34768C7.75032 6.60233 7.60366 7.05369 7.73754 7.46572L8.44812 9.65268L6.58778 8.30106C6.41229 8.17357 6.20569 8.1099 5.99914 8.11008V2.12076Z"></path></svg>