<svg viewbox="0 0 16 16" width="16" height="16"><path d="M8.33083 1C7.91514 1 7.5505 1.28178 7.45149 1.69047C7.30367 2.30065 6.95035 3.70935 6.549 4.96125C6.34742 5.59002 6.13947 6.16089 5.9453 6.56772C5.84697 6.77374 5.76311 6.91418 5.69872 6.99563L5.69523 7H3C2.17157 7 1.5 7.67157 1.5 8.5V13.5001C1.5 14.3285 2.17157 15.0001 3 15.0001H5C5.27614 15.0001 5.5 14.7762 5.5 14.5001V14.0658C5.54643 14.0987 5.5944 14.1319 5.6438 14.1651C6.23133 14.5597 7.0853 15 8.01088 15H12.1661C12.8979 15 13.5228 14.4719 13.645 13.7505L14.5963 8.134C14.803 6.91337 13.8624 5.8 12.6243 5.8H10.2444L10.4348 3.26822C10.5269 2.04403 9.55848 1 8.33083 1ZM4.5 8H3C2.72386 8 2.5 8.22386 2.5 8.5V13.5001C2.5 13.7762 2.72386 14.0001 3 14.0001H4.5V8ZM5.50009 12.7858L5.50001 8H5.81088C5.99065 8 6.13544 7.92838 6.23505 7.85809C6.33474 7.78776 6.41679 7.69978 6.48317 7.61582C6.61565 7.44825 6.73716 7.23023 6.84779 6.99844C7.07153 6.52965 7.29579 5.90746 7.50126 5.26654C7.89777 4.02976 8.24572 2.65479 8.40479 2.00242C9.01504 2.04243 9.48422 2.574 9.43764 3.1932L9.20673 6.26249C9.1963 6.40122 9.24414 6.53803 9.33875 6.64003C9.43337 6.74203 9.5662 6.8 9.70533 6.8H12.6243C13.2433 6.8 13.7137 7.35668 13.6103 7.967L12.659 13.5835C12.6183 13.824 12.41 14 12.1661 14H8.01088C7.382 14 6.73057 13.6903 6.20132 13.3349C5.94367 13.1619 5.72997 12.9882 5.58106 12.858C5.55132 12.832 5.52427 12.8078 5.50009 12.7858Z"></path></svg>