<svg viewbox="0 0 24 24" width="24" height="24"><path d="M12.1245 4.11021C7.39153 4.11021 3.55467 7.94707 3.55467 12.6801C3.55467 17.4131 7.39153 21.2499 12.1245 21.2499C16.8576 21.2499 20.6944 17.4131 20.6944 12.6801C20.6944 7.94707 16.8576 4.11021 12.1245 4.11021ZM2.05467 12.6801C2.05467 7.11864 6.56311 2.61021 12.1245 2.61021C17.686 2.61021 22.1944 7.11864 22.1944 12.6801C22.1944 18.2415 17.686 22.7499 12.1245 22.7499C6.56311 22.7499 2.05467 18.2415 2.05467 12.6801ZM16.824 2.33982C16.8023 1.92618 17.1201 1.57328 17.5337 1.5516C20.3663 1.40315 22.7829 3.57905 22.9313 6.41159C22.953 6.82524 22.6352 7.17814 22.2216 7.19982C21.8079 7.2215 21.4551 6.90374 21.4334 6.4901C21.3283 4.48484 19.6175 2.94445 17.6122 3.04954C17.1986 3.07122 16.8457 2.75347 16.824 2.33982ZM7.49418 2.4476C7.53028 2.03496 7.22504 1.67119 6.8124 1.63508C3.98676 1.38787 1.49572 3.4781 1.2485 6.30375C1.2124 6.71638 1.51765 7.08016 1.93028 7.11626C2.34292 7.15236 2.7067 6.84712 2.7428 6.43448C2.91781 4.43411 4.6813 2.95437 6.68166 3.12938C7.0943 3.16548 7.45808 2.86023 7.49418 2.4476ZM12.8744 12.7524V8.02012C12.8744 7.60591 12.5386 7.27012 12.1244 7.27012C11.7102 7.27012 11.3744 7.60591 11.3744 8.02012V13.5024C11.3744 13.9166 11.7102 14.2524 12.1244 14.2524H16.5102C16.9245 14.2524 17.2602 13.9166 17.2602 13.5024C17.2602 13.0882 16.9245 12.7524 16.5102 12.7524H12.8744Z"></path></svg>