<svg viewbox="0 0 16 16" width="16" height="16"><path d="M8 3.49996C5.10051 3.49996 2.75 5.85047 2.75 8.74996C2.75 11.6495 5.10051 14 8 14C10.8995 14 13.25 11.6495 13.25 8.74996C13.25 5.85047 10.8995 3.49996 8 3.49996ZM1.75 8.74996C1.75 5.29818 4.54822 2.49996 8 2.49996C11.4518 2.49996 14.25 5.29818 14.25 8.74996C14.25 12.2017 11.4518 15 8 15C4.54822 15 1.75 12.2017 1.75 8.74996ZM10.8136 1.52613C10.7991 1.25037 11.0109 1.0151 11.2867 1.00065C13.0332 0.909117 14.5232 2.25074 14.6148 3.99724C14.6292 4.27301 14.4174 4.50827 14.1416 4.52273C13.8658 4.53718 13.6306 4.32534 13.6161 4.04958C13.5535 2.8546 12.534 1.93665 11.339 1.99928C11.0633 2.01373 10.828 1.80189 10.8136 1.52613ZM5.22845 1.54354C5.25251 1.26845 5.04902 1.02593 4.77393 1.00186C3.03168 0.849438 1.49574 2.13824 1.34332 3.88049C1.31925 4.15558 1.52275 4.3981 1.79784 4.42216C2.07293 4.44623 2.31544 4.24274 2.33951 3.96764C2.4438 2.77558 3.49471 1.89377 4.68677 1.99806C4.96186 2.02213 5.20438 1.81863 5.22845 1.54354ZM8.5 8.25997V5.49994C8.5 5.2238 8.27614 4.99994 8 4.99994C7.72386 4.99994 7.5 5.2238 7.5 5.49994V8.74996L7.50003 8.75497L7.5 8.75997C7.5 9.03611 7.72386 9.25997 8 9.25997H10.6667C10.9428 9.25997 11.1667 9.03611 11.1667 8.75997C11.1667 8.48383 10.9428 8.25997 10.6667 8.25997H8.5Z"></path></svg>