<svg viewbox="0 0 24 24" width="24" height="24"><path d="M9.79721 8.54272C10.2114 8.54272 10.5472 8.87851 10.5472 9.29272V17.5597C10.5472 17.9739 10.2114 18.3097 9.79721 18.3097C9.383 18.3097 9.04721 17.9739 9.04721 17.5597V9.29272C9.04721 8.87851 9.383 8.54272 9.79721 8.54272ZM15.0787 9.29272C15.0787 8.87851 14.7429 8.54272 14.3287 8.54272C13.9144 8.54272 13.5787 8.87851 13.5787 9.29272V17.5597C13.5787 17.9739 13.9144 18.3097 14.3287 18.3097C14.7429 18.3097 15.0787 17.9739 15.0787 17.5597V9.29272ZM7.875 3.5625V5.0625H3C2.58579 5.0625 2.25 5.39829 2.25 5.8125C2.25 6.22671 2.58579 6.5625 3 6.5625H4.5V19.3125C4.5 20.6587 5.59131 21.75 6.9375 21.75H17.0625C18.4087 21.75 19.5 20.6587 19.5 19.3125V6.5625H21C21.4142 6.5625 21.75 6.22671 21.75 5.8125C21.75 5.39829 21.4142 5.0625 21 5.0625H16.125V3.5625C16.125 2.83763 15.5374 2.25 14.8125 2.25H9.1875C8.46263 2.25 7.875 2.83763 7.875 3.5625ZM14.625 5.0625V3.75H9.375V5.0625H14.625ZM18 6.5625H6V19.3125C6 19.8303 6.41973 20.25 6.9375 20.25H17.0625C17.5803 20.25 18 19.8303 18 19.3125V6.5625Z"></path></svg>