<svg viewbox="0 0 16 16" width="16" height="16"><path d="M6.5 6.3C6.77614 6.3 7 6.52386 7 6.8V11.8C7 12.0762 6.77614 12.3 6.5 12.3C6.22386 12.3 6 12.0762 6 11.8V6.8C6 6.52386 6.22386 6.3 6.5 6.3ZM10.25 6.85C10.25 6.57386 10.0261 6.35 9.75 6.35C9.47386 6.35 9.25 6.57386 9.25 6.85V11.8C9.25 12.0762 9.47386 12.3 9.75 12.3C10.0261 12.3 10.25 12.0762 10.25 11.8V6.85ZM5 2.37879V3.77264H2.25C1.97386 3.77264 1.75 3.9965 1.75 4.27264C1.75 4.54879 1.97386 4.77264 2.25 4.77264H2.75V12.9726C2.75 14.0772 3.64543 14.9726 4.75 14.9726H11.25C12.3546 14.9726 13.25 14.0772 13.25 12.9726V4.77264H13.75C14.0261 4.77264 14.25 4.54879 14.25 4.27264C14.25 3.9965 14.0261 3.77264 13.75 3.77264H11V2.37879C11 1.89345 10.6066 1.5 10.1212 1.5H5.87879C5.39345 1.5 5 1.89345 5 2.37879ZM10 3.77264V2.5H6V3.77264H10ZM12.25 4.77264H3.75V12.9726C3.75 13.5249 4.19772 13.9726 4.75 13.9726H11.25C11.8023 13.9726 12.25 13.5249 12.25 12.9726V4.77264Z"></path></svg>