<svg viewbox="0 0 16 16" width="16" height="16"><path d="M5.93061 1.67309C6.87312 0.0406119 9.2294 0.0406098 10.1719 1.67309L15.6734 11.2019C16.6159 12.8344 15.4378 14.875 13.5527 14.875H2.54978C0.664759 14.875 -0.513381 12.8344 0.429131 11.2019L5.93061 1.67309ZM7.24999 11.687C7.24999 12.1012 7.58578 12.437 7.99999 12.437C8.41421 12.437 8.74999 12.1012 8.74999 11.687V11.1434C8.74999 10.7292 8.41421 10.3934 7.99999 10.3934C7.58578 10.3934 7.24999 10.7292 7.24999 11.1434V11.687ZM7.24999 8.80002C7.24999 9.21423 7.58578 9.55002 7.99999 9.55002C8.41421 9.55002 8.74999 9.21423 8.74999 8.80002V5.09603C8.74999 4.68182 8.41421 4.34603 7.99999 4.34603C7.58578 4.34603 7.24999 4.68182 7.24999 5.09603V8.80002Z"></path></svg>